/* XPM */
static char *cd06f62151cb4e69d708c819f0dc947da6xTqCG9ZaOpp0K9[] = {
/* columns rows colors chars-per-pixel */
"64 64 161 2 ",
"   c #002E56",
".  c #01375E",
"X  c #003B5D",
"o  c #073660",
"O  c #093660",
"+  c #023D63",
"@  c #0A3D66",
"#  c #053C68",
"$  c #0D3E6B",
"%  c #103A67",
"&  c #123D6B",
"*  c #1A3F6E",
"=  c #133F70",
"-  c #00415F",
";  c #014465",
":  c #0B4466",
">  c #004966",
",  c #0C4866",
"<  c #02446A",
"1  c #0C446B",
"2  c #014A6B",
"3  c #0B4A6D",
"4  c #114666",
"5  c #104967",
"6  c #13426D",
"7  c #19416F",
"8  c #134C6E",
"9  c #18486E",
"0  c #13506F",
"q  c #044670",
"w  c #0D4371",
"e  c #034C72",
"r  c #0D4D72",
"t  c #134571",
"y  c #1A4271",
"u  c #134D72",
"i  c #194D73",
"p  c #035374",
"a  c #0C5274",
"s  c #055A77",
"d  c #0C5977",
"f  c #00567A",
"g  c #0D557A",
"h  c #045D7C",
"j  c #0B5C7C",
"k  c #125174",
"l  c #185075",
"z  c #105A77",
"x  c #14547A",
"c  c #1B537B",
"v  c #125B7C",
"b  c #1B5A7E",
"n  c #205479",
"m  c #20587D",
"M  c #04607D",
"N  c #0A617D",
"B  c #11607F",
"V  c #055E81",
"C  c #0C5D81",
"Z  c #185780",
"A  c #145980",
"S  c #115D81",
"D  c #1F5F83",
"F  c #265E83",
"G  c #026181",
"H  c #036280",
"J  c #076281",
"K  c #016481",
"L  c #016483",
"P  c #056482",
"I  c #046683",
"U  c #066384",
"Y  c #066787",
"T  c #066282",
"R  c #086181",
"E  c #086183",
"W  c #0D6480",
"Q  c #0E6583",
"!  c #0B6486",
"~  c #0C6585",
"^  c #0B6283",
"/  c #0E6883",
"(  c #0F6984",
")  c #0D6887",
"_  c #0D6986",
"`  c #0F6588",
"'  c #0D6688",
"]  c #0D6688",
"[  c #066F8C",
"{  c #076F8C",
"}  c #076B8E",
"|  c #0C6988",
" . c #0D6A89",
".. c #0C6B89",
"X. c #0A6D8A",
"o. c #0B6E8B",
"O. c #0E6B8D",
"+. c #0B6C8C",
"@. c #0A6D8C",
"#. c #0E6D8D",
"$. c #0C6F8C",
"%. c #0D6F8C",
"&. c #0D6C8B",
"*. c #126283",
"=. c #126784",
"-. c #136585",
";. c #186086",
":. c #1B6486",
">. c #156886",
",. c #146B87",
"<. c #116D86",
"1. c #126C86",
"2. c #136986",
"3. c #196987",
"4. c #116788",
"5. c #17678A",
"6. c #136689",
"7. c #1B678B",
"8. c #1D678C",
"9. c #1B668A",
"0. c #126889",
"q. c #12688B",
"w. c #126B8B",
"e. c #156888",
"r. c #166989",
"t. c #14688A",
"y. c #16698B",
"u. c #146A8B",
"i. c #126D88",
"p. c #136E8B",
"a. c #146E89",
"s. c #16688D",
"d. c #176A8C",
"f. c #126D8C",
"g. c #126F8E",
"h. c #176E8C",
"j. c #136A8B",
"k. c #18688B",
"l. c #186A8F",
"z. c #1C688C",
"x. c #1A688B",
"c. c #06708A",
"v. c #09718E",
"b. c #0C718D",
"n. c #0E708D",
"m. c #0D718D",
"M. c #12718F",
"N. c #0C6D92",
"B. c #116F91",
"V. c #136D92",
"C. c #1B6D92",
"Z. c #146D99",
"A. c #0E7093",
"S. c #117090",
"D. c #137193",
"F. c #197094",
"G. c #147099",
"H. c #1B7099",
"J. c #236085",
"K. c #206E93",
"L. c #207093",
/* pixels */
"u u u 9 u l 8 i i i u r ; ; p k.u.#.@.v.} c.m.X.g.| g.O.i.u.a r r i u 8 u u i u u i u r 2 ; p >.i.m.&.m.@.} V.O.S.Y b.X.i.t.a a ",
"u 9 u 8 u l 8 u u t u a 3 2 a B j M G L L I ..^ h h M h j j e r t u u 8 u u u i i u t k 3 2 p v s h M M G U ~ ~ T h L M M d < 3 ",
"u 8 k 8 u u 3 u u u u l k 3 a d v j j M h s d d v j *.N j j r c u k u 8 k u 8 u i u u k k 3 a d B j N M j C j j C j ` N N j 3 k ",
", : , : 3 , : r 3 < : 3 3 2 ; > ; ; 2 > 2 p 2 < < ; > < ; ; . ; : , : : , , : 3 2 3 : 3 r > ; ; ; ; > < 2 2 < < ; ; < ; ; ; + : ",
"c c c x Z A v D 8.x.k.h.u.t.q.4.h.1.i._ 4.N p a z k k v z c k m c c c x Z A A 6.z.z.k.t.x.q.-.4.M.1.B <.B B a a v x v d z z l n ",
"u u i 3 r r e j j j j h V M T V M s M s N j < r r k r r a u 8 u t i r r r r p g j j j h T V h ^ M M M M B N 3 k 3 k 3 r k 8 8 9 ",
"i u i k k a 3 d d j j s s j j j N M M s N d + 1 8 i r u k a 8 u i i u l k 3 r g s N j s j j j N s s M s N d - : 8 i 8 r k a u u ",
"< # : < < ; X > > 2 2 > > 2 > ; > > 2 > 2 ,   o . : < ; ; ; : ; ; < ; : > X ; > > 2 > > 2 2 ; < > > 2 > 2 2   X o @ ; ; 2 ; < : ",
"q.~ h.t.~ q.4.O.O.~ u.6.e q w q w @ w 1 $ 6 & & & 6 1 < :.:.:.:.9.~ q.q.-.q.O.O.O.` u.5.e q w q t $ q 1 1 6 & % 7 1 1 < :.:.:.:.",
"M h T M h T T T ! T -.C q q w $ = @ t $ $ y * * & & < ; v j v j ^ M T M M ^ ^ U T h ` C q < w w = @ = 1 @ y * 7 & & < # S j B j ",
"N s N j j N j j s s j g 2 : t t t 1 t 1 1 $ & & y 6 3 < j d d s N M s j s N s j s s g g 2 1 t t t = w w 1 & % & & y 1 ; j g d j ",
"> > > > > > ; < 2 > > > ; # @ # # # < < 1 1 # & @ # # ; 2 2 2 2 > > 2 > 2 2 ; 2 2 > 2 > ; # @ # # # # < q 1 @ : % @ < # 2 2 2 2 ",
"a a k a a r e j t.O.O.q.-.5.9.9.3.,.k.=.9.v t u u i r r a 3 a a 3 p r r r e q d h.O.O.O.-.5.J.7.x.s.u.-.B B 0 8 u u u 3 a r p r ",
"r r u r u r a 6.j M h M h C C j s M M N *.j 3 r i i k r a k k 8 k l x t x u a ;.j M M M V j C C C j M M B N 3 8 i i l k u a u a ",
"i k i t c k 3 v j N h h N j g j j N N s j a : 8 u 9 u u 3 k u t 8 k i u i i r v j j M M N j j j j j N s N p ; 8 i 9 u u 8 r u u ",
"1 1 1 1 9 6 . ; ; < > ; 2 ; ; < > > > > > ; X 3 3 2 3 r 3 3 r 1 : 1 1 1 u 1 . ; ; < ; ; 2 ; ; ; ; > 2 > > > X 3 , 1 , 3 3 3 r q ",
"J.+ 1 1 1 : 1 6 6 @ 1 @ 1 1 1 < ; 9.q.i.i._ i.O.i.q.t.u.4.u.q.7.F X : : 6 : @ 1 6 # 1 @ 1 1 1 1 ; 9.q.4.h._ i._ t.t.t.t.q.g.u.V.",
"b + 1 1 1 1 $ $ % 7 7 & 7 $ 6 1 + v C j ^ M M M G V T ^ V f V V b + @ 1 : 1 @ 6 1 6 7 % = % 6 1 + v j N P h T M M ^ C C h f f V ",
"c + w q 1 1 1 6 @ t & 4 6 @ 6 1 ; v j d N s M j d d v j C C C C k # q 1 1 q 1 t @ t 6 & y $ 6 1 ; v j j j s j j d j j j C C ! ! ",
"q + < # # < ; + 1 + + # : . : ; . < ; ; 2 ; > ; 2 ; ; ; 2 < 2 < e # < < < < < ; 1 + X @ $ X 1 : X < ; ; > ; > ; ; < < ; 2 < 2 < ",
"Z.N.D.D.N.F.F.z.:.+ 3 t 3 8 u t u k 3 k k a a a r 3 p p ,.M.D.D.N.V.Z.Z.V.F.V.l.9.+ , r 1 8 u 8 8 k u a k 0 a k a 0 a p q.M.M.M.",
"N.N.N.A.} N.g.u.C.+ r r 6 u i u u u 8 u 8 8 8 8 k a p 2 ,.&.m.} N.N.} A.@.V.#.q.K.+ r r , l i u u 8 r u 8 8 0 8 r g 2 2 4...b.c.",
"N.N.N.N.} g.V.u.6.< r u u u i u u u u u u u u u u u a 2 >._ N.@.N.N.N.A.} N.O.g.s.2 a u t u i i u r u u u u u i 8 k a 2 1...b.b.",
"f f p f p f f f p e q 2 r 3 r 1 3 2 3 1 1 9 6 6 1 3 1 + a p e V f V p f f f p f e 2 2 2 r : 1 3 3 2 3 1 1 9 6 6 6 6 : . d p p p ",
"e e V.! g.V.P &.O.q.q.u.4.-.` -.:.:.J.< 1 6 & & 6 * & 6 w q q q q e s.` O.S.U #.O.O.,.t.,.-.-.-.9.9.D ; : 6 & & 6 6 = = 1 w q q ",
"2 2 C j ^ h h h h V ^ T V f V h j j x + ; 6 6 4 & & & & $ = = # q q C C V V h T G V h h h h f h s j v + # 9 6 & & & & & = $ $ $ ",
"< ; r g j d *.j C g j g C C V N j j j # # 6 1 6 1 $ t $ w w w w q < a v d j C ^ j j j j j j C C j C j + ; 6 & 6 * 6 6 1 w = = w ",
"< ; < < > ; e - < ; < < < < < ; 2 < < . + # + 1 # 1 # < # q # 1 # ; ; 2 < < 2 X < < # ; < < < < < < < . + @ + 1 @ # # < # q # q ",
"k.t.>.>.-.*.:.2 a a a 3 k a a a k a i u u k 3 J.9.:.3.3.k.k.x.x.>.-.=.,.-.=.3.2 a a r r k k k a a a k r k u r D J.3.3.3.V.7.l.l.",
"s N N h N j j ; a r k 8 8 8 0 0 u 3 u u t r ; z z j N M M j C j s N j N h j d ; a a r u u 3 8 r l 3 t u r , ; x d j j N V V j C ",
"C C C j j p 3 + u k 8 0 8 5 0 0 u u i i u l , z j N N N N j j j *.C j j d a 3 ; k u l u 8 8 3 0 8 8 u l l l , z z N N M j j j g ",
"2 2 < ; 2 + - ; : 1 5 6 , : > , , 3 : < < 3 X > 2 > > > > 2 < ; 2 ; ; ; 2 ; X ; : 1 , , , , , : 3 r , : : 3 X > 2 > 2 > 2 < < 2 ",
"r u k 3 r k t l l u u 8 , ; 3 :.k.t.q.q.q.4.u.O.q...m.X.q.t.a a r u k r r u 8 l u u u r : < a :.3.,.q.i.O.4.u.` q...A.X.i.h.a a ",
"l l k 8 k l u i u t u k 3 2 p B j M T G U ! 4.~ U G ^ G ^ j 2 3 u u l 3 8 k 8 u 8 u u k 3 2 2 B N M h T U V 6.` V V U G T j 2 r ",
"8 3 k 3 8 8 1 u l 8 k k k 0 a g v j j C j g g g C g ^ j j d 3 k k 0 u 3 u l , u l l u l k 0 a g S j j j g C g g C g C j j d 3 x ",
", , , , 3 3 3 u 2 : < , 2 2 ; < ; ; < 2 2 2 < < e < 2 > 2 ; . : : : , : , , < 3 1 , < 2 r 2 ; 2 ; ; < 2 2 e 2 < 2 < e 2 2 ; . 1 ",
"c x c k x x g S 9.9.9.u.u.t.4.4.M.1.b.( 4.B a g g a g d j a 8 c c c c x Z Z x 6.J.z.x.5.C.u.q.q.h.i.b.( =.B a a g a d d d a 0 c ",
"l u x r k a a C j C j h V h C T M s M M N j > 3 u a a a k a k l t r i r r e q C j N T h V h V C M M M M N j 2 3 k k p a g k 0 l ",
"i 9 t i a 3 3 z s N j s d N N j N s N s v g + 1 t i 3 r u u u 9 u 9 i 8 a 0 a d s N N s j j j j j s N d B k ; 6 6 8 t 3 k u 9 9 ",
"; ; < < ; ; - > > > 2 2 ; 2 2 < 2 ; 2 ; 3 <   O O @ : ; ; 1 ; # ; ; ; ; ; ; X > > 2 2 > > 2 < 2 > ; 2 ; 3 <   . . 1 1 ; ; ; < : ",
"-.4.i.4.4.O.~ q.q.O.q.6.q e w q 6 1 w 1 w w @ & y 1 1 < 9.=.>.>.5.~ u.t.~ q.q.O.q.` q.4.e q q q w @ w q 1 1 & % * 6 1 < 9.*.:.,.",
"T T ^ N T ! V U ^ M ` j q q w $ = @ w $ $ t y y & @ < < C j ^ h ! h ^ ^ h T T U ^ U ` C e 1 w $ $ $ t $ $ t 7 * & @ < ; ^ j N j ",
"s s j s s j s j M s d a < : t 6 y = t $ $ & % & * y 1 < v s g g j s N s d j s s j p g d 2 : w & y = t w $ & % & * 7 1 < j g j g ",
"> > > > 2 2 > 2 2 > > > ; # ; @ # # # q 1 & @ & % @ @ + 3 < e 2 > > 2 > 2 2 > 2 2 > > > ; # 1 @ # # # < 1 w @ & % % @ # 2 < e 2 ",
"r e k r r q 2 d t.q.O.O.-.5.9.9.z.k.h.4.5.v a u u i t r a a p a 3 a k r w e 3 g q._ O.4.-.t.7.9.8.s.5.-.,.B 3 u u u u 3 a e a p ",
"x k l u i k k -.h M M M T C C j j s M M ^ j 2 u l i k k a a u r k k l u k u r ;.^ M G M G j j j C C M M B j 3 8 i i k a k a a u ",
"t u u u i i a A j j M h N h j j j j N s j a ; 9 i 9 8 8 t r u r u i u u c i r v j N N M N N j j v j h s j p : 8 i 9 9 u u u u u ",
"w 1 6 6 6 1 + ; ; < 2 > 2 ; ; < ; 2 2 > > > X 3 , 1 3 r 3 3 r 3 1 t 1 1 t 1 + ; ; ; 2 ; 2 ; < 2 ; > 2 > 2 > X 3 1 1 3 3 3 3 e 3 ",
"F @ @ 1 1 6 @ 6 1 @ 6 # 1 1 w 1 < 9.t.i.g._ &._ ,.q.t.k.4.q.V.z.J.X : 6 1 6 1 1 t @ 1 @ 1 w 1 < < 9.5.q.i._ i._ 4.t.5.u.4.q.V.V.",
"b o : 1 1 1 @ 6 $ 7 & % 7 @ 6 < + j j N T M M M h ^ ^ T V f f V b X @ 1 : 1 @ & @ y & % & & 1 1 + j j N P M L M M ^ ! V h f f h ",
"x # 1 1 < 1 : 1 @ 6 6 4 9 @ 3 : : v j j N s j j g g j j j C C C x < 1 q 1 1 1 & $ y $ 4 t 1 1 : : v j j N s j j s s j g j C C C ",
"q # < < # < ; # : . X : : X : ; . < ; > 2 ; 2 > 2 2 2 ; e e 2 2 2 # q < # 2 < ; < # . @ @ + : ; X < ; < 2 ; > > 2 3 2 < e e 2 e ",
"Z.Z.G.Z.Z.H.C.C.9.+ r t 1 r i t k k r a z a a a 3 a a 2 4.i.#.V.Z.Z.D.V.V.C.C.l.:.+ : k 1 r 0 l k k a k k 0 a a 3 a 2 p ~ i.g.m.",
"N.N.N.N.N.N.V.g.K.; e a , i i k i r u u 8 3 8 0 k d p 2 1.b.m.v.N.N.N.N.#.N.V.q.C.; r k : l 8 u u 8 u k 8 3 8 0 z a a 2 q.b.m.b.",
"N.N.O...N.b.i.,.6.< a r 8 u 8 8 u u u i 8 i u 9 3 u a > t._ X.@.N.N.N.N.N.N.V.q.6.2 a k 1 l u i k u u u u u i u 3 k a 2 4._ X.b.",
"f f p f f p p p 2 2 3 2 r 3 : 3 3 < r 3 , 6 9 6 1 8 < + d p p p f f f p f p p f e 2 2 2 r 3 : : 3 2 3 1 1 8 6 6 1 8 < . d p p p ",
"e e q.q.V.V.N.#.V.q.s.q.6.C 6.6.k.3.:.; 1 6 % & & = = t w q w q q e 4.V.q.N.&.g.q.O.4.q.-.W ^ >.:.3.;.# : 6 & 6 & 6 & w w w w q ",
"q e S C V V h T V U V V V V V V j C v + ; 6 1 7 & & & $ = $ = q q e C ^ h C h M ^ T M j h h h V j j v + : 6 & & & & & & $ $ $ = ",
"2 2 d a j g j B j j j j g j C C j j j # < 1 1 @ 6 6 w w = # w w q < a g g j C C C j j j C j C C j j g ; < 1 @ 1 6 6 6 w q = w w ",
"; + > ; > > > ; < ; ; ; < ; < < ; < ; . o # + 1 < # # q # q # < < ; < 2 < 2 2 + < < # < < < < 2 < < < . + ; . 1 @ ; # < # q # q ",
"-.t.h.-.t.,.-.3 g a k k a k r a a r k r k l 0 B :.:.k.t.x.x.x.x.,.,.,.4.4.3.B 3 a a r r a k k a g a k r 0 k 3 :.:.3.k.3.l.7.l.7.",
"h h T h ^ h g ; r r u 0 u u k u k 8 i u 8 5 ; z j j M N h N C h s N M N N N s ; a r u u u 8 8 u l 8 u u 8 8 ; v z j M M V V C V ",
"^ C j j j a a - k 8 8 9 8 8 t 0 9 8 u 9 u l > B d N N M j j j j ^ N s N s p 3 ; u k l 9 8 8 8 8 8 8 u i 0 i > B N N N M j j j j ",
"2 < ; 2 2 - ; - 1 : 4 4 5 , 5 , 4 9 9 1 4 , - - - > > > > 2 < 2 2 < ; 3 2 ; ; X : 5 5 4 5 5 4 4 4 6 9 : 4 5 X - > - > > 2 < < 2 "
};
