/* XPM */
static char *a606c3b63a98445fd8ac35531b4942006Og1yh8SrV9GkIjk[] = {
/* columns rows colors chars-per-pixel */
"64 64 256 2 ",
"   c #391703",
".  c #281D08",
"X  c #3C2A18",
"o  c #352C12",
"O  c #313225",
"+  c #461902",
"@  c #561C02",
"#  c #551F13",
"$  c #661A03",
"%  c #741801",
"&  c #6E0F01",
"*  c #482705",
"=  c #572703",
"-  c #5A3508",
";  c #4A371A",
":  c #593717",
">  c #4E2C15",
",  c #672A06",
"<  c #653604",
"1  c #643616",
"2  c #6F290E",
"3  c #503728",
"4  c #683D26",
"5  c #763727",
"6  c #355431",
"7  c #6B471B",
"8  c #774918",
"9  c #724A10",
"0  c #534E31",
"q  c #6A4828",
"w  c #764A27",
"e  c #79552A",
"r  c #6A4935",
"t  c #754D35",
"y  c #7D5B34",
"u  c #7C5A3A",
"i  c #785536",
"p  c #6A5430",
"a  c #7B633A",
"s  c #7C632D",
"d  c #545A2F",
"f  c #31584E",
"g  c #376B5E",
"h  c #5B4849",
"j  c #4F544E",
"k  c #7D5C43",
"l  c #775948",
"z  c #655147",
"x  c #7A6546",
"c  c #7A6957",
"v  c #68785C",
"b  c #726E51",
"n  c #5F6C60",
"m  c #851B0C",
"M  c #8B3817",
"N  c #89531A",
"B  c #855C2D",
"V  c #885929",
"C  c #915E25",
"Z  c #845C34",
"A  c #8B5D34",
"S  c #835C3B",
"D  c #8A5D3C",
"F  c #825534",
"G  c #8D4C31",
"H  c #89632A",
"J  c #98672A",
"K  c #856134",
"L  c #8D6236",
"P  c #84633C",
"I  c #8C643C",
"U  c #8B6B39",
"Y  c #9C6C33",
"T  c #93643B",
"R  c #936A3C",
"E  c #9C6C3A",
"W  c #936836",
"Q  c #997339",
"!  c #8E7139",
"~  c #A6732C",
"^  c #A36E39",
"/  c #A77638",
"(  c #AC762F",
")  c #966219",
"_  c #835D43",
"`  c #865D47",
"'  c #855F52",
"]  c #846344",
"[  c #8B6443",
"{  c #8D6B43",
"}  c #84634B",
"|  c #8B644B",
" . c #8D6C4C",
".. c #846C48",
"X. c #916543",
"o. c #946B43",
"O. c #9B6C43",
"+. c #936C4B",
"@. c #9A6C4B",
"#. c #946649",
"$. c #8B7449",
"%. c #9C7344",
"&. c #94714C",
"*. c #9A734B",
"=. c #977646",
"-. c #896954",
";. c #936D53",
":. c #986B54",
">. c #8B7556",
",. c #947254",
"<. c #9B7553",
"1. c #9D7A54",
"2. c #9B755B",
"3. c #9C7A5C",
"4. c #94765A",
"5. c #A37442",
"6. c #A47A44",
"7. c #A4754B",
"8. c #A47B4C",
"9. c #AB7A47",
"0. c #A47A53",
"q. c #A77A56",
"w. c #AD744A",
"e. c #9B7963",
"r. c #8E736B",
"t. c #A37C62",
"y. c #668366",
"u. c #66855B",
"i. c #B5863C",
"p. c #928457",
"a. c #AA834A",
"s. c #B4834C",
"d. c #BD8C4C",
"f. c #B78745",
"g. c #BC9249",
"h. c #A78357",
"j. c #BC8C54",
"k. c #B68859",
"l. c #BD9354",
"z. c #BC925B",
"x. c #B89459",
"c. c #93916B",
"v. c #A78466",
"b. c #B98B64",
"n. c #BC9463",
"m. c #B99668",
"M. c #B09274",
"N. c #B5A474",
"B. c #C48E49",
"V. c #C4934B",
"C. c #CA9649",
"Z. c #D29B49",
"A. c #C58C57",
"S. c #C49353",
"D. c #CA9453",
"F. c #CC9B54",
"G. c #C4935A",
"H. c #CA955A",
"J. c #CD9B5B",
"K. c #C49B59",
"L. c #D39E54",
"P. c #D19D5C",
"I. c #D99958",
"U. c #D6A14E",
"Y. c #CCA259",
"T. c #D3A15C",
"R. c #D8A358",
"E. c #CCA14E",
"W. c #F9AE59",
"Q. c #E9B257",
"!. c #FDB65B",
"~. c #FDB95B",
"^. c #F8B459",
"/. c #F1B14F",
"(. c #C29563",
"). c #CC9C63",
"_. c #C89967",
"`. c #D49D63",
"'. c #C59A75",
"]. c #CD986D",
"[. c #CAA267",
"{. c #D3A263",
"}. c #D7A769",
"|. c #CAA477",
" X c #D5A774",
".X c #DDB57A",
"XX c #DBB76E",
"oX c #E4AC67",
"OX c #EBB464",
"+X c #E5B36C",
"@X c #EBB46B",
"#X c #EDBB6D",
"$X c #E8B666",
"%X c #FBB662",
"&X c #FCBA64",
"*X c #F2BD6B",
"=X c #FBBC6C",
"-X c #F3B766",
";X c #E6AF70",
":X c #ECBA74",
">X c #ECBB7A",
",X c #E7B578",
"<X c #F3BD74",
"1X c #F6BC79",
"2X c #E09764",
"3X c #F8C26C",
"4X c #F5C274",
"5X c #FCC374",
"6X c #FDC976",
"7X c #F4C37C",
"8X c #FDC57B",
"9X c #FECA7C",
"0X c #F2C979",
"qX c #FFD17C",
"wX c #EDC17C",
"eX c #C68C3A",
"rX c #60808B",
"tX c #BE9D81",
"yX c #B5A88C",
"uX c #9AA182",
"iX c #D2B08E",
"pX c #EBBC84",
"aX c #E6B988",
"sX c #F3BD83",
"dX c #F6BD89",
"fX c #E8BC96",
"gX c #F4BB93",
"hX c #F6AC87",
"jX c #EDBFA5",
"kX c #DDBDA8",
"lX c #DAC894",
"zX c #EAC38A",
"xX c #F4C283",
"cX c #FCC583",
"vX c #FECB83",
"bX c #FCCB8A",
"nX c #F7C58B",
"mX c #FFD485",
"MX c #EBC598",
"NX c #F6C796",
"BX c #FFD193",
"VX c #D7CBAB",
"CX c #D9CCB5",
"ZX c #D8D3B8",
"AX c #CFCCB0",
"SX c #E8C7A7",
"DX c #EDD1AE",
"FX c #FFEAB8",
"GX c #D7D6C3",
"HX c #CED5C6",
"JX c #EDD6C4",
"KX c #FEECC9",
"LX c #FFF3CC",
"PX c #FFF6D6",
"IX c #FDEDD5",
"UX c #FBF7E5",
/* pixels */
"!.!.!.!.!.!.!.~.!.!.!.!.!.!.!.!.!.!.!.^.^.^.!.!.~.!.!.^.%X!.!.&X^.&X%X%X%XW.%X!.~./.~.!.%X%X%XW.%X%XW.!.W.~.!.%X%X%X!.!.%X-X%X=X",
"!.!.~.!.!.!.!.!.!.!.!.!.~.!.!.!.!.!.!.!.!.~.!.~.^.!.!.!.^.!.%X%X%X!.&X%X%X!.!.~.~.~.3XW.%XW.!.%X%X%XW.W.!.!.%X%X%X%X!.^.^.~.%X%X",
"&X!.!.!.%X%X%X%X!.~.%X%X%X%X!.%X%X%X%X%X!.%X&X%X3X!.^.~.%X^.&X^.&X^.%X!.~.&X!.!.^.~./.3X!.^.3X^.W.&X%X=X%X%X^.&X!.!.!.~.~.~.^.^.",
"&X-X%X%X%X%X&X&X%X%X&X&X%X&X%X%X%X=X&X%X%X%X%X%X^.^.%X&X%X^.%X&X&X&X%X!.!.!.^.~.~.~.~././.&X^.$X1X@X<X@XOX=X&X!.!.^.!.!.!.~.^.~.",
"=X=X=X=X=X=X=X=X=X=X=X=X=X=X=X=X=X=X=X=X=X=X=X=X=X=X8X=X=X5X=X=X%X=X!.%X3X&X&X=X5X=X3X-X5X<X1Xf.s.^ Y 5.J 1X@X=X&X&X&X=X%X&X~.^.",
"8X8X8X5X8X=X5X5X8X=X5X6X8X8X6X8X8X8XcX1X1X8X8X8X8X8X=X*X=X5X4X6X=X=X6X5X=X-XI.C.qX9X6X*XU.@X;X>X8.X.0.#.E dXcX6X6X5X1X=X=X=X3X&X",
"9X8X9X8X8X8X8X8X8X8X8X8XvX8X8X9X9X8X9X8XcX8X9X9X8X8X8XmX8X6XmX8XcXoXvX7X}.<X*X*XqXqXZ.OXOX-X$X}.X.;.;.:.@.NXNXdXcXvXcXcX8X8X5X5X",
"8XcXvX8X8X8XvX8X8X8X9X8X8X9X8X8X8X9X9XvX9XvXcX9X8XbX8XcX8X9X=X) BXf.H.f.9.,X#X$X6X*X*X6XL.Z.6X~ P e.4.` #.'.gXnXcXcXcXcXcXcXvX8X",
"vX7XvX9X6X9XqXvX9X8X9X9X9X6XvX9X0XqX6X4XqXvXvXvXcXcXcX7XvX8XbX@XF.>X XzX6.,XBX+XqX#X#XoXP.P.oXpX;.;.} +.K q.H ].NXbXbXcXbXbXbXnX",
"9XvX4XvXvX0X9X6X4XvX8X6XvXvX9X6XqX3XqXmX5X0XT.~ ~ f.P.P.f.f.7X:X:Xf.[./ 6.pXQ :XbX0XmXT.H.}.pXL -.-.N.3.o.R q.7.5.^ nXbXbXXX[.[.",
"vXvXvX6X8XZ.mXU.3X3X0X6X4X6X4X9X0X6X3X4X0XT.L.( / S.J.S./ T.}.#X,X7X{.{.Q pXzXaX[.^ A.z.W |.| _ 2.`  .<.K I 0.D X.B n.H MXn.=.U ",
"8X7XvXvX9X$XR.$XE.Z.4X6X4XvX6XqX0X3X4X3X4XmXT./ T.f.B.T.T.D.J :XbXJ.J }.zX X8.9.k.E Y Y W o.#.| -.t.} h.+.<.o.;.t.0.K 0.=.R *.[ ",
"L.R.L.R.8XvX9XQ.U.*X$X*X#X4X*X4X#X#X$XT.@X1X( ;X>X;X1X,X:X@X8XxXxXC bX[..XB =.6.^ T.J./ >X[.=.<.' ` ` :. ._ v.2._ ;.v.&.o.v.S u ",
"oXT.F.*X6XOXU.#XZ.Z.6X5XOX6XC.OX5XL.vXC.{.( ^ `.;XoXP.D.@XL.~ @X>X9.9.aXR a.a.aX}.+X4X:X0X}._.h.q.| | e.v.| } }  ._  .]  .t.,.;.",
"8XR.B.OX8XOXqX3XU.Z.-X3X6X5X6X4X8X@XoX, I.~ C 1X`.1XoX{.4X@X4XvX,XO.B R [ K e ,XxXF.}.( `./  X,Xm.0.q.2.4.3. .$.,.3.M.;._ ] I [ ",
"( R.B.5X6X9XU.6X3XU.6X( 5X6X@XF.+X<XoX1X`./ C >X,X`.1X( 7X+XL.:XdXMX[ 1.,.{ ! ,X,X{.{.I.;XJ./ pX(.Z 3.} 3.] i K a ] | ]  .,.&.b.",
"=XI.-X4X6X9XqX3XU.C.3XqX4XV.C.D.:X,X>XJ.{.C C sX>X>XoXT.@X( J.bXNXZ Z q.] K V >Xj.H.w.`.}.J R.,XA.t.@.` v.3.*.0.h.h.m.y $.m.M.'.",
"( R.4X6X8X6XqX3XL.P.9XvXH.d.D.H.K.Y K.6.9.J J H.P.P.T.P.}.P.J.>X,X9.0.0.E H xX}.Y J Y ,X+X@XL.:X].7.T D 4.| { Z R B [ [ [ ] [ F ",
"vXR.3XOX( ~ 0XJ ~ `.,XG.G.G.k.E Y Y Y J.S.J >X,XP./ ~ d.oX#X#X$X:XN C >X{.L.9X9XoX$X+XxX~ J V.vX4X}.k.7 q S i  .S | t i | ] I [ ",
"*X9XvXcXT.B.>XpXpXk.T O.R A A *.L aXaXaX_._./ Q H aXaX,X[.T.F.R.T.K.S.sXC.oX#X$XOXi.C.A._.}.:XoX#X+Xl.'.w ] M.S t u ] | t F ` e ",
"d.H.J.j.G.G.w.L aXZ I #.1.+. .3.3.q.h.+.=.&.P { +.;.` | o.D R A @.O.F V H `.Y.J.V.Y.XXY q.7.^ ~ J +Xj.7 q 3.4 | ] ] | >.] _ | R ",
"G.A.(.E Y G.7.7.aXB D | ] e.x v.x i ] u 4.3.>.,.2.4.,.} :.:.:.#._ ] F P Z |.(.aX>Xj.H.5.7.O.z.,XV.S.z.e t _ > | q t t k a y =.b.",
"6.9.E ^ / S.J 5.pXW =.{ 1.3.e.4.0.o.D D ] ] 2.u ] | ] <.] 0.#.` ] 2. .+.D D #.I 7.5.9.L (.}.g.vX8XJ.z.y ] } -.' r | t i m.m.%.(.",
"^ Y BXBXnXH.cXnX,X[.W 7 b.{ 3.q.m.'.: #.#.2.+.;.0.#.X.X.'.#.O.` t u P Z ` :.@.0.%.7.o.].[.Y.x.:X<XS.k.7 ] r r ` t r i p p K e z.",
" X).dXj.G.H.D.d.G.A.(.7 1 _ 2.` ` 5 t 4 ;.:.:.t w w A T 8 w I 1 8 8 B N 7 dXpX,X].5.O.B Q Y 5.R aXJ e y i t S e m.2.S i x u i t ",
"H.j.;XD.A.A.d.H.5.(.8 < 1 '.t.:.M.5 5 t q.+.q.1 (.b._.G._.z.[..X X_.(.s.A.d.;XdX5.5.w.7.Q *.[ q.aX8 7 t ] 7 S b.k.b.a i r i ` X.",
"g.F.D.J J H.).G.].w.w KXw w @.D D q.X.D V V J 8  XXX}.z.z.l.XX}.).}.s.f.{.wXzXY ^ q.R R *.@.2.| iXq.S u ] x D DXm.q.u u   _ _ w ",
"Z.C.i.C.S.G.G.G.T T ].,X(.gX Xb.O.|._. XK.K.g.S.}.[.}./ 6.g.a.g.V z.H 8 g.+Xf.s.T T %.*.h.] 2.` X.1 i t ] ` i NX|.b.e [   : t q ",
"E.C.C.V.l.d.G.K.^ 5.l.zXbXs.B.s. Xk.G.J.F.L.R.C.oX}.A.9.9.Y Y W x.x.m.a.Y.XXx.! W W E Y o.S : ;.` ` ' 4 -.| I MXk.z.8 * * q i r ",
"K.g.l.l.l.x.G.x.z.).j.f.{.{.B.A.Y V [.).J.L.oXB.C.i.d.s.s./ L O.$.K e Y g.i.s i.W ^ a.h.Z u 4 ` ` l ` z -.i Z O. X5.I S   : k _ ",
"O.#.X.D I o.=.I W W (.6.( ~ H.`.B K n.n._.J.G.S.B.S.A._.n.R *. .y T k.,X).j.E %.k.q.R *.*.1.3.u y ] q k t 4 ` gX_.b.5 _ + z l ' ",
"#.[ [ X.K I T R Y Q }.s.).f.d./ T I o.R k.'.z.z.s.G.z.k.m.F y +.7._.,X~ w.A #.O.T q.@.0.S e P S U K P ] X.w T fX X(.F r   4 r ` ",
"7.7.A V l.K.7XOXQ.Q.D.^ ).P.P.j.|.@.o.X.+.=.P Z D F D I =.o.{ x._.,X9.9.V ! =.8.5.8.7.k.X.R { P [.Y.|. XG V C aXH.gXw p q l t ' ",
"j.NXNXz.l.Y.C.Z.Q.Z.R.A.d.B.d.G.R { &.,.| i $...+.+.#.<.o.U k.XXH V w.W e =.U 8.T s.L h.R X.X.e f.{.f.H.H.].L  X XaXe a q l ` r ",
"w.w.z.(.S.P.T.oXoXoX@X@X+X}.pXC o.x l k :.2.:.4.$.+.o.H |.x.,Xx.k.L w.R Z k.h.q.w.q.q.0.#.1.*.R B.B.;XL.[.s.e x _ u ] i a x ' l ",
"^ ^ *.L (.{.bXvX;XI.oX+X= = w.A *.] -.4.:.:.F t I o.[.aXY 6.a.a.0.0.q.b.y X.7.q.O.T %.I [ =.X.L ).D.B.d.g.! a ;.;...v.P p i k t ",
"J Q ! =.R zX>XvXdXI.Z.C = * q.O.*.y U { a u | _ @.'.=.h.6.H Z h.h.<._ S V / %.0.9.a.0.h.e K { o.k.G.).C B ! R T i y X.fXu t q u ",
"U =.a a y R Q }.;X;X;X= * > m.A o.I =.e U $.b.b.#.F a R I h.{ ] q.q.` ;.N.p.c.>.m.a.=.0.B { } u m.k.T E y h.m.q.h.D G ` y t @.S ",
"$.x b b ] | R ! K e  X= * * m.T  ...{ ! K.G.5.V U e Z y y _ _ q.s.9 $.>.N.u.f y.p.#.0.,.<.<...k P 1.o.S U a P { I D Z F D I o.I ",
"[ u n o i :.] ,.c u iXFX; * '.B  .,.$.iX).S.`.Y U $.$.u k k D Z E 8 a d u.f f f c ,.u u a y k u y |.&.&.>. .i a F X.1.,.7.D 0.w ",
"$.iXz > 4. .x -.c z -.; VX$.W V '.'.{ *.Q ! `.(.m.N.PXCXt.t.{ K w 9 P x j 6 j j d b e.o.=.U D :.*.[ [ ] ] | v.[ X.X.P [ | 3.k q ",
">.p z # ` k r.O . O . z AXc.%.Y E E R R W =.6.6.Q %.M.iX:.:.! K y w ..N.u.O X x 3 >.{ ! Q / @.O.T %.7.[ +.M.k.(.k.O.=.&.,.-.uXb ",
"n n c h l ; 3 ; X   X UXZX>.z.D.B.D.).K.g.l.FXm.A.M M $ w./ s.a.v.$.q s ..* * X.* * ! H l.d.s.j.G.V.d.K.K.x.sX}.H.Y Q =...JXuXv ",
"j n n rX3 ; X -.  X   JXCXGXSXaXNX Xx.z.L.F.DXiXhXm m % N B.l.m.IXZX..7 o.e | _ ! m.N.[.l.d.`.^ Y P.Y.V.E.}.}.nX[.N.N.b x ZXuXy.",
"j j f j v ; yX3 . . HXHXHXHXv v 6 d d DXdXKXDXVXhX& % % @ zXMXSXyXJXVX$.Q o.r ; u.N.VXlXzXQ J O.Y 8 {.}.Y.n.&.o O O n n UXAXHXy.",
"z h 0 j o 0 : o X UXUXGXZXZXo O f 6 6 ;   1 ZXDX` & 5 5 e MX|.2.r c VX=.MX&.>.v j d 0 >.lXlXMXfX|.- NXz.).  lXyXO f g g HXHXAXv ",
"tX#.: p d ; ; ; :.jXjXSXSX,.w 7 * d 6 y.> # DX-.z l h h i 7 h.8   v.DXyXaX7 ; O ; r # * u.p.c.lXyXp.=. X< A + l f f g g f UXZXv ",
", $ %.* > * * e SX# 2 @ $ 2 @ @ = o d b 0.5 uXl > r.h h 0 q MXpXPX,.q P N.m.b 0 > # t # 7 p.U x a VXSXw > iX, r j f f rXj j DXp.",
"x q &.+.= 7 - NX7.G 2 $ % m & $ = : s $.s P e.: N.r r r S w 8 MXLXx $.=.Q Q M...* # r r p.$.$.a p.AXp ; > : = #.r X h j h h jX} ",
"; p SX+.* 9 zX[.@.5 5 & m m $ # *.o.- =.w P ] iX:.+.w i Z w 8 fXIXiXa =.=.L p.u i S >.r.4.! a.MXPXPXVXVXUX# : D q > 3 r.3 r M.kX",
"> q @ #.q.5.O.O.2. .e.1 2 2 5 l *.=.< =.- 7 K $.v.&.+.o.&.U 9 MXAXAXZXZXSXe +.1 2.:.2.+ K *.MXMXLXAXZXVXIXJX- ].e d p q 5 = iXc.",
"1 1 @ D T O.5.R &.>. .t G 2 ;.c ..=.8 e : DXiX7 { o.{ y w = H MXPXUXZXCXy ] *.@.@ + + #.- V 8.NXLXVXGXAXCX:  X, ! s : @., 2 DXv.",
"- , - < < wX>X8 =.=.[ X.w.$ <.$.$.,.{ p : SXDXSX7 a o.* R 8 8 pXSXPXDXU T F ^ L + @ T A A V T F LXZXVXVXKXw dX,  XA G # $ M q.7.",
"- n.< < 9 wX8X1XQ ! @ A.& % pXq o.@.{ h.q DXSX,.q MXT MXMXH 9 BXMXNXzXNXdXV pX8 hXaXpXdXnXV ].|.LXPXZXZXMX8 cX8X`., 5 5 G G ]. X",
"8 g.< , = bX1XsXpX9 dX, & % w.W 7.w zXBX7 =.0.] |.y I I D X.8 V C J nXxX>XC 9XJ 7X7X0XF.H.C _.zXPXZXVXKXkX8 {.2 $ N G 1 2 A.`.dX",
"9 N nX< < 7XsXnX9 R nXdXgXNX5.fXF R NXDXL MXfXjXMXMXe SXSXfX8 |.).nXwXxXnXN 0X4XcX:XT.Y.).N {.m.LXAXZXLXlXw fXnXdXhXM jX1 k.`.L.",
"pXJ dX< 9 0XwXnXW 7.fXNXgXgXD <.[ ,.P u ..;._ -.;.| _ ` #.` F fXzXzXnXzXNXN pXsXdX7.9.5.8.> <.iXLXAXVXPXX l -.} o.*.7.T T b.A T ",
"zXL nX< zX.XbXQ w #.#.Z T T q.&.4.q p.1.3.4.e.kXM.SX} e.' 2.q ;.U 1.=.6.*.%.G.dXnXdXsX_.8.0.+.x PXVXAXKXl l -.e.M.p.0.'.iXiXiXtX",
"MXP '.F o.U K R 8 @.fXMXNXzX|.NXMXaXMXfXSXv.k -.2.} t } -.' } k U s U ! U H / S.P.F.L.B.J.{.pXn.PXAXZXCX,.0.q.gX0.q.0.t e.r -.c ",
"K U 1 D 0.1.1.zXW O.J H H W O.D k./ H J 7.*.0.t.*.e - <.2.t.q.'.m.MXx.x.x.[.xXY.R.R.Z.I.U.Z.L.pXLXZXVXVXfXsXxXH 8 0.e @.q.t.t.r.",
"#X4X>X`.P.T.{.K.,X9 9.a./ Q 6.s.7X8XV.V.G.A.H.j.xXB.H.J.G._.A.sXnX1XdXnXwX0X4X7X*X5X=X=X*X3X6X0Xl.zXI P 9.J H K.l.x.}.{.(.).P.}.",
"$X*X:X<X4X#X#X4X>XxX7X>XxXK.J.7XT.4X<X4X1X1XdXP.<X<X=X<X1X1X1XdX1XdXdX1X0X0XV.<XZ.B.=X1XZ.3XC.4X4X7XzX_.sXdXcXwXwX0X3X3X0X0X=X=X",
"Z.5X4X4X<X<X4X8X<X9X3X3X3X6X9X4X4X3X3Xi.B.D.V.7Xi.V.g.f.1XvXB.V.H.A.sXB.f.i.A.cXC.B.2X`.<XT.~ R.g.S.H.V.1XdXsXA.H.B.eXeXg.4X6X=X",
"3XE.Y.T.L.R.5X*X4X#X6X3X3X-X5X4X5X3X5X#X<X:X>X0X4XE.E.R.Y.wXg.d.BXY J Y g.B.D.A.D.B.2XI.R.L.E.Y.Y.V.l.B.C.D.A.H.C.B.Z.eXV.D.<XC."
};
