/* XPM */
static char *a66ec4bda8c2487fe3d7b99f875efb48ECubJE7pTE3IlDB9[] = {
/* columns rows colors chars-per-pixel */
"64 64 207 2 ",
"   c #141B19",
".  c #0F221D",
"X  c #0D281F",
"o  c #14251D",
"O  c #1B251E",
"+  c #14291F",
"@  c #1C281E",
"#  c #0D2622",
"$  c #0D2B23",
"%  c #142522",
"&  c #1B2623",
"*  c #152B25",
"=  c #1C2B25",
"-  c #142D2A",
";  c #1C2D2A",
":  c #0D322B",
">  c #113124",
",  c #1B3225",
"<  c #14332D",
"1  c #1C332C",
"2  c #173A2E",
"3  c #1B3A2D",
"4  c #0D3532",
"5  c #163532",
"6  c #1C3632",
"7  c #153A33",
"8  c #1C3A34",
"9  c #173F39",
"0  c #1C3D39",
"q  c #232423",
"w  c #212B26",
"e  c #232728",
"r  c #232D2A",
"t  c #292D2C",
"y  c #23332D",
"u  c #2A332E",
"i  c #233A2D",
"p  c #2B392F",
"a  c #223227",
"s  c #32342F",
"d  c #2A2E31",
"f  c #243532",
"g  c #2B3532",
"h  c #243B34",
"j  c #2B3B35",
"k  c #243638",
"l  c #233D39",
"z  c #2C3D3A",
"x  c #313533",
"c  c #333B35",
"v  c #383D37",
"b  c #323D3A",
"n  c #3C3E3C",
"m  c #393333",
"M  c #1E402F",
"N  c #124036",
"B  c #1E4235",
"V  c #1D423B",
"C  c #17423B",
"Z  c #244135",
"A  c #2B4336",
"S  c #24433C",
"D  c #2B433B",
"F  c #24493C",
"G  c #2D4B3D",
"H  c #304137",
"J  c #33433D",
"K  c #3A443E",
"L  c #334A3E",
"P  c #394A3F",
"I  c #40453F",
"U  c #1D4641",
"Y  c #1C4B45",
"T  c #1A534C",
"R  c #254541",
"E  c #2B4542",
"W  c #244A44",
"Q  c #2C4B44",
"!  c #254F4C",
"~  c #2D4C4A",
"^  c #334542",
"/  c #3A4541",
"(  c #344B43",
")  c #3A4C44",
"_  c #344D49",
"`  c #3B4E4A",
"'  c #275145",
"]  c #2C5244",
"[  c #24524B",
"{  c #2C544C",
"}  c #2C594E",
"|  c #345345",
" . c #3A5345",
".. c #305A46",
"X. c #34544C",
"o. c #3B544B",
"O. c #345A4C",
"+. c #3B5A4C",
"@. c #2F4E50",
"#. c #3A4F50",
"$. c #265452",
"%. c #2C5652",
"&. c #275950",
"*. c #2D5A54",
"=. c #2E5D59",
"-. c #345652",
";. c #3B5552",
":. c #345B54",
">. c #3C5B54",
",. c #395759",
"<. c #355D5A",
"1. c #3C5D5A",
"2. c #37624F",
"3. c #3A604E",
"4. c #2E6155",
"5. c #2F615B",
"6. c #27635B",
"7. c #346155",
"8. c #3D6354",
"9. c #3D6855",
"0. c #35635C",
"q. c #3C635C",
"w. c #30685F",
"e. c #3C695D",
"r. c #2C6562",
"t. c #2D6B63",
"y. c #346561",
"u. c #3C6562",
"i. c #346B64",
"p. c #3C6B64",
"a. c #3D6E69",
"s. c #377061",
"d. c #3D7266",
"f. c #34756A",
"g. c #3D736C",
"h. c #37796F",
"j. c #3D7D74",
"k. c #414E45",
"l. c #424E4A",
"z. c #484E4E",
"x. c #42544C",
"c. c #425B4D",
"v. c #49594F",
"b. c #415347",
"n. c #415552",
"m. c #4A5550",
"M. c #435C54",
"N. c #4A5B54",
"B. c #445D5A",
"V. c #4A5E59",
"C. c #505F5C",
"Z. c #436355",
"A. c #4A6255",
"S. c #426957",
"D. c #4B6856",
"F. c #43635B",
"G. c #4B645C",
"H. c #436A5C",
"J. c #4A6B5D",
"K. c #52635E",
"L. c #5A675D",
"P. c #526A5D",
"I. c #446561",
"U. c #4B6662",
"Y. c #436B64",
"T. c #4B6B64",
"R. c #41676A",
"E. c #436D69",
"W. c #4C6E69",
"Q. c #526661",
"!. c #536B64",
"~. c #596E65",
"^. c #536D6A",
"/. c #5B6E6B",
"(. c #5B6763",
"). c #447165",
"_. c #4C7264",
"`. c #44736B",
"'. c #4B736A",
"]. c #4B786A",
"[. c #53736C",
"{. c #5B756C",
"}. c #5D7B6D",
"|. c #547A68",
" X c #4B7B75",
".X c #447973",
"XX c #557572",
"oX c #537B73",
"OX c #5B7A73",
"+X c #517E79",
"@X c #5C7B77",
"#X c #63746C",
"$X c #637B6E",
"%X c #667D75",
"&X c #627C7B",
"*X c #47847D",
"=X c #54827C",
"-X c #5C827C",
";X c #62827C",
":X c #67857B",
">X c #628581",
",X c #7F8E89",
"<X c #748A85",
"1X c #699387",
"2X c #719088",
"3X c #7B938B",
"4X c #87968F",
/* pixels */
"x g z 6 1 1 f ; r r y ; g r S F.l l X.8.F.9.H.Z.S.H.e.s.d.d..XE.@X< <.Y.=.=.u.=.=.i.y.=.$.y.a.@.; k d k h 3 f 6 1 j f y f r k j ",
"b Q.B.o.o.;.o.S g f l z b x Q q.1.E 8 ~ H.J.J.J.S.J._.e.`.d.y.E.W.< I.:.a.0.$.<.%.*.p.=.y.i.,.@.6 n.n.B.M.n.;.M.Z.n.n.V.n.D D B.",
"Q.l S Y.e.Y.W.>.; E B.F.f = ! E.W.X.S 1 D D.Z.Z.S.H.S.H.I.'.E.V E 6 >.<.<.=.<.%.7.7.7.[ y.1.1.,.7 o.>.1.>.e.O.F.Y.q.F.8.>.8.>.e.",
"U.8 V _.Y.T.W.0 6 X.F.I.- < ' Y.E.W Q X.h S U.J.F.J.T.!.< 7 :.E.8 1 T.<.<.1.,.R.-.-.%.:.%.-.W.l h ;.Z.W.'.e.].e.H.e.F.8.9.p.9.:.",
"B.F.C C '.'.T.S l B.>.>.; 6 R u.p.:.e.W ' 8 2 F._.J.7 2 : W Y.E./.# ~ ~ <.u.1.1.T.-Xq.e.Y.Z.;.Z l h ;X^.T.E.Y.].e.e.Y.p.q.e.q.0.",
"^.l V 7 V Z S < ; B.>.>.; r S e. Xy.y.4.} V B 7 2 $ F ] e.e.q.W.^ k k 8 U 0 4 ~ S Q B Z F Q 1 , - 8 2X@XY.9.e.'.F.e.:.:.0.e.).).",
"8 R I.X.8.Q - l ; B.;.;.e f E 0.+X5.w.p.e.e.8 S ~ [.] 7.8.*.'.l 6 ; U.-.W u.0 < 1.G.F.Z.Z.N.i > h - E l { -XoX[.W.T.>.F.T.q.Y.e.",
"8 F.X.-.1.{ X.# ; B.1.;.% ; Q <.0.g.w.i.0.p.5 8 6 !.>.>.-.T.l 8 z ; ^.W :.<.U.5 Z.c.S.D.| +.c., ; XXF.H.< : 9 9 S [.W.Z.Y.T.q.8 ",
"F.1.8.*.q.:._ 6 6 ;.8.-.1 1 E 0.0.y.0.u.F.T.R 5 - 6 f Q.j 1 h _ y ; _ u.:.q.Y.8 Z >.A.D.P L D., 8 T.I.8.O.-.oX: : C R ^.T.XXB.S ",
"1.O.-.-.>.>.;._ 6 ;.H.-.k ; l e.q.0.1.l 0 l R B.B.G.K.y y z X.D g k I.8.0.:.Y.0 Z  . .+.b.D.S.+ h Y.F.>.8.} :.8.R Z # - 8 6 l _ ",
"o.F.W.M.M.B.n.E ; N.~ o.; j 8 1.I.:.>X8 < 1.E 8 8 1 n.o.h ( D D f n.1.%.&.0.e.Q M c.+. .P 3.c., % ;XF.T.I.Y.1.G.B.M.B.l.; ; N./.",
"j h h z h f z z f ( E X.g & % S 8.9 7 5 1.W.B.1.XXF.T.E < * X _ f * 1.q.0.[ p.R Z c.c.D.Z.c.P.@ = X * y Q 6 1 X.N.^ ) <Xr b x b ",
"b x z ^ b z g g d V.F.J e g ` 6 2 7 O.*.N } -.:.:.W e.H.9.Y._.}.k 1 ,.u.%.&.Y.F.2  .A.c.A.D.P., a r z y o h f y f g b c e r b x ",
"g ^ b f r / / d & ) M.;.r r ` _ 8 F.} e.*.} :.:.1.0.e.e.H.S.+.!.; k XX<.i.E.*.;Xl i c.c.c.b.A.+ a j m.^ n.( m.h #X(.b c x x f / ",
"j ^ ) ) J J f & % ^ H.+.` y ;.Q D Z X.X.X.7.} *.*.8.1XH._.8.J.>.f ^ 5 R.0.[ E.[.h J j j #Xc.x.+ x.j J D ( c.h z f D h ; 1 j J z ",
"= j h f * j j 1 1 D 7 2 y y +.+.>.D X.h o.1.-.u.9.e.XXD h h S M.g f _ 0 I.<.I.l k i = 1 i H 4Xw K j z o.h 0 F ^.H.+.h f D ^ b i ",
"1 D E z D E L D * D O.;.}.< 3XG ;.Q X.1 6 ( l h D D h ^ ; f E ( a y r j D Q.Q.k z l.h ` u g b r t / V.^ S W.:.:.).} z f J b./ I ",
"b E D D ^ D D z , = h * % i % 3X| o.>.( o.* l z z y f ; k % f y j r r u f f g f f f D f w t t r / r z z I.8.:.i.e.:.k f y g u m ",
"e r & w w w r u u a u w a u a r , h 1 ( 1 f f j f ) c.+.) +.( h  .h a & & ; & b g z h f l.k.b w V.y ; E B.X.q.%.0.8.; d f a t u ",
"c d t g g c j j u K u k.b./ / m. .6 M.J c.D  .h D.c.| L >.J.+.H.A.L j = = = u z g b ^ ^ b / g y a +.M.XX6 E X.e.e.q.g g J A H H ",
"K y a p r u j b.b.v.v.v.@ L.v.A.i A N.c.c.L L 1 3.P S.3.S.G G 3.+. .j N.= y a J J J f ` = 1 b 1 | 8.Z.G ( 1 S >.X.;.x g ^ A L o.",
"v.g g x.) ) L A.c.c.c.A.D. .b., A p L c.m.A , c.c.Z.P 2.S.9.2.S.| +.Z P.& u r ^ z ^ / ; i K.J + +.+.8.| +.D 1 h S l g t b._ o.o.",
"c., a N.D.D.G Z J.J.D.D.c., M A c.c.c.H A c.A A P 3.P S.9.9.9.=Xc.+.| Z & & g a y g r b V.) i 1 9...S.+.+.o.;.G Q G t x c. .Z.+.",
" .i i )  .P.D.J.|.+.c.A.i A A +.b.A i b. . .L , A c.S...S.S.H.3.+.3.| A q g g b g u t C.N.( ) = ....3.L +.| M.| 8.n.t u h i o. .",
"A a p u H p h h 3 Z , = K b.b.b. .G A L P  .c.A , P. .3.Z...D.3.+.Z.Z.D.a u x K / a q g k.) H p 3.L G ..+.| Z.Z.>.3.c r j 1 A h ",
"a p v s v u L L L A K P H P P v.P  .P P c.( P H L i P.c. .Z.Z.c.+.Z.J.c.r u w r n b / e y N.J a P 3.G L Z.Z.+.....8.p u i  .j A ",
"H I s s n g ( D D D u c u u H Z.P.3 +.P P v.A J a p , c.c.N.c.+.Z.c.A.A a c u t r r r t w u y a 3.P L ..+.Z.3.| O.Z.p w i A.A P ",
"p I H s u g h < > D % = r & 1 i Z A A M i A D i i , , A i i D Z M M A , = g t r q r g J u r x a c.G L  .L | +.O.O.S.H u v.A. .L ",
"P P u K K ^ Z V -.-.B.r ; j G.Z.M A , 1 1 = y & + , * = M.P.D ( G G L ) ( K k.x.& w ) c x g u & P L G | +. .( ....Z.H t ~.G  .L ",
"G G j b g 1 S p.} :.-.E * %X1.8.Z.Z.Z.V.f , ` o.N.c.V.n.D Z.M.Z.+.| A L L ( ) K r y ) J ) u c = G L o.+.L ( ( | | b.a a L.A c.+.",
"..c.L g z E e.q.4.:.T.; ; ;.{ H.1.M.Q.h 6 N.D ` ( ( ` G.n.Q 2XZ.3...c. .;.c.) w o J J A K c k.@ G G c.+.j A  .L L L s K $X+.| +.",
"+.c. .o.U.l I.p.=Xe.X.D 1 V.F.>.+.D 8 o. .o.o.E ^ o.X.D F.+.W 8.Z.Z.$Xc.+.+.b.i = c ( A K K b , ( D _ ` L H A L P i v p {.3.G +.",
"+.>.~ X.T.I.R R.T.F.F.l ; n.F.H.h S %XZ.M.Z.Z.L A L A +.8.O.].' Z.M.Z.Z.+.+.L L @ a L L J J b g f j D L z J c b = j g p %X+.( >.",
"+.+.Q } p.u.0 R l @XF.f r / D 6 h o.M.Z.Z.+. . . .)  .+.O.S.9.e.D A.H.:X+.c.A i @ c , ( y g z r y i f a a r J j p y i 1 P.o.n.+.",
"o.o.>.W :.u.XXl -.S @XD c ; > h X.+.Z.Z.Z.G L  .L L c. .>.H.] Z.j i 1 8 1 i M P u O % 1 1 f k k f w j y g g t u w u r g ( M. .) ",
">.;.X.u.y.+X~ 1.,.-.l h r r _ X.Z +...J.| G ..L  .) P A o.+.M.Z.z k G.n.H 1 N.v.& r ;.Z._ !.T.1 k V.n.) ) j g r g / J o i m.^ ^ ",
"X.>.H.E.=XY :.<.-.-.+.o.i l.K.;.F.+.M.+.O.}.+.Z.G L L ) n.c.G.L k x.1 D 1 V.L.) & z :XE ;.,.1.I.U._ Q ( _ ^ k ( ) ^ ^ ; z M.D  .",
"Q ;.{ =XY =.u.1.<.q.~ o.; K c.Z.M.8.J.8.O.| +.|  .| ) J * y j * y z D $ A {.~.!.g = l X.{ %.u.:.X.-.q.S 5 8 T.;.E ;.>.6 6 {.M.D ",
"_ X.B -.i.=.<.*.Y.{ >.o.j H A.>.Z.o.G >.| 8.O.> 1 3 A L a j z 1 f = +.H.l G.G.!.; * >.*.%.0.y.q.0.:.'.R U { I.-.I.1.>.< ( S ;.X.",
";.X.'.U a.y.y.E.-.7.O.>.% g 1 <XZ.}.i > Z $ ] > Z.| S L  .) ) * ; c.F.F.J.D A.!.; ; ;.' } q.Y [ } 0.} U <.<.:.-.~ OXF.> X.S M.+.",
"l 8 @.E.a.r.=.%.a.[ :.o., ; Z o.` % _  .o.;.Q O.X.| Q o.( P.i y y A.A.| +.v.L L r = o.-.X.{ V W 0 ! 0 <.1.1.-.,.~ R ^.- z k h l ",
"_ 6 W.a.g.y.a.u.7.:.8.8.= y 1 6 1 ; 6 ( D S Z ~ Y.[.F 0 >.# 1 = i x. .| o.a 1 & u w D F Q E >.B.W @.1.@.%.:.-.,.-._ B.5 _ / f ^ ",
"^ l W.u.g.g.y.R.).7.O.F.o ; h * , % % - 6 - > : $ 4 : : 9 3 # ; r @ + = o u r r q e ) h k ; ^ 6 ^.:.:.:.<.<.%.%.-.-.-.- ;.` = ` ",
"^ 6 E T.i.a.E.%.a.`.e.q.; y ;.Z.U.6 1 !.B.U.B.q.F.e.E.u.1.G.G.Q.t q ) j J c w & n   z z ` ^ z k _ <.-.u.=.<.:.%.:.<.-.5 _ E - ` ",
"` ; ;.:.a. X$.i.i.7.8.>.# ; B.X.R ~ $ E B.U.,.u.Y.u.u.Y.,.I.M.%Xq I x ^ g f y ` z.t ;.n.;.` z E I.F.-.<.%.&.0.%.=.:.-.9 ~ R 6 E ",
"z - 8 I.*.=.=.=.d.p.:.Y.f r S E F.~ U.8 R B.-.,.! %.-.8.u.R ;.l t s ) j r f _ ^ / g X.;.;.V.o.6 '.:.:.} <.=.=.=.<.=.,.9 ~ Q D l ",
"d k 6 T.<.y.=.p.p.0.q.I.; ; _ >.U.u.@.1.~ W ~ ,.<.-.u.1.X.1.^ k t e k 6 * ` >.E #.0 -.<.:.{ X.X.< E U.-.-.-.<.<.<.:.,.8 E ^ E f ",
"b & 6 -.<.=.y.u.E.i.7.6 - E !.1.*.q.1.u.-.U.0 R ~ :.:.R X.S E x.d n ; 6 _ ~ -._ ;.< q.<.q.u.-.-._ ( 6 S @.,.,.@.1.1.,.k z E ^ z ",
"/ & / - I.<.u.5.a.u.q.XX& J F.>.q.<.%.B.I.U.B.E R 0 6 k ( 6 ^ m.u b ( < o.>.-.#.X.0 u.[ u.y.%.<.-.1.o.6 6 S 8 0 R ;.B.e ^ ^ ^ ~ ",
") r / E < -.R.5.0.<.W.M.* h !.1.%.u.<.-.@.E #.^ k - ;.^ , ) / m.q b h 1 X.>.-.B.;.8 %.=.! y.y.,.8.~ B._ E 6 X.R 5 E & k b #.E ~ ",
"H = ` n.# 5 %.E.p.F.0 Q 8 < Q q.u.u.:.-.,.~ E 6 Z X.D S o.^ b.u t n j D 8 ;.;.n.;.- I.1.! <.1.u.} >.1.Z.>.S Z >.Q ;.z d r ` ^ l ",
"D h z k B.E > 0 0 7 1 l < B.W U E.*.<.1.I.~ ~ #.-.X.;.-.o.^ x.& t x r b & o.n.^ _ 5 U.,.1.u.,.,.1.B._ 6 D l S 7 o.( f r b = ^ ^ ",
"D 1 f g - e 1 f k D d r ; B.1.<.9 C e.V 9 X.X.F O.~ Z.>.G ) ^ t q m s d ; g z g r r E ~ E #._ E z J D H ^ J D 1 D ; y q r z f D ",
"Z Z z J ^ b y y y   ^ r - #.R.R.W.: 0 0 W O.-.8.] >.~ ] +. .^ ; t q t r f f ; - f k 5 6 5 R #.- 6 = y a f , 1 D z h ; y f f 6 h ",
"8.q.G._ #.V.B.l h g / 4X6 #.#.,.[.S Q +.1.Z.O.>.8.] F.X.` ( ` r q r V. .Q Z _ ;.R -.u.@.9 V -.1.1 S ( ;.D OXZ.>.o.1.B.0 D M.Z.-.",
"y.&.:.q.,.I.G.Z.3 }.#Xk ; - ~ W.F.B.Z.F.Z.F.Z.X.X.| +.( ( ( r r & y c.6 X.} R U U.<.:.<.*.+X9 XX5 q.Y.>.e.1.5 q.F.>.Z Q -.1.1.e.",
"t.y.a.u.i.e._.9.3.G D.i a J 1 Z.1 ` G.G.A.B.M.O.+.Z.M._ n.f ; z q c z l _ Q 0 T.,.-.{ <.u.u.W.0 6 H.W :.>.q.q.@Xq.- - ,.B.I.B.W.",
"g.=.<.y.0.e...s.9.M b.P a a % ; k ; ; 8 h 7 Z Z h i h y ; y y & & J _ >.{ : T.q.! @.:.%.u.:.-.8 E I.R <.W :.1.:.$ 6 -.u.1.u.W.R.",
"y.a.p.u.q.0.[ 4.9.3.P L.w x b f y f y 6 , 2 8 > 3 1 h h k h A h r ; Z.>.7 C u.u.<.$.y.y.:.e.1.0 8 U.U.T.1.E.R.4 Y *.g.g.f.h.a.g.",
"y.u.%.{ } 7.e.e.9.Z.i i a x r j k B.!.B.;.8.Z.+.M.Z.+.6 M.M.U.G.; k >.1.U %.Y ! ,.y.%.=.5.a.:.E k z 8 W.I.u.U 5 =.E..Xt.f.j.h.t.",
"y.=.a.:.*.0.4.9.7.G 1 x.a ; x.o.- U.U.-.O.8.8.J.Z.D.U.J.[.8 7 T.r f E R U u.! u.<.u.y.y.a.<.I._ k d k 6 E 0 1 1.XXp.a.i.f.i.f.j.",
"i.8.).:.:.q.H.e.F S o.n.r j ` XX9 T.W.-.8.H.e.9.H.J.F.8.H.H.e.'.6 6 E <.p.0.p.0.y.a.=.=X$.E.U.E k n ^ E 0 V 6 @XXX>X>Xa.g.g.a.p.",
"_._.F.F.T.Z.>.S o.( l.d d r ;.E 8 I.].e.`.`.H.2.S.H.F.).e.).).).U.5 W.u.a.i.y.y.t.i.t.t.y.y.u.~ 8 >.W.:.H.'.I.B.5 R 1.W.R.U.T.XX",
"B M Z i f l h B.V.b.b e r f k 1 0 { p.`.).e.s.H.H.S.e.S.p.e.s.a.W.- 0.5.i.r.i.r.r.r.t.>XT i.y.! 8 Q e.`.d.0.:._ l k 5 0 U ~ E l "
};
