/* XPM */
static char *_f73d407077e4877d16d90ddb8353f58hu1lHjz3jlixEJ2w[] = {
/* columns rows colors chars-per-pixel */
"64 64 256 2 ",
"   c #07065B",
".  c #02046D",
"X  c #03096E",
"o  c #050766",
"O  c #02146E",
"+  c #050672",
"@  c #080672",
"#  c #040972",
"$  c #0A0B75",
"%  c #080E79",
"&  c #031474",
"*  c #041D7A",
"=  c #081B79",
"-  c #121574",
";  c #04237B",
":  c #032D7C",
">  c #0A2D7C",
",  c #082678",
"<  c #132B7C",
"1  c #02327D",
"2  c #013A7D",
"3  c #07337A",
"4  c #2D357E",
"5  c #322E7E",
"6  c #4A297C",
"7  c #611C75",
"8  c #01437D",
"9  c #00487F",
"0  c #005A7D",
"q  c #0B7979",
"w  c #0E8A79",
"e  c #0B1D81",
"r  c #042E82",
"t  c #0A2D82",
"y  c #0A2481",
"u  c #122A82",
"i  c #033382",
"p  c #0A3283",
"a  c #033C83",
"s  c #083B88",
"d  c #113384",
"f  c #2C3484",
"g  c #2C3589",
"h  c #32338C",
"j  c #383588",
"k  c #383798",
"l  c #323191",
"z  c #3838A7",
"x  c #2D38A2",
"c  c #492B87",
"v  c #453588",
"b  c #453796",
"n  c #552D88",
"m  c #693991",
"M  c #433CB1",
"N  c #024384",
"B  c #024C86",
"V  c #044C8A",
"C  c #0A4C8C",
"Z  c #084489",
"A  c #015385",
"S  c #03538A",
"D  c #0A528D",
"F  c #025C8C",
"G  c #055B8A",
"H  c #0B5491",
"J  c #055D91",
"K  c #0B5C93",
"L  c #055694",
"P  c #135996",
"I  c #0B4B90",
"U  c #334296",
"Y  c #006385",
"T  c #02638D",
"R  c #026B8D",
"E  c #046A86",
"W  c #02748D",
"Q  c #027A8C",
"!  c #057887",
"~  c #046392",
"^  c #0A6394",
"/  c #036C92",
"(  c #0B6A97",
")  c #057493",
"_  c #0A7494",
"`  c #047B92",
"'  c #0A7A95",
"]  c #08769B",
"[  c #137595",
"{  c #2A4BA7",
"}  c #3455AB",
"|  c #395AB8",
" . c #324DB1",
".. c #0F78A3",
"X. c #3961B8",
"o. c #5A4998",
"O. c #454699",
"+. c #624797",
"@. c #544BA4",
"#. c #4749BA",
"$. c #554BB6",
"%. c #514EAE",
"&. c #6B4BAA",
"*. c #5E66B5",
"=. c #3A5DC2",
"-. c #3D65C6",
";. c #3D67D5",
":. c #4B4AC8",
">. c #534DC9",
",. c #5754C7",
"<. c #5656D4",
"1. c #4C50CD",
"2. c #6A5ED0",
"3. c #4465CC",
"4. c #4667C8",
"5. c #476CD4",
"6. c #4C76DA",
"7. c #547BDB",
"8. c #5778D8",
"9. c #586DCE",
"0. c #6579CC",
"q. c #6466D6",
"w. c #6973D4",
"e. c #5A66E4",
"r. c #4D79E5",
"t. c #5779E6",
"y. c #5A7AF1",
"u. c #656CE8",
"i. c #6778E7",
"p. c #7376EB",
"a. c #8C569D",
"s. c #8759A5",
"d. c #945AAA",
"f. c #936CB3",
"g. c #A86BB4",
"h. c #A973BA",
"j. c #B775B9",
"k. c #B569B0",
"l. c #C771B8",
"z. c #AE72C4",
"x. c #8C72C2",
"c. c #E57BD5",
"v. c #03858C",
"b. c #03898D",
"n. c #09868B",
"m. c #038492",
"M. c #0A8394",
"N. c #028A94",
"B. c #0C839C",
"V. c #028C9A",
"C. c #068599",
"Z. c #04919D",
"A. c #179192",
"S. c #239592",
"D. c #39AD94",
"F. c #0B88A7",
"G. c #178EA9",
"H. c #0897A5",
"J. c #1492AB",
"K. c #1895A9",
"L. c #0D8DB6",
"P. c #1596B7",
"I. c #0E91B4",
"U. c #11A5B6",
"Y. c #31AEAC",
"T. c #2292AA",
"R. c #45B192",
"E. c #50B6A6",
"W. c #57C599",
"Q. c #57C990",
"!. c #59C9A8",
"~. c #56CAB3",
"^. c #6FD6AD",
"/. c #60C798",
"(. c #1A99C3",
"). c #1FA2CD",
"_. c #24A5C8",
"`. c #29AAD4",
"'. c #2EAED2",
"]. c #299DC6",
"[. c #5981DC",
"{. c #6A8AD9",
"}. c #758ADA",
"|. c #7194D9",
" X c #4B85E9",
".X c #5884E7",
"XX c #5787F3",
"oX c #5998F9",
"OX c #688BE7",
"+X c #6C93E3",
"@X c #6A94EB",
"#X c #7597E8",
"$X c #6B94F2",
"%X c #6796F7",
"&X c #7497F6",
"*X c #708CED",
"=X c #7CA7F9",
"-X c #5FA3FF",
";X c #70D9C4",
":X c #7DEBC4",
">X c #8D92D9",
",X c #94A2DE",
"<X c #859BE6",
"1X c #8F95F2",
"2X c #8BA3EB",
"3X c #87A7EB",
"4X c #94A6EA",
"5X c #84A5F4",
"6X c #8BABF4",
"7X c #84A5FD",
"8X c #84ABFD",
"9X c #8AABFD",
"0X c #89A6F9",
"qX c #95A8F8",
"wX c #89B2FC",
"eX c #9CBCFE",
"rX c #99B6FC",
"tX c #82B0EE",
"yX c #A6A9E7",
"uX c #B4B3EB",
"iX c #A4BBFF",
"pX c #ABBCFE",
"aX c #A9B6F9",
"sX c #B2B6F4",
"dX c #B3B5FB",
"fX c #B4BBFE",
"gX c #BABBF8",
"hX c #ADAEF2",
"jX c #B398DC",
"kX c #D58CD8",
"lX c #E986D9",
"zX c #F683D5",
"xX c #D192E8",
"cX c #E98EE8",
"vX c #C5BCF9",
"bX c #CBB9F3",
"nX c #9AC3FF",
"mX c #8EC1FF",
"MX c #ABC2FF",
"NX c #A7C7FF",
"BX c #B4C4FF",
"VX c #BDC4FE",
"CX c #BDCBFF",
"ZX c #BAC6F9",
"AX c #B7D5FF",
"SX c #87E8C5",
"DX c #C4C3FE",
"FX c #CAC2FD",
"GX c #C7C9FC",
"HX c #D5C6FE",
"JX c #D6D3FF",
"KX c #C2D3FF",
"LX c #EBCDFF",
"PX c #F5ECFF",
"IX c #D5E9FF",
"UX c #82DFB2",
/* pixels */
"@ + X + # X # X + # . $ + + + $ $ + . @ X X . # + # + + # # % X + # . X ; ; ; : r i s s a H 8 9 N a N N N N D V V F F ~ ` M.v.n.",
"@ + @ + # # # # # # $.. + % . + + + $ X & # = + % # + + # # # X # % & = * ; r 1 r s Z I I K S S C V Z a N 8 V S A L F R ` m.v.v.",
"@ + + X X # # X X @ $ $ @ . + # # X = X * * e & X X + + % # & X X = * * > 1 1 2 a a N V K K ^ B V V B B S B S D ~ ~ ~ ) ' M.b.n.",
"@ @ + + # # # @ @ $ o @ + . % # X X # ; * , y y X # & . - = y & ; ; ; s Z I C a a B V L L K J F S V V B H V K K K ~ T / Q b.b.n.",
"@ X @ X # # + # @ @ - . # X # X X X O , ; t ; t ; * & O ; = u ; , ; , N C D D A 8 A J ( F ~ T ~ J J A A J A G ~ F T R W ` n.m.v.",
"+ @ # # X # X + @ + . @ $ # # X X & ; , 1 p p : p ; ; ; d ; t 1 1 N 8 C P K G ^ 0 G T ( ~ ] Y ~ ~ F F ^ ^ F ^ T / / _ M.m.M.N.v.",
"X @ # + # X @ # @ + - . . . # & & ; t p s Z s 1 : : : p s p s p 8 B S K ^ E [ E Y R Y ( _ ] ) T ~ F T [ ( T _ / / R ] M.Q v.b.v.",
"@ + X + # # # @ @ @ . % X X X = ; ; ; d s I N 2 2 a 2 1 a Z C B N G G T [ [ _ _ Y _ ) ' ' / ] ) ] Y T / R Y _ _ ] W ` m.! Q N.b.",
"@ X # + + + + + . @ X X . X = = y ; i 1 2 H B B V V V V B S A A T T E T ( B.T.' ' W ' ) ' W ] ) ] _ ) ` ] _ ` ' E Q m.M.m.m.m.N.",
"X @ X # + + @ + @ @ X # X O = ; ; r i s D D A H F K K F K J F T T R _ / F.G.K.] ` Q Q W ] Q ` ) ` W ` ] ` W ` ` Q v.m.m.N.N.N.N.",
"X @ # @ + # + $ @ $ X X X X y , d i a V B A ( ( T ~ ( T ] ( T R R R _ ' G.G.K.C.Q M.Q W W ] W ) Q W ` ' Q Q n.` v.v.m.m.N.N.N.N.",
"X X # + # + + + . @ + X o X * t : s N S ^ T E _ / ) ] ) ' ] W ' ` ) ` F.J.J.J.V.` B.C.W ` Q ` ` Q W ` C.Q Q M.M.v.v.m.b.N.N.C.V.",
"@ X @ X + + + % . # X # O O : r a a D ^ T _ ' W ' Q Q Q ! v.Q m.` B.B.J.J.P.I.F.` F.G.W ` Q ` ` Q ! n.` Q Q C.N.v.b.b.b.N.b.V.H.",
"X @ @ X + # + + # X X & & ; t i N D K A E W ! M.v.! Q n.n.b.! v.' K.J.J.P._.P.F.` H.K.` M.W ` Q Q Q m.C.` Q N.N.b.b.b.b.N.V.F.H.",
"@ o X @ # + + # # # X & ; ; d i N D ^ [ W W C.N.A.n.n.n.Y.b.b.S.M.K.P.J._._._.F.F.J.J.C.Q Q Q W ! Q M.M.m.v.N.b.b.b.b.b.N.V.H.H.",
"@ X @ X + # # # + % % * * ; p i 8 K T ) Q ! A.Y.E.A.n.w Y.w w Y.S.J.K.I.'._.(.I.P.P.J.C.Q Q ` Q Q Q M.M.M.M.N.N.b.b.N.N.N.V.H.U.",
"@ o $ @ X @ X # # % e e r r 1 2 D S _ ) ! S.E.E.R.E.w D.D.Y.w !.Y.K.P.`.`.`.(.(.`.I.J.K.b.! ` Q ! M.n.M.N.N.N.Z.N.V.m.V.V.H.I.U.",
"@ @ o @ @ X # # # % e e r i 3 8 8 K / W w S.R.E./.w D.R.!.^.w ~.Y.K.P.`.`.).`.I.).L.P.K.b.! ` ` Q M.m.m.N.N.Z.K.V.N.V.V.C.H.U.U.",
"X @ X X X @ X + # . y y ; p C N V J Y n.A.~.R.!.Q.Q.w R.Q.!.D.~.E.U._.'.).).'.L.(.(.P.K.M.! ` ` ! N.N.N.Z.b.H.H.H.V.V.Z.H.H.U.U.",
"$ X X X X X X X # e y ; s a 8 D V B ` n.A.D.!./.UXQ.Q./.Q.W.!.~.Y.U._.).).`._.I.).).'.J.M.! ) ) Q b.N.V.b.b.H.Z.H.N.Z.Z.H.H.H.V.",
"$ # X X X X X X X , = : s 2 8 H ( ~ ` q A.~.W.UX^.Q./.^.W.^.!.;XY.U.'.'.`.`.I.I.`.`.)...' ! _ ] m.m.m.m.N.V.H.Z.Z.N.H.Z.V.N.V.N.",
"+ # # # X X o X X o * d 1 N H S L ) Q w w !.^.^.^././.!.~.~.D.;XK.Y._.`.(.I.H.I.L...F.) ' W / / ` C.N.N.V.Z.H.Z.H.N.B.N.N.N.m.N.",
"# # + # X @ @ X X , ; > a Z V F T W v.A.D.SXUXUX^.;XD.q n.D.Y.S.S._.'.(.L.] ] ..] ] ] / R E F T ) B.B.B.B.B.C.` M.` W Q Q C.` Q ",
"# # # # @ $ o X o = , 3 a D K ~ ~ 0 n.S.R.!.SXUX^.S.! ! ' ! S.n.` F._...] ] R / ] T T T Y T T ~ T _ ) R ] ` ` ` ` ` ) ' ` B.Q ` ",
"# % + + + % + + + X ; 2 N V S J T [ n.S.D.^.E.q q ! R E ) R E E _ ] ] ( ~ T T T T ~ T Y A T J ~ T T T T G R ) / Y _ R Y ' [ W W ",
"# # + % + + + + # X > 1 Z V S ~ F _ B.S.D.S.[ 0 _ _ / T ~ T T R T ~ ~ ~ ~ F T F F ~ F F A T J J K K F ~ T T ~ Y T R Y T W _ ) W ",
"X o # + + + # # # * t i I H J ~ ~ ] T.T.[ 0 [ ^ ~ T T ~ ~ F J J G J F J A A A A A A A A A ^ F L A H J ~ ~ F J ~ T Y T ] ) ] ] ] ",
"  o @ . + e # # X ; ; a N D A G F [ E A F ( K A T A A F S L K H A D A A A G K A A F A H G J A A A G S F ~ T ~ ( ( T / ( / T / R ",
"o     - o @ + # # r : a 2 A A ^ T _ ~ S L K V K ^ A A A B S L A B S A B B D K S K P K K G H A B A K J J ~ ^ ( ( ..( ~ T F F T T ",
"PX  - o X . % # # ; > Z Z A ^ ....B G B V L C S A 0 A G S H H V A D S D B S H V P K H H S D G G A ^ K J ~ ( ( ( J ^ J F ~ ~ ~ ~ ",
"PX>X  o . $ # % O y r N B S ^ ^ H 9 9 8 I V B K A A A K D D H L V S B S V V D D V V B B N S A S G D G G A F ^ J G D G K G G A B ",
"JXVXO   - = X & * p : Z 8 K D B N 2 8 D V D P H K ~ ~ K 8 2 N I H I B C B 8 N N N N a B B D V C D S A V 9 8 V S K A B D B B D S ",
"uXKXO u ; * , > ; : s s Z Z V 1 i s Z N H P P P P L S B 2 1 a Z a s a 2 2 a s a a N V C Z 2 a i s s N a 8 N N N Z Z B B Z Z N a ",
"GXVX< t r t d , : p s I C a a 2 i s V V a s s Z V B a a 1 : 1 i i a i 2 1 p a p i 2 2 2 2 3 i i i i i i 3 1 2 i i a 2 2 2 2 1 3 ",
"VX4X, t t i : 2 i a i I p 2 3 a s N S V a 1 8 2 a i 1 > 3 1 i i i i 1 : r r p r i i 1 1 1 r i r r t : 3 3 > > : i i r 1 3 1 3 1 ",
"DX4Xu r s : 3 1 a a a Z 1 3 d Z Z a a 2 3 1 2 1 i 1 > > > p i i i i i i r i i 1 i i r i i t p : p r p > 3 > > > r p : i 1 1 1 1 ",
",X,XwX1 1 i 1 3 r i a i 1 3 a 2 a i > : > > 2 p 1 1 r i t t r r 1 1 i r i r : 1 3 3 1 r r 3 , 3 1 i 1 1 : : 3 1 : r r i i r 1 1 ",
"CXIXrX3 > 3 , < > , t : 3 , < 3 : d u < < > , d > p t t < u u t , > > > t > 3 , , > > > < < < < 3 1 3 1 > > 3 2 > u t u t > > > ",
",XJXfXg f g h 4 g f l l U 4 f 4 f f g g f f f f f f g h j h f j g g h g j 5 4 4 f j h l h h 4 4 4 4 4 f g g f 4 g f h l g g f 4 ",
"jXDXDXGX@.O.k @.@.@.%.@.@.@.o.O.o.o.o.o.o.+.+.o.o.o.+.+.+.+.+.o.+.o.o.+.+.+.+.+.o.+.o.+.o.o.+.+.+.+.o.+.o.o.o.o.o.o.@.@.@.o.o.o.",
"JXfX,X0.g |.4XVXCX*.w.qXqXGXFXf.&.jXf.s.h.j.a.g.j.a.d.g.a.a.f.f.d.g.g.d.g.j.a.g.h.s.d.h.a.a.h.f.a.z.z.d.z.z.s.f.x.*.O.6 o.*.s.h.",
"pXqX{.} } X.{.#XwX9.5.+X8.}.qXLXjXg.h.l.l.k.l.l.k.c.l.l.l.j.k.j.j.k.k.k.k.k.j.d.z.z.z.h.jXj.g.k.l.k.k.z.z.h.f.f.s.O.O.v v 6 f.h.",
"7X#X9.} X.{ $X$X7.=.5.3.i.8.}.JXPXLXl.lXzXzXc.zXc.cXc.c.zXzXlXlXlXlXkXkXxXbXm n c 2.x.c xXxXcXkXxXxXxXxXm n v v O.4 j k O.j 4 6 ",
"9X6.4.4.{ X.$X8.| 3.t.XX6.*X}.KX,XjXLXzXlXlXlXlXc.cXc.c.zXlXlXkXcX7 d.+.6 6 M $.>.b k c n c 7 n n n n b c j k k j k k l j U U U ",
"r.t.-. . .=.-.r.| 3.e.r.r.+X#XKX4X,XjXxXxXxXs.s.cXxXcXc.d.m &.m 6 O.n v v b k $.>.b z 2.%.$.b b c b b l k x i.,.p.<.<.z z x l #.",
"t..X-.| =.X.=.| 3.i.y.;..X6.|.3X<XqXdXn c n c j c &.s.n c b b c v U l j b j b $.M >.z :.,.z U k l z k z z p.#.q.1.1.z z z #.p.OX",
"t.8.4.} X.} ;.5.-.%X6.-.6.&XrXyX}.BXgXdXv b j O.w.j l b $.M b k k z ,.z b %.o.@.&.,.,.2.,.#.<.<.q.U 2.O.b b M M :.>.=.z  .z z z ",
"t.3.4.} } X.-.-.4.%X;.;.;.{.NXaX|.KXfX>XJXqXk U q.k M z :.2.M M z z q.b $.PXPX1XPX$.,.2.p.:.>.fX:.x z z 2.PX>.>.u.:.M 1Xq.q.,.q.",
"y.t.4.} { } 4.| 4.7.6.t.3.*XeXrX|.+XBX>X}.OX0X&X9.#.>.:.>.:.$.$.>.>.:.<.:.>.,.M $.$.,.q.e.:.<.1.1.:.:.,.:.>.1.1.>.<.1.1.1.1.:.>.",
"y.e.-.} } } 4.4.4.5.r.y.3.*X6XeX+X9XqXVX<X<X+X&Xw.dXp.u.e.p.vX1Xq.e.u.e.u.q.u.1XgXHXdXq.u.e.e.y.t.y.e.e.u.u.1.e.u.e.u.e.u.e.u.e.",
"e.OX#.X.| } -.{ 4.| t.6.5.7.5XeXOX8.GXDXaXBX[.8.t.&X&Xy.&Xt.*XBX0X*Xi.t.7XqX7X7X*X<XiXAXt.y.XXy. XXX XXXXXy.y.r.e.y.XXXXr.XXXX X",
"t.8.X.}  .| | =.3. .;.5.3.8.0X9X&X8.}.VXVX2XNX8.*X4.5.6..X8.8.{.*X7X8.7.7.$X6.@X8.*X7XnX$X.X XXX XoX X%Xr.XX.X Xy.XX XXX X X X-X",
"y.t.| } | { | 3.3.=.-.;.3.t.0X&X;.r.i.0.,X}.4XAXAX{..X8.8.8.0.4.4.8.8.[.t.6..X6.-.6.$X6.%XXX6. X X6.mX=X%X%X%X%X%XXXoX%XmXmX=XXX",
"8.4.4.{ 4.3.4.8.7.7.7.-.7.8.=X&Xt.XX8.0.GXZXNX|.6XrX=X@X7X9XNXnXeX8.nX$X%X.X;.7.%X8.8.[.7.OX&X=X@X+X*X#X8XmXOX@X[.7.%X@XXX$X=X[.",
"t.OX8.| 4.3.t.t..X.X[.[.[..X$X$X.X.XOX0.2XBXBXBX=X=X[.$X*X&X5X#X#X=XOX8X9X&X8.[.8.=X|.2XiXqX4X2XfXaXqX0X<X5X=XwXnX#X@X8X8X8XwX{.",
"OX&XOX*X8.8.6.*X$X-..X@X$X$X8X&X$X7XrX0.0.#XiX5X+X+X+X[.w.8.#XNX5XnX{.8XOX@X7X+X0XBXNXMX<XpXaXpXpXdXDXpX6X6X0XeX#X@XwX+X+X+X8X#X",
"8X8X8.8.8.8XnX$X@XwX8X=XwXoX@X*XqXiX&XeX9X0X&X*X7XNXnX<XVXZX4XNXqXiX6XMXiX7X9X8.6.#X=X8.+X+X5X6X6X4X2X6X6X}.6XwXtXnXeXNXnX6X0X#X",
"#X=XrXrX8X9X&X@X%X=X=X@X=X=XwX=X5X6X0X9XqX*X&X&XOX7X{.>XdXfXiXnXrX3X2X|.|.#XOX&X$XOXOX8X8X7X=XrX6XiXrX2X6X6X0X0X=X5X5X#X+X+X#X#X",
"8XwX8XOX9X7X|.wX8X=XwX=XnX7X7X+XtX|.=X+X7X9X9X5X+X5XqXaX4X<X+X@XwX|.|.=X8X9X7X#X+X#X+X|.6X6X3XrXMXiXiXqX5X2X#X+X#X{.#X8X=X+XwX5X",
"MX[.*.6X#X}.|.#XwX#X+X6X3X5XqX6XtX=X=X+X8X6X6X4X4X2XfXDXpXNX+XOX=XnX=X#X6X5X6X#XeXNXNXeXiXaXBXfXaX4XqXrXqX5X9X6X5XnX=X5X6X6X6X6X",
"BXaX}.}.aXMXpX4X<XiX6XqXMXrXpXiX3X|.#X3X2XMXMXuXsXDXDXFXgXVXiXeXeX2X}.4XiXpXCXCXBXMXaXsXuXuXuXuXaXMXpXiXiX6XrXwX=X3X4X{.iXiXBXCX",
"hXAXGXaXZXsXhXaX4XfX4XaX,XyX4X4X3XBXNXAXDXuXuXuXuXgXuXuXvXsXqX>X4XBXaX4XfXsXsXsXuXgXuX4XsXDXFXDXsXsX4X4X4X,XMXMXMX4X4XfXhXsXgXgX",
"yX,XfXhXuXyXDXVXdXgXpXdXZXZXuXvXuXgXbXbXbXGXJXZXVXfXgXyXuXZXqXhX4XgXsXsXFXDXFXgXvXyXDXvXFXuXFXbXbXuXbXFXDXgXFXvXvXFXuXbXvXFXFXuX",
"DXgXsXDXGXGXGXZXDXdXfXVXFXJXvXFXFXLXHXbXHXFXbXZXsXBXGXGXDXZXsXdXdXJXJXvXFXvXbXHXFXFXFXFXFXFXFXHXFXFXFXGXHXHXbXJXLXbXHXbXFXLXJXJX"
};
