/* XPM */
static char *_b0daef6cc3d4832ccbcf9e125f30489to1FFnghSupmcatT[] = {
/* columns rows colors chars-per-pixel */
"64 64 256 2 ",
"   c #1C1C08",
".  c #28180C",
"X  c #37140B",
"o  c #291A13",
"O  c #381A15",
"+  c #2A0F07",
"@  c #2A2413",
"#  c #2B2B15",
"$  c #2D291B",
"%  c #292518",
"&  c #342D1B",
"*  c #3B2C1B",
"=  c #362816",
"-  c #35321B",
";  c #3B331C",
":  c #3D3B1C",
">  c #393516",
",  c #33290F",
"<  c #352D22",
"1  c #3B2722",
"2  c #353323",
"3  c #3B3423",
"4  c #3C3B23",
"5  c #383A28",
"6  c #2F2E22",
"7  c #43170E",
"8  c #441B14",
"9  c #481C18",
"0  c #581D1C",
"q  c #44241C",
"w  c #4C251C",
"e  c #442A1C",
"r  c #4C2B1D",
"t  c #482815",
"y  c #54241D",
"u  c #5B251A",
"i  c #53291C",
"p  c #5A291C",
"a  c #443C1B",
"s  c #4B3C1C",
"d  c #46331A",
"f  c #543A1B",
"g  c #402508",
"h  c #68261D",
"j  c #68311E",
"k  c #452A24",
"l  c #4B2A23",
"z  c #482826",
"x  c #532624",
"c  c #532B24",
"v  c #5B2C24",
"b  c #532D2A",
"n  c #5C2C2A",
"m  c #5A2523",
"M  c #443523",
"N  c #433B24",
"B  c #4B3C23",
"V  c #423B2A",
"C  c #4A3428",
"Z  c #543325",
"A  c #5C3325",
"S  c #5C3B22",
"D  c #53342B",
"F  c #5C332B",
"G  c #5C3A2C",
"H  c #533C25",
"J  c #5C3431",
"K  c #593834",
"L  c #543431",
"P  c #642B22",
"I  c #6C2C25",
"U  c #642C2A",
"Y  c #6C2D2B",
"T  c #672622",
"R  c #722B23",
"E  c #742F2A",
"W  c #792C27",
"Q  c #633424",
"!  c #6B3126",
"~  c #64332C",
"^  c #6C342B",
"/  c #633B2D",
"(  c #6B3A2D",
")  c #673B26",
"_  c #73342C",
"`  c #7A342C",
"'  c #753729",
"]  c #643532",
"[  c #6D3532",
"{  c #653A33",
"}  c #6B3B33",
"|  c #6C3D3A",
" . c #633D3A",
".. c #743333",
"X. c #7B3432",
"o. c #743B34",
"O. c #7C3B33",
"+. c #743D3B",
"@. c #7B3D3B",
"#. c #73363B",
"$. c #672F32",
"%. c #501F22",
"&. c #3E4221",
"*. c #47431D",
"=. c #454324",
"-. c #4B4324",
";. c #44432A",
":. c #4B422B",
">. c #4C4B28",
",. c #534523",
"<. c #5B4424",
"1. c #53442B",
"2. c #5C432B",
"3. c #534B2B",
"4. c #5A4B2B",
"5. c #58522B",
"6. c #4A4731",
"7. c #594832",
"8. c #585334",
"9. c #4B5230",
"0. c #63452C",
"q. c #664729",
"w. c #73442D",
"e. c #6B4434",
"r. c #6C433C",
"t. c #684835",
"y. c #734234",
"u. c #7C4235",
"i. c #744C33",
"p. c #74433C",
"a. c #7C433B",
"s. c #7C4A3B",
"d. c #7C4C37",
"f. c #645432",
"g. c #685638",
"h. c #76573A",
"j. c #67512E",
"k. c #5A6636",
"l. c #68693C",
"z. c #6B4744",
"x. c #7C4443",
"c. c #7C4B44",
"v. c #774945",
"b. c #785346",
"n. c #635B44",
"m. c #776443",
"M. c #696446",
"N. c #82352C",
"B. c #813F2F",
"V. c #843C34",
"C. c #8B3C35",
"Z. c #833D3A",
"A. c #8B3D3A",
"S. c #843632",
"D. c #933D38",
"F. c #802A2B",
"G. c #824434",
"H. c #84433C",
"J. c #8B433C",
"K. c #834A3C",
"L. c #8B4A3D",
"P. c #8A4236",
"I. c #924237",
"U. c #93443D",
"Y. c #934A3E",
"T. c #9A493F",
"R. c #99443D",
"E. c #84513D",
"W. c #80412F",
"Q. c #8D3D41",
"!. c #834542",
"~. c #8C4543",
"^. c #844A44",
"/. c #8C4B44",
"(. c #8C4C4A",
"). c #854A4A",
"_. c #934542",
"`. c #9C4542",
"'. c #944B44",
"]. c #9B4C44",
"[. c #944D4A",
"{. c #9C4E4A",
"}. c #984648",
"|. c #8D5344",
" X c #8C524B",
".X c #885845",
"XX c #945244",
"oX c #9C5246",
"OX c #94524B",
"+X c #9C534C",
"@X c #955C4B",
"#X c #9C5B4D",
"$X c #915847",
"%X c #964F50",
"&X c #8C5A52",
"*X c #9C5552",
"=X c #955B53",
"-X c #9C5B53",
";X c #985957",
":X c #A24D45",
">X c #A34D4A",
",X c #A84B4A",
"<X c #A25147",
"1X c #A4544C",
"2X c #AA554D",
"3X c #A45A4E",
"4X c #AA594E",
"5X c #AA5445",
"6X c #B1564F",
"7X c #A45652",
"8X c #AB5552",
"9X c #A55B53",
"0X c #AC5B53",
"qX c #A45D5A",
"wX c #AC5D59",
"eX c #A7555A",
"rX c #B25553",
"tX c #B25B55",
"yX c #B35D5A",
"uX c #B95B58",
"iX c #A14F53",
"pX c #896447",
"aX c #97644D",
"sX c #9B6458",
"dX c #8E645C",
"fX c #AD6155",
"gX c #A4625A",
"hX c #AC635B",
"jX c #A56758",
"kX c #B16155",
"lX c #B3635C",
"zX c #BA645D",
"xX c #B76B5F",
"cX c #A76D56",
"vX c #AF5B60",
"bX c #AD6561",
"nX c #A56B63",
"mX c #B46463",
"MX c #BB6561",
"NX c #B46963",
"BX c #BB6B63",
"VX c #B96D6A",
"CX c #AB7269",
"ZX c #BB7065",
"AX c #B6726A",
"SX c #B77671",
"DX c #AA7971",
"FX c #966F68",
"GX c #C36B68",
"HX c #C3726B",
"JX c #C6756B",
"KX c #C97772",
"LX c #D47F7A",
"PX c #C05E5F",
"IX c #B88478",
"UX c #D0867D",
/* pixels */
"k K J n ] [ ^ ( d.q.pX5.g.g.2.l K | +.+.#.$.@.+.[ p.| ~ } ..X...x.[ p.J c L J L L 3  .L J | { { ( e.^ _ Q.#.m ] p.] } ~ o...u.E ",
"O w J U @.T P p w.q.pX<.s d e l y 9 [ ).Q.I _ ^ a.p y ^ a.~.*X_.Y ^ +.| v.| b %.O O o b x $.n p.Q ( I ~.%X~.!.).+.x m +.!.L.J.H.",
"O K c.^.).@.O.s.w.,.5.,.1.1.Z Z ] H.SXAXbX].{.H./.O.L.9X9XwXJXVX0XgXgX).!.Y m b b q 8 v.$.....u.H.J.A.{.mXmX%X-X).p Z.~.9X8XwXGX",
"8 r.).@.Q._.*X@XE.<.<.,.4.2.Z e.OXAXbX7X7XVX{.R.I.1XoXfX0XyX2X8XeXoXX.T ....#.#.n p.x a.Q.@.X.~.C._.U.MXwXoXqX(.! Y E wXeX8XtX8X",
"i | ).X.*XiXBXoXaXd.q.f Q ( a.-XhXH.#XY.9X0X4XW T.xXfX0X3X3XT.oX8X{.W N.S.}.~.A.O.s.I H.J.A.V.J.Y.T.R.<X0X+XE ! u._ XX0XlX2X5XU.",
"~ a.H.~.8X,XuX<XfXjXXXG.u./.[.+XJ.N.W ` L.'.<XlXkXfX1X5XfX0X3XJ.7XlXoXxX>X8XyXhXgXP.` hX~.'.OXC.BXlX:X].U.G.L.s.u.P.Y.xXtX0XBXlX",
"a.OX!.mXiXrXrXtXI.5X0X3X7X7X0X7X{.}.A.A.Y.R.].yXyX2XuXtX0X1X0XY.`.3XY.fX:X2XuXwXY.P.W hXhXhXL.'.zXtX2XR.BXBX/.L.'.C.GXGXuX2X4X0X",
"H.+XJ.VXtXtX2X6X:X6X6X2XyX8XyX8X8XiX_.D.]._.eX8XyXtXrXrXtX0XwXU.].0XY.kX4X6XyX2XT.Y.' 9XZXZX'.OXBX0XtX].HXHX3XL.XXU.JXzX2XyX0X9X",
"` +XoX].5X4X2X:X6X5X4XfX4X3XwX0X8XyXeXMXwXwXwX8X8XrXrX2XyX8X{.oX0X].ZX3X3X4X4X0XoXG.' hXeX0XhXhX0X2X8XlX8X0XxX1X>XtXrX,XR.1XwXqX",
"~.H.9X` U.0X5X4X5X4X4X'.N.B._.1XyXyX2XyXyX7X1XyXrXrX2XR.D.U.lX1X5XGX3X<XY.0X1X3XE.' ' 3XwXuX0X0X0X9XeX>X2X2X0XoXBX2XGXGXPX5XhXL.",
"U ^.-XC.R T.].R.3X3X'.V.J._.U.2X5X0XyX1X0X0X0X3XeX0XI.C.oXU.oXtXuXrXwX1XXX+X/.=Xy.Q ( '.HXGX8XrX*XwX3XD.].1X3XxXyX0X8X0X3X{.O.I ",
"{ v H.I J.lXZX3X+XG.H.OX9X0XR.U.6X4X0X2XwX1X0XfX3XY.R N.'.4XkXtX6XrX1X9XOXH.K.} A i p.|.Q.Q.,XD.` ` V.1XzXMX4X4XfXXX0XBX_._.O.L.",
"z b F p._ H.hXhXSX~.%X%XZ.Q.}.`.].:X2X8X3X`.lX9X+XH.` P.VXZX0X0X8XwX9X(.sX~ | b F G n [ %XvXwXS.S.E U.HX<XfXxXaXW.j P.fXVXBX9XJ.",
"z k z.] ~ o.o.+.x.x.x.#.Y X.~.7X9XmXlX7X1X'.AX=XsXP o.K.sX#XxX0X7X~.p. X[ { x  .7.K b $.^.~.[.V.! G.S.lX3XcXaXG.w.d.K.aX#X9XBXJ.",
"o z k z q F n n | v.$.9 n F n c.sX;X!.Q.@.T +.r.n c D F v.^.OX^.^ ~ Z J 9 b z.b b z O L v.v.[ c.s.s.#XCXG.G.E.f <.j.<.h.sX$XH.G.",
"O b k K Z q x J J x O q b b k z 9 ~ n U @.U m w l 7.e Z ] ~ U ^ ~ i G i c x n b O O 9 $.n o.P ] } y.E.E.E.j.q.f.l.5.g.,.q.e.( ! ",
"@.%XsXdX.Xy.y.).$.b 8 O o $ o o O b #.;XVX).o.v t.b.G Z Q ( u.' u.K.|.w.! o.^.P ).;XnXnXnXgX=XOX} ] v A S j.h.5.k.l.*.a 2.G 9 v ",
"VXwXAXsXsX$X/.^ @.c.K O % 1 o O z #.DXmXeXeXH.K.y.Q c y.K.L.+XXXXXaX#XK.|.-XgXH.+XwXwX7XeXwX3XOX^ @.~ i.h.d j.l.k.>.: s H Z G a.",
"lX3X3XY.#X-X'.O.[.(.x.l L L O 1 $.qXVXvX,X`.wXJ.|.I ! OX+X+XwX0X1XfX3X+X9X9XwX0X+X_.C.Q.].J.N.J.H.u._ s.K.i.f <.*.> , f ( ^ _ OX",
",XtXtXHXh _._.'.mX~.).~ L b b %.$.;XvXeX,XuXBX0X9XJ.U.9X0X8XyX<X6X6X2X0XkX9X1XwX>XKXHX`.C.R.U.P.J.J.`.V.ZXaX( i > a i ' /./.Y.9X",
"rXrX0X3X<XlXlXyXP.` (.).x.v.| m @.9XMX8XtXGX5X8X9X3X3X0XyX0XyX5XtXrXtX6X8XyX8X:XyXyX5X>X3X2X9XlX'.'.D.tX<XY.^.s.Z l a.*X8XuXJXJX",
"uXrX0XlXT.lXzXlXS.C.OXOX(.(.#.0 @.bX0XwXzXtX0X0X3XwX7X8XyXtX4XtX4X2XtXzX8XtX0XtX8XyXyX0X5X1X0XlX{.5X`.,X5X1X[.s.Z t !.yXGXGXGXKX",
"rXrX6X4X0XlX4X0XN.S.J.gXOXOX@.h ~.hX0X0X6XtX4X4X2X0XrXrXtX2X5X0X6X:X2XzXwX2X0XBX4X8X0X2X4XkXfX1X+X].D.D.D.lX+XI / t (.mXKXKXGXKX",
"6XrX0X4X0X3XoXoX1XP.U.NXO.X.Z.E h '.0X0X5X4X4X4X{.5XrXrX6X6X4X4X5XD.D.].3X0X5X0XzX8X5X0X3X4XfX3X].eX8XGXKX3X9Xs.f X ).eX8XvXyXKX",
"rX>XtXrX3X0X<X4X4XxXxX1X/.'.H.h O.[.0X3X5X1X1XT.I.4XMX2XtXtX5X0XoXlX].N.N.N.I.:X5XwX8X5XyX0X<X0XlX0X0X2XwX9XeX;X^.8 p.-X*X].{.7X",
"yXwX2XBXkX0XfX3X3X3X4X3XwXwXSX` ^.=X9X7X].0X3X0X3X0XtXtXrXtX0X0X0X0X3X+XN.C.I.D.uXwXtX8X2X0X0XyXrX2XyX0X1XeXwXvXa.9 p.@._ E +X7X",
"8X8XwX`.].8X0X3XR.3XtXyX7XyX*Xo.x.^._ _ S.R 9X9XhXwX{.].].].1XhXwX0X3X0XU.<XT.5XuX5XrXyXtXtX8XR.tX5X2X4X9XVXvXeX).7 0 ..L.gXKX0X",
"9X].A.N.JX4X0X1XW J.tX7X>X_.[.).y | @.*X]._.C.U.C.W 1XmXlX0XBXkX3X0X0X0X4XkX>XlX2X6X6X,X2XwXtXlX6X5XtXJXyX7XeXeX] 9 0 +.AXSX4X5X",
"H.R C.KXoXhX+XoXT.{.7X}.X.R (.U n | Y X.W }.C.}.*X/.wX1XyXwX8X8XwX3XfX<X3X3X4X2X0X0X8X2X7XwX9X0X4XkX4X5XeXyXvXY $.%.#.(.+X9XY.I.",
"sXu.hXwXwX+XL.L.XXwX{.Q.Y @.x.x l J $.(.vXeX}.~.[.H.gXeXwXeXwX].`.XX'.C.+X1X9XfXkX1X0X3X'.*XgX-X3X3X4XkXyX7X7XZ.+.n (.~.eX9X'.P.",
"p.( K.L./.! $XsXH.|.qXO.!.x.z.* 1 k z x.%X;X..@.a.a.^ p I _ '.9XR J.B.P.+X#XXXoX[.+XgXXX_ I ! ^ XX=XfX2X5X9XwX=Xp.x %XqXeX7X+XR ",
"t.e.Q o.u u.( o.v / } x.#.| r.X = C b m Q.[ #.m v r.i } a.( o.! w.i.) |.w.E.d.w..X@Xs.Q / ( ~ p.p.s.(.G.X.#X(.&X0.y ^ (.%X[.!.o.",
"g.t.t P p p G G q k X F x b v 9 X q w ~ P p Z q t t Z G / F Z Z <.j.*.,.<.<.h.j.0.t.7.:.D F F F G 7.z.e k 8 z b . O w m ~ / e.t ",
"7., ) pXIX=Xr.r k l k z b ] c.DXaXIXsXCX=XIXb.G dXb.{ F ~ F e.H f g.j.l.,.a j.g B f.n.- e w v / e V q = + C k 1 k D F c.b.s.i.S ",
"d S nXsXjX-X(.( y v z.| { ] U !.J.[.[.}.+X+X=X=X XX...Y Z.!.^.^ j i.m.a , f i.j 0.B n.d G ^ !.o./ c c F x b x b x +.+.%XsXsX$Xd.",
"g r.KXhX7XwX-Xu.Y ^.(.+.).).Y %X].N.D.>XyXlX9XH.I I _.~._._.X.~.L.y.h.t f q.u.K./ D = + &X-X/.J.a.p.P ..).U v.9 U ).~.[.wXfX$XL.",
"^ [ 7X8XMXzXzXY.'./.[.~.X./.H._.{.oXlXKXmX9X_.R H.O.J.J.{.*XX.~.+X!.^ a.s.o.@.a.U c D c a.+XBX7XG.L.].[.Q.(.%X....~.}.8XGXGXxXHX",
"] o.{.zXPXuXzX6X].7XbX+X(.H.J.'.7XhXyX8XhX+X#XO._ L.U.7XlXlXL.X.~.~.` Z.^.@...a.n x O } (.9X0X1X3XeX7X7XQ.7X~.Y Z.}.iXyXuXzX6XxX",
"] +.}.GXrXuXkXKXkX0XKXmXG.` H.9XhXJXMX0X0XfXBXP.O.~.].BXKXSX7X` ~.A.Q.A.[.@.P v.] x X v.qX3X].fXzXGXUX1X_.7X[.E Q.{.yXuXtXuX4X4X",
"x #.*XvX6XuX6X6X6X<X4XBX+X-XC.oXhX3X2XtX0XA.lXU.L.Z.8XzXeX9X0X0XJ.+X>X}.W ~.x.+.| 8 7 x.J.{.oX3X3XtX5XtX3X].+XO.H.Z.3X8XtX5X4X4X",
"z. .Q.{.eX8XR.kX6XkX<XtX'.oXP.'.3X2XuXrX2X0XuXGXoX+XuXrXrXyXlX1XlX<XC.].7XqX!.@.J X x (.eXMXNX#XI.].5X4XlXfXP.h O.` 0X0X:X5X7XhX",
"b x x.*XyXyXHX5X4X4X2XtXY.J.C.wX8X4XtXrXrX8X8X3X+X0XuXrXyXrX0X0X0X4X].lXHXhXVX;Xv.x O ;XeXeX{.R C.U.zXkXfXI.! K.J.hX0X1X5XwXhXP.",
"L %.U [.].jXfX3XoX2X`.].`.].].U.NX0X3X8XR.W W _.+X*X8XrX8XwX7X`.4X5X4XT.J.3XvXvX(.U 9 dX}.Q.Q.Q.T.<XyXyXxXoX_ P.#XhX3XzXlX2X9XR ",
"L x #.Q.[.+XL.G.'.U.]._.J.U.C.{.hXhX1X1XU.S.V.` ` 9XwXwX0X0X[.wX>XkX4XT.h S.7X}.(.U %.&X[.}.Q.D.I.xX2XtXwX3X9XhXxXwX8XyX5X0XXX! ",
"b J +.).(.u.K.^ ' '.^.V.J.L._.` ` J.7XJ.1XU.9XH.~.+XoX7X}.1X+XgX:X1X3X3XH.'.yX{.S.#.q v.c.~.{.W U.0XC.{.wX0X*X9X9XJ.R.1X{.].V.@.",
"D  .Y !.a.( / c.} y.(.^.!.~.H./.V.X.E _.eXBXOXX.L.~.R V.].'.O.'.+X{.+XOXa.OXC.W (.!.r v.} Z.}.].oX3X1X}.7X].J.{.'.eX>X`._.Z._ L.",
"O  .v.n p.{ Z t.r.r.U ~ } c./.^.a.~.-XOXNXbX|.u gXOX~.OXJ.V.' u.@.*X!.=XK.OX_.X.%X] q r.o.H._ ~.=X[.*XA._._.OX+XOX'.U.J./.C.(.DX",
"X D Z { F w Z C D c c F F v c ( r.p.a.=X[.OXP p ..s.( ^ ^ _ ( y...{ { n ~ v o.!.[ x X c +.+.c.c.@._ Y Z.H.Z.H._ a.P o.E E O.y.o.",
"X O q e t x x x e O z b z z O z z z 9 v ^ P j j p p c v ^ ( p 8 9 G D D O O 8 8 8 7 m X i i A t.j u Z / v n 9 9 q O r / j I u Q ",
"dX .b { F +.@.+.F k v.n L L 1 + V b.dX| a.-X+XgXo.Q P c.pX&XnXnXQ G G Z G J b.=X;X Xu.^ ^.c.b.G u o.r.FX&X&XQ y O r z.DXgXjXnX^.",
"AXqXbXqXo.J.xXcX-X&X[ (.).v. .O z r.} o..XXXJ.7X|.u.=X;Xs._ _ _.+XbX(.( @.'.*XeX[.qXhXbXNXgXcX$XH./.).nXSX;XA.o.9 c p.=XhX3X'.9X",
";X9X1XC.lXfX1XI._.+XI (.).x.x.%.w ~ n ^.gX3XS.C.(.OXqXgXOXH.'.7X_.].~.G.eX1X5XwXeX7X0X0X0XgXaXG.P.UXAX*X~.+XeXH.p.q } (.C.`.9X0X",
"|.#X4XY.4XT.5X5X`.U.H.-X(.(.@.%.c c o.~.OXjXJ.3X'.gX-X{.+X_.U.oXwX<XoXY.Y.T.4X4X2X0X0X0X3XcXaXE.XXxXgXOX[.J.wX/.A D ~ K.L.Y.3XoX",
"w.$X@XE.5XaX$X5XT.I.#XhXQ.^.^.y G w / s.#X3XXX3XXX-XOXG.OXXXP.@XcX#XfXaX' Y.aXY.Y.fX3X#XT.@XY.w.G.E.$X! J.` 9XK.e.Z Z e.E.oX'.G.",
"h.j.w.' E.cXcX$XI.T.3Xu.K.^.nX9 r H S e.|.aXE.Q G.@XS ) $XaXcXaXh.<.pXpXpX<.q.) ' aXaXaXw.j.d.pXaXpXj.Q d.$Xd.) d * 7.7.S ) w.b.",
"h.<.<.i.aXaXpXi.W.#XsX( Q / } A 2.7.4./ f &XS q.q..Xj.<.t.d..Xh.j.5.j.f g.4.,.j.j.d..XpXj.j.f i.pXh.q.t.sXaXS r , N =.-.q.f ) S ",
"*.f.h.j.pXpXh.2.w.d.v.2.1.7.k s g.8.8.s f i.j.,.h.m.*.*.<.q.<.,.3.>.s s ,.5.8.5.0.i.S 0.g.f.<.q.<.h.H 4.b.i.0.B = V 9.4 4.4.r 0.",
": -.>.a h.4.>.s i 2.f.1.4 ;.V & -.>.*.1.,.B 3.a l.g.*.5.5.a *.-.9.>.-.d > 5.-.d H d f B 3.8.s 1.,.s d e 0.G 0.s B @ ;.9.3.<.3.d ",
"&.: - : M.7.3.> ,.:.- ;.6.;.# # 3.a 1.N 1.,.:.a f.,.*.>.*.: =.=.*.-.3.a B B 7.-.7.H d > *.3.3.: 5.> B B 1.B 7.M # @ 6.9.-.3.4.:.",
"- - - ;.8.&.-.- N d # 4 & 3 2 @ ;.3.* 1.N :.1.d =.*.> *.&.=.>.N a 7.-.B > * 7.1.N =.- : =.6.9.: *.> M :.- ; M = @ 6 5 : ;.=.: :.",
"- 5 - 3 6.$ N * V M = V = 1 & o ; N - 1.:.& V M =.: > ; =.4 N N M g.N : * e H * 3 - - 4 N ;.2 9.: 4 - ;.$ 5 N - $ $ 3 3 =.- - &.",
"2 4 & 3 ;.3 M = * 1 $ M k < . = - # , V 2 3 o M - - , , N 5 - 3 3 =.=.- ; M M d 4 2 @ - - 4 # ;.- : @ $ 6 2 3 # o o 1 * : - : 2 ",
"o 1 3 V & = * &   # 5 1 o $ < < < $ o $ 5 o < 1 @ & ; & 3 3 < & ;.;.- - . 3 = :.& 2 @ * 3 3 3 @ 3 & & % 5 $ 6 % % 1 $ o * ; &   ",
"O z 3 5 $ * * 5 5 5 5 o o 6 $ 5 6 5 6.% 6 6 2 3 $ - V N 3 3 < 3 5 ;.- - - C 3 3 :.3 V 3 3 N M * C = < $ 6 % o o 1 z k k d > 3 $ "
};
