/* XPM */
static char *_829d441f2ea453894f4c0b73fd358feRjgr3XfLUharjaYZ[] = {
/* columns rows colors chars-per-pixel */
"64 64 97 2 ",
"   c #050005",
".  c #0A0007",
"X  c #0C020B",
"o  c #0F080F",
"O  c #11030E",
"+  c #140611",
"@  c #140A12",
"#  c #1B0E15",
"$  c #1C0F19",
"%  c #151316",
"&  c #181317",
"*  c #161418",
"=  c #1C141B",
"-  c #1C1A1D",
";  c #22151E",
":  c #221A1E",
">  c #1E201F",
",  c #1E1C21",
"<  c #251721",
"1  c #241B22",
"2  c #291D25",
"3  c #2C1E28",
"4  c #1F2223",
"5  c #242226",
"6  c #2A2327",
"7  c #262629",
"8  c #2B252B",
"9  c #26292B",
"0  c #2B2A2D",
"q  c #31262E",
"w  c #312A2F",
"e  c #2E2D31",
"r  c #342631",
"t  c #332C32",
"y  c #382C34",
"u  c #362E39",
"i  c #2E3132",
"p  c #333235",
"a  c #343837",
"s  c #363639",
"d  c #3B363A",
"f  c #363B3B",
"g  c #3B3B3D",
"h  c #40363D",
"j  c #403C3F",
"k  c #3C403F",
"l  c #3E3E41",
"z  c #423E42",
"x  c #493E45",
"c  c #463E49",
"v  c #3E4142",
"b  c #434245",
"n  c #494246",
"m  c #444947",
"M  c #464549",
"N  c #4A454A",
"B  c #464A4B",
"V  c #4B4B4D",
"C  c #51474F",
"Z  c #504B4F",
"A  c #47504E",
"S  c #4D504F",
"D  c #4E4E51",
"F  c #514E52",
"G  c #4D5152",
"H  c #4E5857",
"J  c #525254",
"K  c #585357",
"L  c #525856",
"P  c #555559",
"I  c #5A535A",
"U  c #565A5B",
"Y  c #595A5C",
"T  c #5D5E62",
"R  c #605F64",
"E  c #5E6363",
"W  c #5D6864",
"Q  c #626364",
"!  c #626967",
"~  c #656669",
"^  c #69666B",
"/  c #666A6B",
"(  c #6B6B6D",
")  c #6A706E",
"_  c #6C6D70",
"`  c #716D72",
"'  c #6C7071",
"]  c #757075",
"[  c #7B7A7F",
"{  c #8C8C8F",
"}  c #8F8D92",
"|  c #928F94",
" . c #949395",
".. c #969698",
"X. c #99949A",
"o. c #9B9B9C",
"O. c #9D9BA0",
/* pixels */
"D F J B G J G / / V / H M G B G S S Q / S A A S S A L S / D / E S Z J S V S S ! W G W G S S S S V ( ~ S ! V S S S S S m A ) W ) ",
"9 v M s v g g v G G / v m v v l v f b A V > k v v k a k v a V ( 6 g n g m a k k H v ' v k k g G A f k S J 7 k b j k k v k S A W ",
"0 f g D g b V f f U m v v f v v f b b b A 0 v k v b b f m m v D i b g b f v m k v H B l b m v v m k n l f 7 b f k b v k k k k A ",
"0 m g b g g g b v v H 9 v v l v m b g v k 5 0 v v 9 v m v f v m 5 m f l b b g b v a U l m f b 9 7 f b v b 7 p v m z f v v v v A ",
"- 0 b 9 p 0 M b v l L 7 9 v i 9 0 p b v v - 5 l 0 v b 9 f G v H 0 i b 0 i 7 v b l D D 7 v 9 4 s k m b g v 4 4 b g p 9 v v v k H ",
"J ~ ( V ~ G B J D L V U V ) / / V Y J G D D / ( ' W ' J G A V V G E ( J / J J F V D D ^ ' / ' E J K J V G V K ^ ( ~ ' K H H A A ",
"J J B J J j b k D l G V V D H ~ M b s D v G D D V J ( g v l J G G H S V N v m j P l P A A G H W k g b G V V B J G V ( g g B L V ",
"f M b g g 9 b b l l D b l f l A 0 5 B l l J D v b A J v b v g v f m k k m 5 j N l l D F v l l G 0 v v b j m j b M f J b 0 b v J ",
"z b l j S 0 v 0 b b b v l g v G 9 8 0 c l D N b j b Z M b l l M v v v v N e l e l l l D D l l A e l l l l l l l b F D M 0 b g b ",
"b g b m l % p 0 m 7 9 b g M b J 0 0 0 7 9 t c l M z Z 0 z w w 9 b v k v l , 1 r M 8 t z l M v A 5 C c 7 , l l l k M D e 9 b 0 9 ",
"0 0 6 0 a & - 0 7 7 0 7 0 0 7 B 8 9 1 0 8 0 t t 0 V I t t q q w e 9 i e l * , , 8 = = t u e 0 J , 5 l * l < e l 7 b P , - e e t ",
"l j z V V V J N D V ^ b g g V J P M P C D $ , 1 6 < 8 = 6 X O O l T / / ^ ` R ^ _ ` X.e 8 t 0 0 l r 3 3 l < , 3 N M b M N 4 * , ",
"w b l g z n g n F V / N b g N S V l l F C , < < 6 8 r < < < 2 . c M M ^ ^ ^ ^ O.| } ` 0 r r 7 N , l c c l 3 7 l l l l F V B l , ",
"w h b n g k l l f n J g b l a b c l c c K , e 8 y 3 $ 6 ; y 3 O q l z z c b l l c b | e , 1 r r l 3 r 3 c 3 l l P l D J J B M c ",
"w b j j N b l b z b Z b f V M 0 0 l z c z = 8 y 6 r y < ; ; q . r c c z 9 b l M b l ^ r t $ < < < r r r 3 , $ e l c _ D D ^ [ , ",
"- p w 0 w 0 0 6 0 b F i 0 6 i 9 0 0 0 8 z , 7 = < < ; < 6 ; ; X = < e 8 r 0 e 8 9 M ^ 2 , u 0 < < 3 2 $ l , , e l l l l | l l e ",
"V ) ~ V ~ D D F D P D A v _ / ) H A D D D F M _ / / / J F S F Z 0 6 - 5 1 : 1 w t 5 0 V G ~ ( ~ F C K D V l J - 0 b l n / b b 0 ",
"B f m Z V 0 v l l l l l v A A W 9 l l b f F Y f k L V k k b f J B M b 0 9 8 w z j M g b b A A ) 0 l s 9 b 0 l g F L 0 g n 0 0 Z ",
"m g b l M 8 l V l M G v v v v U i l l l N g d z l b L v m b b b b m B V J w g n n b v b f v v B 7 m l I 7 % f b k J F p 0 0 j b ",
"0 l b s c 7 5 r 8 l M l l v l v 9 M l l 6 p g M l l V v f k z 9 b a B b b 6 5 M j z v b v v v J 9 N b 5 5 5 5 L g j S l f N b 6 ",
"b j n n l 8 8 8 M e 0 M v v v G - g V 0 t n z z b v J e b 0 w 0 0 b b M g 5 i l M 9 w b f b m B , 8 z 5 - 9 0 0 b g J 0 v 6 i 0 ",
": X X O .   + X O   X F J H V D J ` Q V ( & 1 1 : - - 0 0 6 ; 6 J V J S D L J ( B ( ( J K J G ( b D J _ ( B Y V J S F S J ( ! ) ",
": : < : 3 < < 1 X +   z l M D D J B F K M & : = n a k l j p 6 : j M f J H G m V G ( ! v g V V J ` D D n ( f z N l l F J m Z J ~ ",
"2 : q q q < < r 1 3 O z b l b l b g b g n j F J V K J j n j 0 w 0 v b j v v v v v V J b j M b b z b M g F w 0 9 6 b n l l M f Z ",
"2 6 h q < < < r r < O h N z z M b b b l N > ) B F S J V ~ z j 0 0 b b b k B g k k m V b b v k b 9 6 5 j b 0 0 b k a a b b b l F ",
": 3 q q 3 h r r 3 < O h d 0 8 e m f f b n & - w ^ { ( b g n n : 0 9 M 9 N > i v j g J 7 9 b 6 - 6 g M g g : 9 w w 9 0 0 7 k g J ",
"2 3 ; # < < 2 3 3 < + q y w t w 0 i w 5 k : - 0 5 k f b v 0 6 ; 7 0 5 5 9 p > 0 0 V V 0 7 6 M 6 p 6 8 w j % - 9 - * 0 0 > p 0 S ",
"h j j x j < O O O + . O O O + X f f g J f F : w 9 f V 7 0 V z V J N J S Q f b b F s J V B V B ^ g b g V J V Z Z V S ! K S b b / ",
"n x j j n : O O O O + O O . O . t M b j n j Z & 0 b 0 l g g x V k v Z J V 6 z d z n g b b G J V 6 M j M b J V j z B K g k b J ~ ",
"6 w w j n q ; O O . O O O O + : 0 8 6 g n h x x n M Z m n z 0 d j b z z j 8 N 8 d n z J m b v V 0 z j N j k b z M S V v g b v J ",
"w j h n h y : O # . O O . O O : q z w N x n x j z l K i z p 0 w V l g z h 6 q q r z z z b b f G 0 j n j 0 0 l b f M G M b v f J ",
": w 6 w 6 q q < < < 3 3 ; q ; q 2 - q : : q q w q b Z 5 6 6 5 - 6 0 w 0 j y q w 6 t 6 e e 5 0 J 0 0 7 t 0 0 0 0 w g J 9 9 0 0 V ",
", * 1 3 ; : : : < < < Z F P B G D / _ M _ D F D G V V J / m ! E - - > 6 = - : : < + . X X M F F D _ ~ _ ' A G J G A A / / / E / ",
"t r y 6 x q C j z z - N g v f J H v B D ^ 7 s b b v v v v k m ) e F z k n n n q u $ < X X c l l l l B B v 9 l v l l l v l A G W ",
"e 0 6 y q q r y w C : z l z b l l v H A _ 7 m l g v m a k m k V 5 ]  .J N n j y 8 u 2 + X N , l B l l B A 9 l l v A G l l l v H ",
"1 r 3 & 2 2 & q q 6 : N N d B 7 e D l V J 9 7 l b 9 v k k a A S p 6 ~ z z g n 6 r q $ X O   l c F l l l l i 9 v v l l v v l l A ",
", 8 t 8 w ; 6 : 2 r ; q M r 0 u l l l v P 5 0 B 0 M v 0 v m k V - 0 F l V g M e 0 < , X o o 0 e l l l l l 9 0 v l e 9 l v v l H ",
"G _ ( K ` & : X . . . . . X X . P D P P N b P T Q V ~ G L S S S 1 t z l l 0 7 V F C N ,   O   X P l D T D P G ^ ' / ' H A H A G ",
"m K N J n - 1 : 2 ; 2 2 < + O X l l l D l 0 V U G J ( g k k S S Z 5 8 0 e G G m l F l ` 3   O o l l l F F D F D A G _ l l A T v ",
"b g b g z - - y 8 y r ; r , < O r l l D 0 - p g g J V b m k k k n j M M l 9 f l z l c C I 1 @   9 l B l v l l v l l H v 9 l v A ",
"k j b j S & w w t $ < 2 , r < X u l l r 8 3 9 9 S j S m j m m j z j z b G 9 v b b M l M F 1 3 . w j b b b b l b l G J l 9 v v v ",
"n k m k j > w 6 8 r u r r ; 3 X < r l , 8 7 e 7 j m S 6 m 6 > w n j z b g > 9 m l g t 6 y ( ` 7 w l l 0 w l b l l l D e 9 v e 9 ",
"> w 0 w a - > & $ < $ , < 3 3 O , 3 r , , r , l 0 k S & 6 5 5 & w 6 y a a   > 7 0 t 8 8 w V J ~ & p 0 6 > 0 0 i e V V , 9 e 4 i ",
"n k j m m n S S F F R t r r r 3 r l r e l l l l Z k K S m L Q Q X p 6 6 b J S F 0 - w e g G G D V ` ` :   5 0 g M J J A A A H 4 ",
"6 k j b n n k n D D ] t 8 r y c u c c l l 3 l l k j k k k S Z ) : 0 C g b g j F D - % p M f v A F  .Z 6   p j K _ ( E ^ / ~ ' A ",
"p j l b a k m k c l V 0 1 3 < r q r r r l u c l n S S j k n j Z 0 b a J b g J K ` 0 - b m v m A V ^ h : 8 0 g g g J J D P D v ~ ",
"w j b b m b j k l c I 0 r , 7 < < u r r 8 7 l l m k m m j j j L : w M j Z g g X.j w 5 M J A f H Z d V & - d 7 b v g b l f v G ' ",
"> 0 e 0 6 0 0 0 9 l D 7 , 0 r , < < , , r r 8 < 9 6 w w 6 w w Z . : 6 b j j d j n 6 8 j v G A G ( q = 6 1 w 8 z z z l M l l v D ",
"j J S / ! V H V G V D J B / / ! ) h b h j j k a j k a Z Z m K k 8 o 1 7 c r c l r 3 3 l l l c l K 8 : ; r $ l l c r r l c l l I ",
"k k k S G 9 a b v v l l v V H / k k a ! Q ! Q  . . .) j k m p k D t 8 < < r 3 3 3 3 3 l c l l c w - t 6 c < < < = < ; 8 , < , P ",
"b V b g m 9 B k f B Z b b v f V 6 k S j j k n k j )  .m m k m k b z z q u < u , , u 3 l l c 8 7 8 t N F 8 u 3 l l l c 8 e , l , ",
"K V J b b 5 0 p t g j g v v v H 0 j h k w k m j j k Q n j k m 9 8 c c c z $ 2   o 3 u 7 7 l l l e e V M 8 l l l l l I l l l l l ",
"0 z j N l > w 6 z q q N b z v G 0 w w h N 0 7 z k k ) w j 6 0 6 v l V c l 3 $ o X o X l 7 u l 7 9 e l e e l l V c c H 9 c 9 e 9 ",
"= 6 : & - 0 w w w - : F F J F J p 6 > : > > - 0 w w > m ) S ! ) 1 , 7 0 r , 5 ; , , * ^ D l D l M N l l l B D G B H B A H _ / _ ",
": 1 - j N j j j 0 : : j n V J B j w 6 p 6 6 p 0 6 6 L S L S m Q , e 0 V l l c l , , , ^ ^ ^ ^ ^ E E ^ ~ T l l l H c A H A c H ~ ",
"n C Z J S l j M n w q j n g b M j n Z Z J 0 b l k m k m k k k S e 1 c l c C C c c F c l l l l l l l l l T 9 l l l c l l c l l H ",
"& F Z F Z F N ( j n q b l d N k h M n d K 8 b g l c v l l l l H 9 e l c c B C F F ^ C c l l l l l l c l l 7 l c v c l c l l l H ",
"1 6 5 ....g b d j q - 6 w m 5 e w d j Z h 6 w M M 9 4 9 l l l P 7 0 l B l ^ ^ } l c 7 9 5 l l 7 7 c l l l @ u l c 9 e l c c v c ",
"- w 6 o.m k a V q w - - i 4 4 5 0 6 w : j = - 6 0 0 9 i 9 9 e B % , e l c l l l l 8 e 3 , 8 r e u u e e c * , e 9 , u e u 9 , H ",
"Y 1 0 g g l 0 w l V Z Z V G S ) g n z K j F V V B F T l l l B P P F P e 8 l l l l e I 3 r 7 l 3 7 7 3 e 7 G D D A A ~ l l c T D ",
"z & 6 0 m w k b z h n n j V F Q 0 V g j M g b z D D D N l l l P C l l C T 5 l 7 r l l F l l u 3 u 8 l c l D F c c P D l c c l l ",
"z j z k b & N d n 0 z h b b k J 6 t 6 b z N J g b l G l M l l l l l D l F l c 7 c c l l c l l P 7 c l l l c c l l D P c u l c l ",
"x z n n j ; w w w y 6 N j g b J w g 0 M z M z b g M J z l c l l e l l l l , l 7 e l c l c c l c 3 l c c c 7 l l l l P 7 l 3 l c ",
"w 0 w 6 k - ; 6 w : : 0 q 0 7 F 0 0 0 e 6 0 0 7 t g J t 7 5 3 7 , l e 7 c , = , 8 , < r u 3 u C < l 3 r 7 u 7 u 7 l P , , 7 l 8 "
};
