/* XPM */
static char *ba75de626f074f22db8c44cd1a1963a72gxAhnnNaL75aCek[] = {
/* columns rows colors chars-per-pixel */
"64 64 256 2 ",
"   c #540000",
".  c #5B0100",
"X  c #5D0B03",
"o  c #630100",
"O  c #6B0300",
"+  c #640C00",
"@  c #6C0B01",
"#  c #740200",
"$  c #7C0100",
"%  c #720C00",
"&  c #7D0C00",
"*  c #6B1C01",
"=  c #6A1504",
"-  c #751301",
";  c #7B1400",
":  c #721B00",
">  c #7C1C01",
",  c #771A0A",
"<  c #791E13",
"1  c #5F2300",
"2  c #642300",
"3  c #6E2500",
"4  c #7B2400",
"5  c #7E2415",
"6  c #7E2A20",
"7  c #830301",
"8  c #8B0200",
"9  c #840A01",
"0  c #8B0B01",
"q  c #850B09",
"w  c #930201",
"e  c #9B0300",
"r  c #930D01",
"t  c #9B0C01",
"y  c #9B0B0C",
"u  c #831500",
"i  c #831C01",
"p  c #8B1D00",
"a  c #861909",
"s  c #931300",
"d  c #9C1301",
"f  c #971A03",
"g  c #881B11",
"h  c #9A1714",
"j  c #9E0E14",
"k  c #A30301",
"l  c #AB0502",
"z  c #A40C01",
"x  c #AB0C02",
"c  c #A30E0B",
"v  c #AD0E0D",
"b  c #A30708",
"n  c #B20D02",
"m  c #B30E0C",
"M  c #B70905",
"N  c #A41402",
"B  c #AB1302",
"V  c #A41B01",
"C  c #AB1C01",
"Z  c #A5130B",
"A  c #AC120C",
"S  c #A61E0B",
"D  c #B31302",
"F  c #BB1303",
"G  c #B31C01",
"H  c #BC1C02",
"J  c #B3130D",
"K  c #BC150C",
"L  c #BD1A0D",
"P  c #B41A0D",
"I  c #AD0E12",
"U  c #A60F15",
"Y  c #B40E13",
"T  c #B80F12",
"R  c #AE1211",
"E  c #A51714",
"W  c #B31212",
"Q  c #BC1513",
"!  c #BD1A13",
"~  c #B61A17",
"^  c #8B2402",
"/  c #872606",
"(  c #9B2501",
")  c #942A04",
"_  c #9C2A01",
"`  c #982808",
"'  c #9B330B",
"]  c #872816",
"[  c #952915",
"{  c #9B3515",
"}  c #8F331A",
"|  c #A42501",
" . c #AC2400",
".. c #A32D02",
"X. c #AB2B02",
"o. c #A92A0B",
"O. c #B32301",
"+. c #BB2402",
"@. c #B42B02",
"#. c #B92809",
"$. c #AB3301",
"%. c #A73708",
"&. c #B73606",
"*. c #BA2715",
"=. c #AA3A17",
"-. c #B73714",
";. c #A32C16",
":. c #973625",
">. c #A92322",
",. c #A73C28",
"<. c #B83927",
"1. c #BE2520",
"2. c #C31503",
"3. c #C41C02",
"4. c #CC1C02",
"5. c #C3160C",
"6. c #CB160C",
"7. c #C3190D",
"8. c #CC1B0A",
"9. c #CC1603",
"0. c #D21C03",
"q. c #D2140B",
"w. c #D41B0B",
"e. c #D91A0B",
"r. c #C41613",
"t. c #CB1513",
"y. c #C41913",
"u. c #CB1A13",
"i. c #C51A19",
"p. c #D31B13",
"a. c #D51814",
"s. c #C40D08",
"d. c #C42403",
"f. c #CC2401",
"g. c #CC2D00",
"h. c #CD230B",
"j. c #C42907",
"k. c #D72707",
"l. c #C33402",
"z. c #CB3708",
"x. c #D73706",
"c. c #C62714",
"v. c #DC2412",
"b. c #D52A13",
"n. c #C73918",
"m. c #D73917",
"M. c #E52A0A",
"N. c #E4370A",
"B. c #E52718",
"V. c #E73917",
"C. c #C93626",
"Z. c #D83A23",
"A. c #E93627",
"S. c #B94503",
"D. c #B94616",
"F. c #B1480C",
"G. c #AB4429",
"H. c #B84726",
"J. c #BB4A37",
"K. c #AF4C32",
"L. c #9F411D",
"P. c #C94706",
"I. c #D6450B",
"U. c #CC5506",
"Y. c #D75809",
"T. c #C64918",
"R. c #D84618",
"E. c #CA5319",
"W. c #D95817",
"Q. c #E7450D",
"!. c #E94718",
"~. c #F44818",
"^. c #E75819",
"/. c #F6591A",
"(. c #EA540D",
"). c #DD6318",
"_. c #D8640C",
"`. c #E86618",
"'. c #F5691D",
"]. c #E7751D",
"[. c #F9761F",
"{. c #C84824",
"}. c #D74825",
"|. c #C95725",
" X c #D65827",
".X c #CB5737",
"XX c #D55734",
"oX c #D54C31",
"OX c #EA4A27",
"+X c #F84A26",
"@X c #E95824",
"#X c #F95928",
"$X c #EC5438",
"%X c #FA5637",
"&X c #EA4A37",
"*X c #DA6535",
"=X c #CB6439",
"-X c #EA6925",
";X c #FF642B",
":X c #F86928",
">X c #EB7626",
",X c #F37425",
"<X c #F5732A",
"1X c #FD732C",
"2X c #F37A2C",
"3X c #FC7C2B",
"4X c #F97725",
"5X c #E96A38",
"6X c #FE6C33",
"7X c #FE6D3B",
"8X c #FA6637",
"9X c #FD7434",
"0X c #FD7D34",
"qX c #FE743B",
"wX c #FF7D3C",
"eX c #F47736",
"rX c #E77639",
"tX c #F35743",
"yX c #D06A4A",
"uX c #FC6948",
"iX c #FF7343",
"pX c #FF7D43",
"aX c #FF7D4C",
"sX c #FA7549",
"dX c #FF7958",
"fX c #F4714F",
"gX c #FF7766",
"hX c #DB5647",
"jX c #FC832C",
"kX c #F58129",
"lX c #FD8334",
"zX c #FA8A35",
"xX c #FE853C",
"cX c #FE8A3D",
"vX c #F58639",
"bX c #FC913B",
"nX c #EF8039",
"mX c #FF8543",
"MX c #FE8B43",
"NX c #FF844A",
"BX c #FF8B4A",
"VX c #F6834A",
"CX c #FF9244",
"ZX c #FF924B",
"AX c #FF9C4A",
"SX c #FF8553",
"DX c #FF8C53",
"FX c #FF895C",
"GX c #FC835B",
"HX c #FF9356",
"JX c #FFA457",
"KX c #FFB154",
"LX c #FF8264",
"PX c #FF9662",
"IX c #FFBB61",
"UX c #FFC56E",
/* pixels */
"}.}.z A A R U I I Y I I J A A A J m v v v I U b v v U v v R A Z Z N Z Z Z Z A A A A A Z R A A v U Y I Y Y I Y I Y U I R U R R U ",
"V #.N N z v A ~ U R v v v v m K A R W R R W R R I A A A A A A v A A A v B A A A v A R R R R R I W Y W Y Y W Y Y ~ Y W W W W R R ",
"X.T.-.n.{.C.#.z J P W K T Y Y Y W R R R I v A W m m v m m n v v m Y Y Y Y Y Y Y Y Y Y Y I Y Y Y J A I A J A W J I I Y A Y v v Y ",
"s | f | o.*.o.S B B B v W T T T R R P W J W W W W W J W J J J Y Y T T Y Y Y Y T T Y m Y Y K Y m J J J J J J A J W W W W W W Q W ",
";.;.[ ` o.` o.-.-.-.o.C B P B A A A A D J J Q W Q Q Q Q Q Q ! Q T T Y Y Y m m m m K T Q Q Q ! ! L ! L P P J D J B v n J m m m T ",
"> ; - - i p i p ` %.o.o.o.o.-.n.n.*.*.L ! ! L 7.y.Q ! y.i.~ Q Q ! ! r.y.y.Q Q r.K K K 5.7.L 7.y.5.L ! L L L P L K L Q Q r.Q r.r.",
"* * * * * * : 3 : / ) ' o...o.-.&.@.@.O.G H H K K 5.5.5.r.Q Q Q Q Q K K K K K K 7.! L L K 5.K 5.K Q 5.5.K 7.7.L L 7.r.5.r.r.r.r.",
"1 1 1 1 2 2 * * : > > i ^ _ ..$.X.X.X.@.@.j.m.Z.H 2.K 5.r.r.7.5.7.7.7.7.7.7.y.y.L 5.7.7.7.7.r.r.t.t.r.y.7.7.7.7.7.7.7.7.r.r.t.r.",
"2 2 2 2 3 3 3 * : > i u p ( ..f _ ..( |  . .j.c.H F 7.8.5.7.u.6.6.5.7.7.5.8.i.8.y.y.y.7.i.r.r.i.t.t.t.r.t.u.u.7.7.u.y.7.t.t.t.r.",
"3 3 4 : 4 4 @ / ^ ) ) _ ....&.X.X.-.-.-.n.n.n.j.j.h.3.8.8.8.8.w.8.8.8.w.8.6.7.7.7.u.t.u.p.a.a.t.a.t.a.a.t.s.t.a.t.6.6.t.6.u.u.8.",
"( | o.^ D.p $...X.X.X.X.-.&.&.l.c.j.j.H 3.4.3.4.8.k.f.0.0.0.f.0.0.0.0.0.9.0.0.4.w.w.q.9.q.q.e.a.t.t.a.a.a.a.a.t.t.t.u.8.t.6.6.6.",
"n.}.&.z.l.l.R.8Xm.l.#.+.c.j.z.m.Z.f.4.d.4.d.f.x.V.!.!.~.#X#X#X#X;X#X#X#X~.+X!.V.k.k.0.4.0.0.q.9.a.a.a.t.t.a.a.a.a.a.a.a.p.w.8.w.",
"z.R.d./.#XN.!.3.f.4.4.3.h.3.3.f.f.f.I.~.#X6X9XxX0XxX0XjXzXlXjXlXwXwXlXwXwXwXmXpXNXpXqX:XOXI.l.H h.3.2.8.w.w.6.a.q.q.q.e.6.9.6.q.",
"g.f.OX~.~.~.+X~.4.4.w.8.k.4.k.Q.;X9XwXxXlXxXlX3X3XkXjXkXjXjXjXzXcXlXcXcXcXcXcXMXxXxXwXxXwXwX9X6XOXm.f.f.h.w.q.q.a.e.a.a.e.w.w.w.",
"v.k.k.k.0.0.v.v.v.8.v.b.x.Q./.1X1XxXxXlXlXlXzXlXzXlXlXcXlXxXmXvXcXcXcXcXcXzXcXcXcXcXxXxXxXxXwXxXpXqX#Xx.f.0.e.e.e.e.a.e.e.e.0.0.",
"B.e.M.9.0.0.0.9.4.h.+X7XiXxX9X4X,X2X'.2X2X>X>X0XlX0XcXMXmXMXmXmXcXvXcXbXcXcXcXcXcXcXcXxXxXxXxXxXxXwXwXpX;XV.e.q.e.B.B.B.B.A.B.B.",
"v.e.B.M.e.M.k.k.!.7XpXNXmXmXmXcXMXMXMXcXMXcXcXMXMXcXcXMXcXMXMXcXbXbXcXcXcXxXxXxXcXjXlXjX4XjX[.4X3X4X1X:X;X#X~.N.k.M.B.M.B.v.v.B.",
"B.B.e.M.M.k.x.;XmXmXmXcXcXmXMXBXmXMXxXMXMXMXMXcXbXMXMXcXcXMXbXMXvXvXvX0X0X<X<X<X,X,X2XkX[.[.jX].4XlX1XxXwXpX7X8X+XM.w.w.v.v.e.a.",
"e.M.V.M.f.#XwXmXxXxXcXCXCXCXcXxXMXmXMXmXBXMXMXMXCXMXMXMXMXMXBXCXMXcXxXMXxXxXmXcXMXxXmXmXCXZXMXMXcXMXMXwXP.+.G D k F h.B.B.v.B.V.",
"M.M.M.V.;XpXmXxXcXcXbXvXvXcXcXcXMXMXMXMXMXcXMXMXVXCXMXMXMXMXVXcXmXcXcXcXMXMXMXMXMXmXZXmXmXBXpXNXmXmXmXSX}.O.P B l k k l x n M l ",
"0.M.k.x.N.Q.^.1XwXxXMXcXxXcXcXxXMXMXMXMXbXMXCXCXMXCXMXmXBXmXmXmXMXMXcXcXcXvXcXcXCXbXnXZXmXmXBXP.O.GXG B N P k e w w w w w w w w ",
"Q.#X9XqX;X0XmX<X>X`.).`.-X-X<X0X0X2X>X2XnXcXcXvXcXcXMXcXcXcXMXxXcXmXMXcXcXcXbXbXzXMXCXxXmXxXpXg.D n x l z e w w w 8 8 7 7 8 0 7 ",
">XMXBXmXmXmXmXBXBXmXMXMXCXcXcXcXvXlXlXlXxXcXcXxXcXcXlXlXcXxXlXcXcXmXxXlXlXlXlXlXlXcXwXP.l.z.g.f.3.l k x e w e 8 8 8 8 8 8 7 7 8 ",
"ZXmXmXBXBXNXNXmXmXBXmXMXxXxXcXMXcXMXxX0X1X1X1X1X:X'.`.`.`.`.`.`.`.`.`.`./.`.'.'.'.1X;XwXiXaXOXV.h.c.gX! &Xv e e w w 8 8 8 8 8 8 ",
"SXqX#X!.x.+.d.x.8XpXNXNXmXBXxXNXmXpXNXiXqX;X;X;X:XxXxX0XcXzXcXcXmXBXNXBXxXxXmXxXwXwXQ.x.7Xx.^.dXm.8.b.b.c.m.c.$X*.z w w w w 8 w ",
"$XOXb.H 3.H H d.+.z.R.@X@XqX-X#Xm.@Xx.d.!.k.!.k.N.qX^.(.wXxXlXcXBXBXvXmXZXW.P.I.z.x.x.3.g.g.d.H M n n l n x k k l Z.tXhXb v b b ",
"P P B N A D B B G z B H G j.j.H Z.+.H 7.8.h.h.k.k.h.V.8X@X:XBXmXxXxX3X0X2XxX9X:XI.(.!.3.9.M l M l n l x l k l l k k k n l l &XH ",
"c y c c c c z E A Z N P l F F y.P ! D K F u.2.p.9.h.b.f.m.OX8X8X6X1XxX0XcXxXxX9Xx.g.g.3.3.2.e.M l z k e k k e k e e l l 7.j.m.OX",
"U j j j j j U y y Z E t i.R v A J J W ! ! J K r.y.s.5.8.A.h.b.k.g.x.;XpX6XpXBXpXBXpX-XI.I.z.z.g.x uXj.%XB x x x l e e w w e w t ",
"j j U j j E E Z y Z Z c y ~ v v A z A v k ! Q v K i.t.F 5.8.8.8.b.V.k.%Xx.!.g.6X6XmXpXmXwXmX(.NX@Xz.sXsXz.$X+.x z e v t w 8 w 8 ",
"h Z ~ Z k z ~ ! C.v z b Z x c A v A x J W v A ! J m J i.y.7.6.2.a.p.w.8.2.v.b.V.N.M.qX;XqXmXMXMXxXxXBXNXqX@Xn.z.+.N N t e e t 7 ",
"c Z *.C.! x v x c.&X&XuXC.N N gX~ z tXB B B t B D D L F F 2.6.6.t.5.p.8.w.9.0.e.0.k.N.~.x.-X-XcXMXcXMXxXMXMXmXNXNX XLXt LXLXw z ",
"F D A z c Z W A x D Z.dXLX8XC z Z c z B O.@XV  .m.%XK x 3.2.3.2.6.7.4.3.%X9.q.e.0.f.3.!.^.-X-X0XcXcXcXcXcXcXMXMXBXmXDXX.d d N z ",
"dXm.D ! ~ 1.~ z z B G #.sXLXSXoXt Z uXsXsXLXSXSXdXH F 3.tXOX%Xb.8.3.3.f.%X2.h.3.m.7XpXmXpXmXMXlXcXcXMXcXcXcXMXMXMXmXmXHXHXiXSX .",
"Q v v m I Y W J B C C N d d T.fXh y Z.dXgXZ.C N D 9.t.s.6.8.K Q 7.OX%X6X!.7X8XSXBXMXzXcXCXcXcXcXMXMXMXMXCXBXCXmXMXMXZXpXNXSXaXSX",
"y.K M i.r.M x ! G uXuXdXT.d d r s d A J K n #.%XuXA.u.A.i.F ~ c.i.k.!.+X6XwXNXmXcXbXzXzXzXbXzXCXMXMXBXmXmXmXmXMXBXMXZXBXmXDXmXBX",
"A.B.%XA.A.9.V.x.G C C V  .N t d s f e b z z !.g.F 5.T l P D P P i.6.4.g.d.I.^.4X`.jXbXbXvXBXmXBXBXBXMXMXBXMXMXMXMXcXMXZXvXvXZXxX",
"V.V.V.N.N.!.+X@X8X7XaXaXLXsXdXsX5Xn.N A c n.8X^.@Xj.J m N G G m.F 3.OXx.x.(.;X3X3X3XjXcXBXmXNXmXMXMXcXMXMXMXMXMXcXbXcXvXCXCXxXxX",
"NXNX0XmXCXcXvXZXMXMXNXmXmXBXmXBXBXSX#.N t n.pXmXmXSXdX! C oXqXpXSXNXmXmXBXqXNXmXxXMXxXmXBXmXMXlXcXvXcXcXxXxX0XxXxXMXzXcXcX0XzXlX",
"BXMXCXcXbXzXcXvXbXCXMXMXMXxXcXxXcXBXR.z C #.qXmXmXBX}.z R.NXcXcXxXBXxXmXxXDXqX8X8X5XI.5XeX9X:X4X'.,X'.:X:X'././.'././././.'.(.(.",
"ZXnXMXCXcXxXCXvXMXMXZXcXvXzXvXzXlXpX@XG Z G uXaXaX| C G :X9X<X4X>X`.`.-X8X .N }.#.R.n.}.B z.^.`.'./.'.(./.Q.~.~.!.~.~.~.~.Q.~.Q.",
"MXMXBXcXMXmXmXqX@XwXwXDXmXvXbXcXMXBXqXG z L L B V | @X:XmX0XMXxXxXxX-Xl.C 5X#.N C B C O.B G l.;X'.'.'./././.#X+X%X7XuX+XD x.#X%X",
"^.xXxXxXmX@Xl.N.M.N.#XM./.@XMX2XcXcXZX@XB b n F I.^.1XmXmXxXMXMXmXHXE.N N O. .N d y t E y s 0 s CXlXZXMXmXHX}.&.N C n.d 8 N +.}.",
"&.Y.9XwXmX;X#X~.V.~.~.N.g.6XxXBXcXvXMXpXc.! i.h.qXwXz.<XMXMXcXvXDXqXaX| d S t N d r r s s $ s FXmXcXBXMXHXtX-.7 7 $ <.0 s 0 d w ",
"vXmXmXpXg.d.g.~.x./.:XxXxXwXBXmXcXCXmXiXb.3.d.%XpXmX6XI.9XxXCXBXcXBXmX .s 8 r 8 0 7 0 $ 9 9 GXDXmXmXmXSX@Xo.0 $ # $ >.$ $ 0 8 7 ",
"MXMXNXpXNXg.!.wX(.4X3XcXMXmXmXNXBXvXNXiXm.k.x.pXmXmXeXN +.9XvXBX>XmXaX&.d 8 8 8 $ 0 9 q 7 & SXBXmXmXNXSX-.7 $ 9 $ h g $ $ 7 $ 7 ",
"xXxXmXNXpX^.xXxX(.1XlXxXqXiXz.G  .&.6XqXN.N./.9X#XiXdX+.+.O.pXeXz.C O.OXr 0 7 9 9 & q 7 7 r @.pXmX@.@XC O.S 0 $ 7 # $ q $ $ 7 $ ",
"I.W.P.6XpX@X-XI.P.^.l.z.l.m.H G z.m.!.6X/.~././.z.+.$X5Xx.#X8XaXaXOXoXoXZ 7 [ q 9 & & 0 8 w G R.qXz.R.n.Z 8 0 7 7 q $ # # $ $ $ ",
"OXR.@.z.&.I.R.z.R.j.n.!.z.z.#XI.l.d.qXg.Q./.Q.#X;Xz.!.I.I.x.^.z.}.n.O.S d 0 7 q 9 $ 9 0 0 B -.O. . .oX#.d 8 d *.[ S q q $ $ # 7 ",
" .&.SX| V iXT.uXO.G #.G G j.I.@X@.O.-X6X+.G z.O.&.z.iX .R.V +. .@.0  .GXd 7 h 9 9 9 9 $ 0 S S N V N o.N d S r 0 0 0 $ h q $ 0 9 ",
"&.$.&.-X`.( f {.7 8 [ $ 0 7 s q S.VX&.}.|.&.8 7 sX| 9 XX# XXs -.T.E.{.FXFXs # 9 9 9 9 0 0 7 7 8 8 8 8 oXd w >.7 7 7 7 7 7 r s .X",
"%._ |... X XT.# p # $ # J.,.<..XH..XD.=.f $ =.XXXX# $ G.<.yX.Xo.( 9 D.& p {..X$ <.<.h $ [ y >.E d XXGX| {.oX<.<.>.j >.E C.s XXfX",
"} + G.F.) =.o..X9 % O O O ,.yXo [ o ; [ O # # J.; J.[ ,.O [ K.,.u J.o & u =.H.|.=XD..X% $ 9 J.9 .X9 -.5X%. Xo.oXhXS fXXX*X-...|.",
"+ * + @ % O [ , ,.o % o , :.  o @ X O K.% :.,.} + K.. . . ] . o ] g g a G.[ ^ - > i =.[ a # # J.[ % i %.O %.GX( .X# H._ =._ %.u ",
"  X 6   . X   o < O ] o . < . ] + * = L.G.@ > :.. X , : = ] @ = . = < . . { O i yX. > / ,.% O o o   5 ] > > ) - - ^ G.' { - g   ",
", X X X X <   = o i % g , < X     K.yX/ ] / @ @ + + , , ] =   @ . X + . =X/ o % { { / - } [ ] -   + . } - { / @ ; i ^ o / o O . ",
"/ * = = X + . @ . ,.i @ ; :.X X = = . = . o ] , = +   5     =   - * 4 { [ G.@ =X' ^ O % O g @ O ^ ' u u G.p %.^ %.%.^ ^ yX) ; ; ",
": { > 4 / 4 / > ^ { ^ ^ - 4 + . + = < 5 . @ - :   ] ] * 4 . } / / - L.) ' ; D.D.=.' ' =.H.u ` =X*X X*Xp | D.E.|.E.|.$._ .._ D.|.",
"T.$.T.5X$.|.D...%._ %.^ ) i > - > / i H.p ' ' ) ) @ / / / / { ' i %.) *X*XT.XX( &.E.5XrXsXF.&.&.S.*X( {.p T. X) |._ _ GX%._ .XD.",
"NXW.eXxXMXP.U.&.$.$...*XD.HX' %.nXD.D.VX|...$.D...F.%.%.{.%.%.&.$.|.T...E. Xs |  X$.T.S.rX>X).S.vXS.X.( |.E.D.rX_ p |...*X_ F.S.",
"wX1X1X4X).].X.lX&.eXeX-XxXMXJXE.rXX.W.@.X.E.P.eX&.f E.S.).E.&.T.U.W.P.P.X.<XwXxXW.U.-XrX$.@.S.lXcXU.2X2XU.>XvXAX>XbX>XzX).JX).JX",
"@.z.'.3XkX]._.jX`.<XW.<XxX3X<X].-XY.U.W.Y.^.@X^.mX<X<X].cX9XxXMXJXcX>X0X<XlXY.CX2XlXAXAXcXzXU.].zXcXAXAXbX>XzXAXUX].kX].JXvXMXvX",
"jXbXU.].kXzXAXzXjXbX(.lXlXjXlXbXxXcXlXxXmX0X'.Y.`.`.&.4XCX2X-X`.CX>XAXjX_.AX2X,XbXzXU.AXJXAXJXU.Y.zXCXU.2X>XAXKXS.UX%.kX&.P.&.&.",
"_._.kXF.KXIXUXbX].2X`.4X,X,XjX$._.,X| ,X,X'.Y.P.Y.cX0X`.P.,X`.Y.].U.4XU.jXU.U.zX_.U.F.S.zXbX>X>X>X>XP.S.F.nXBX) F.kXKX_.bX,X9XwX"
};
