/* XPM */
static char *_636716670257[] = {
/* columns rows colors chars-per-pixel */
"64 64 9 1 ",
"  c #F8D781",
". c #FFF1AA",
"X c #D4B980",
"o c #EECD79",
"O c #917357",
"+ c #6E574F",
"@ c #433636",
"# c #564646",
"$ c #3B3030",
/* pixels */
"    ....    ....    ....    ....    ....    ....    ....    ....",
"    ....    ....    ....    ....    ....    ....    ....    ....",
"    ....    ....    ....    ....    ....    ....    ....    ....",
"    ....    ....    ....    ....    ....    ....    ....    ....",
"    ....    ....    ....    ....    ....    ....    ....    ....",
"    ....    ....    ....    ....    ....    ....    ....    ....",
"    ....    ....    ....    ....    ....    ....    ....    ....",
"    ....    ....    ....    ....    ....    ....    ....    ....",
"    ....    ....    ....    ....    ....    ....    ....    ....",
"    ....    ....    ....    ....    ....    ....    ....    ....",
"    ....    ....    ....    ....    ....    ....    ....    ....",
"    ....    ....    ....    ....    ....    ....    ....    ....",
"    ....    ....    ....    ....    ....    ....    ....    ....",
"    ....    ....    ....    ....    ....    ....    ....    ....",
"    ....    ....    ....    ....    ....    ....    ....    ....",
"    ....    ....    ....    ....    ....    ....    ....    ....",
"    ....    ....    ....    ....    ....    ....    ....    ....",
"    ....    ....    ....    ....    ....    ....    ....    ....",
"    ....    ....    ....    ....    ....    ....    ....    ....",
"    ....    ....    ....    ....    ....    ....    ....    ....",
"    ....    ....    ....    ....    ....    ....    ....    ....",
"    ....    ....    ....    ....    ....    ....    ....    ....",
"    ....    ....    ....    ....    ....    ....    ....    ....",
"    ....    ....    ....    ....    ....    ....    ....    ....",
"    ....    ....    ....    ....    ....    ....    ....    ....",
"    ....    ....    ....    ....    ....    ....    ....    ....",
"    ....    ....    ....    ....    ....    ....    ....    ....",
"    ....    ....    ....    ....    ....    ....    ....    ....",
"    ....    ....    ....    ....    ....    ....    ....    ....",
"    ....    ....    ....    ....    ....    ....    ....    ....",
"    ....    ....    ....    ....    ....    ....    ....    ....",
"    ....    ....    ....    ....    ....    ....    ....    ....",
"    ....    ....    ....    ....    ....    ....    ....    ....",
"    ....    ....    ....    ....    ....    ....    ....    ....",
"    ....    ....    ....    ....    ....    ....    ....    ....",
"    ....    ....    ....    ....    ....    ....    ....    ....",
"    ....    ....    ....    ....    ....    ....    ....    ....",
"    ....    ....    ....    ....    ....    ....    ....    ....",
"    ....    ....    ....    ....    ....    ....    ....    ....",
"    ....    ....    ....    ....    ....    ....    ....    ....",
"    ....    ....    ....    ....    ....    ....    ....    ....",
"    ....    ....    ....    ....    ....    ....    ....    ....",
"    ....    ....    ....    ....    ....    ....    ....    ....",
"    ....    ....    ....    ....    ....    ....    ....    ....",
"    ....    ....    ....    ....    ....    ....    ....    ....",
"XXXXooooXXXXooooXXXXooooXXXXooooXXXXooooXXXXooooXXXXooooXXXXoooo",
"OOOOOOOOOOOOOOOOOOOOOOOOOOOOOOOOOOOOOOOOOOOOOOOOOOOOOOOOOOOOOOOO",
"++++++++++++++++++++++++++++++++++++++++++++++++++++++++++++++++",
"@@@@@@@@@@@@@@@@@@@@@@@@@@@@@@@@@@@@@@@@@@@@@@@@@@@@@@@@@@@@@@@@",
"++++++++++++++++++++++++++++++++++++++++++++++++++++++++++++++++",
"@@@@@@@@@@@@@@@@@@@@@@@@@@@@@@@@@@@@@@@@@@@@@@@@@@@@@@@@@@@@@@@@",
"++++++++++++++++++++++++++++++++++++++++++++++++++++++++++++++++",
"+++##########++++++##########++++++##########++++++##########+++",
"++#++++++++++#++++#++++++++++#++++#++++++++++#++++#++++++++++#++",
"+#++########++O++#++########++O++#++########++O++#++########++O+",
"+#+#++++++++O+O++#+#++++++++O+O++#+#++++++++O+O++#+#++++++++O+O+",
"+#+#++++++++O+O++#+#++++++++O+O++#+#++++++++O+O++#+#++++++++O+O+",
"+#++OOOOOOOO++O++#++OOOOOOOO++O++#++OOOOOOOO++O++#++OOOOOOOO++O+",
"++#++++++++++O++++#++++++++++O++++#++++++++++O++++#++++++++++O++",
"+++OOOOOOOOOO++++++OOOOOOOOOO++++++OOOOOOOOOO++++++OOOOOOOOOO+++",
"++++++++++++++++++++++++++++++++++++++++++++++++++++++++++++++++",
"OOOOOOOOOOOOOOOOOOOOOOOOOOOOOOOOOOOOOOOOOOOOOOOOOOOOOOOOOOOOOOOO",
"++++++++++++++++++++++++++++++++++++++++++++++++++++++++++++++++",
"$$$$$$$$$$$$$$$$$$$$$$$$$$$$$$$$$$$$$$$$$$$$$$$$$$$$$$$$$$$$$$$$"
};
