/* XPM */
static char *_636716662256[] = {
/* columns rows colors chars-per-pixel */
"64 64 9 1 ",
"  c #EBEBED",
". c #86838C",
"X c #5E5A60",
"o c #444444",
"O c #B9B9B9",
"+ c #CBCBCB",
"@ c #6D6970",
"# c #534F54",
"$ c gray18",
/* pixels */
"           .XXXXXXXXoO                     .XXXXXXXXoO          ",
"           .XXXXXXXXoO                     .XXXXXXXXoO          ",
"           .XXXXXXXXoO                     .XXXXXXXXoO          ",
"           .XXXXXXXXoO                     .XXXXXXXXoO          ",
"           .XXXXXXXXoO                     .XXXXXXXXoO          ",
"           .XXXXXXXXoO                     .XXXXXXXXoO          ",
"           .XXXXXXXXoO                     .XXXXXXXXoO          ",
"           .XXXXXXXXoO                     .XXXXXXXXoO          ",
"           .XXXXXXXXoO                     .XXXXXXXXoO          ",
"           .XXXXXXXXoO                     .XXXXXXXXoO          ",
"           .XXXXXXXXoO                     .XXXXXXXXoO          ",
"           .XXXXXXXXoO                     .XXXXXXXXoO          ",
"           .XXXXXXXXoO                     .XXXXXXXXoO          ",
"           .XXXXXXXXoO                     .XXXXXXXXoO          ",
"           .XXXXXXXXoO                     .XXXXXXXXoO          ",
"           .XXXXXXXXoO                     .XXXXXXXXoO          ",
"           .XXXXXXXXoO                     .XXXXXXXXoO          ",
"           .XXXXXXXXoO                     .XXXXXXXXoO          ",
"           .XXXXXXXXoO                     .XXXXXXXXoO          ",
"           .XXXXXXXXoO                     .XXXXXXXXoO          ",
"           .XXXXXXXXoO                     .XXXXXXXXoO          ",
"           .XXXXXXXXoO                     .XXXXXXXXoO          ",
"           .XXXXXXXXoO                     .XXXXXXXXoO          ",
"           .XXXXXXXXoO                     .XXXXXXXXoO          ",
"           .XXXXXXXXoO                     .XXXXXXXXoO          ",
"           .XXXXXXXXoO                     .XXXXXXXXoO          ",
"           .XXXXXXXXoO                     .XXXXXXXXoO          ",
"           .XXXXXXXXoO                     .XXXXXXXXoO          ",
"           .XXXXXXXXoO                     .XXXXXXXXoO          ",
"           .XXXXXXXXoO                     .XXXXXXXXoO          ",
"           .XXXXXXXXoO                     .XXXXXXXXoO          ",
"           .XXXXXXXXoO                     .XXXXXXXXoO          ",
"           .XXXXXXXXoO                     .XXXXXXXXoO          ",
"           .XXXXXXXXoO                     .XXXXXXXXoO          ",
"           .XXXXXXXXoO                     .XXXXXXXXoO          ",
"           .XXXXXXXXoO                     .XXXXXXXXoO          ",
"           .XXXXXXXXoO                     .XXXXXXXXoO          ",
"           .XXXXXXXXoO                     .XXXXXXXXoO          ",
"           .XXXXXXXXoO                     .XXXXXXXXoO          ",
"          +.XXXXXXXXoO                    +.XXXXXXXXoO          ",
"          +.XXXXXXXXoO                    +.XXXXXXXXoO          ",
"          .XXXXXXXXXXX+                   .XXXXXXXXXXX+         ",
"         +.XXXXXXXXXXoO                  +.XXXXXXXXXXoO         ",
"        +.XXXXXXXXXXXX@O                +.XXXXXXXXXXXX@O        ",
"       +.XXXXXXXXXXXXXX@O              +.XXXXXXXXXXXXXX@O       ",
"      +.XXXXXXXXXXXXXXXX@O+           +.XXXXXXXXXXXXXXXX@O+     ",
"   ++..XXXXXXXXXXXXXXXXXX@@O++     ++..XXXXXXXXXXXXXXXXXX@@O++  ",
"....@XXXXXXXXXXXXXXXXXXXXXX@@.......@XXXXXXXXXXXXXXXXXXXXXX@@...",
"XXXXXXXXXXXXXXXXXXXXXXXXXXXXXXXXXXXXXXXXXXXXXXXXXXXXXXXXXXXXXXXX",
"XXXXXXXXXXXXXXXXXXXXXXXXXXXXXXXXXXXXXXXXXXXXXXXXXXXXXXXXXXXXXXXX",
"XXXXXXXXXXXXXXXXXXXXXXXXXXXXXXXXXXXXXXXXXXXXXXXXXXXXXXXXXXXXXXXX",
"################################################################",
"................................................................",
"@@@@@@@@@@@@@@@@@@@@@@@@@@@@@@@@@@@@@@@@@@@@@@@@@@@@@@@@@@@@@@@@",
"oooooooooooooooooooooooooooooooooooooooooooooooooooooooooooooooo",
"################################################################",
"oooooooooooooooooooooooooooooooooooooooooooooooooooooooooooooooo",
"################################################################",
"oooooooooooooooooooooooooooooooooooooooooooooooooooooooooooooooo",
"################################################################",
"oooooooooooooooooooooooooooooooooooooooooooooooooooooooooooooooo",
"................................................................",
"@@@@@@@@@@@@@@@@@@@@@@@@@@@@@@@@@@@@@@@@@@@@@@@@@@@@@@@@@@@@@@@@",
"$$$$$$$$$$$$$$$$$$$$$$$$$$$$$$$$$$$$$$$$$$$$$$$$$$$$$$$$$$$$$$$$"
};
