/* XPM */
static char *_636716647647[] = {
/* columns rows colors chars-per-pixel */
"64 64 10 1 ",
"  c #909090",
". c #86838C",
"X c #6D6970",
"o c #3C3A3E",
"O c #7F726E",
"+ c #756D4A",
"@ c #6B6341",
"# c #5F583A",
"$ c #554F3A",
"% c #948581",
/* pixels */
" . .    X         .X.X  X    .X  . .    X         .X.X  X    .X ",
"  .     X .   X.    .X  X .   .X  .     X .   X.    .X  X .   .X",
"     .  X.   . XX.  .X. X.     .     .  X.   . XX.  .X. X.     .",
"X       X . .  .  .  .  X .    .X       X . .  .  .  .  X .    .",
"   .    XX   .          X.  . .X   .    XX   .          X.  . .X",
". .X .  X.. . .  . . . .X .   . . .X .  X.. . .  . . . .X .   . ",
"  ..X . X.... . ... . ..X. .   .  ..X . X.... . ... . ..X. .   .",
"...XX...X.... X ........XX.........XX...X.... X ........XX......",
".XXXXXX.X..X.X.XX.XX.XXXXX..XXX..XXXXXX.XX.X.X.XX.XX.XXXXX..XXX.",
"oooooooooooooooooooooooooooooooooooooooooooooooooooooooooooooooo",
"O+++@@+@@+@@@@#$O++@@+@@@@@+@@#$O+++@@+@@+@@@@#$O++@@+@@@@@+@@#$",
"O+@####@@######$O@#@#@#####@###$O+@####@@######$O@#@#@#####@###$",
"O@#@#@@###@#@#$$%@@@##@#@@##$$#$O@#@#@@###@#@#$$%@@@##@#@@##$$#$",
"%@@##$$##$$##$$$O@####$$#$$###$$%@@##$$##$$##$$$O@####$$#$$###$$",
"O@@@@##$@##$$#$$O@@##$@#$$$$#$$$O@@@@##$@##$$#$$O@@##$@#$$$$#$$$",
"O@##$##$$#$$###$O@##@######$$##$O@##$##$$#$$###$O@##@######$$##$",
"O$$$$$$$$$$$$$$$O$$$$$$$$$$$$$$$O$$$$$$$$$$$$$$$O$$$$$$$$$$$$$$$",
"%O%OOOOO%OOOOOOO%OOO%OOO%OOOOOOO%O%OOOOO%OOOOOOO%OOO%OOO%OOOOOOO",
"+@@@@@#$O++@@+@@+@@@@@#$O+++@+@@+@@@@@#$O++@@+@@+@@@@@#$O+++@+@@",
"####$$$$O+@@######$###$$O+#@##@@####$$$$O+@@######$###$$O+#@##@@",
"@@####$$%@@@#@@##$$#$$$$O@#@#@##@@####$$%@@@#@@##$$#$$$$O@#@#@##",
"###$$$$$O@#@@##########$O@@@@######$$$$$O@#@@##########$O@@@@###",
"$####$#$O@@@##$$##$$##$$O@#@#@#$$####$#$O@@@##$$##$$##$$O@#@#@#$",
"#$$$#$#$O@###$$$$####$#$O@#@#$$##$$$#$#$O@###$$$$####$#$O@#@#$$#",
"$$$$$$$$O$$$$$$$$$$$$$$$O$$$$$$$$$$$$$$$O$$$$$$$$$$$$$$$O$$$$$$$",
"%OOOO%OO%OOOOOOO%OO%OOOO%O%OOOOO%OOOO%OO%OOOOOOO%OO%OOOO%O%OOOOO",
"O+++@+@@++@@@@#$O++++@+@@+@@+@#$O+++@+@@++@@@@#$O++++@+@@+@@+@#$",
"O+@@@##$##$$##$$O+@@@@@#@####$$$O+@@@##$##$$##$$O+@@@@@#@####$$$",
"%@#@#@##@#$$$$$$O@@###@##@@$##$$%@#@#@##@#$$$$$$O@@###@##@@$##$$",
"O@@###$$@##@#$$$%@#@@#####$$#$$$O@@###$$@##@#$$$%@#@@#####$$#$$$",
"O@@@#@@##$$$$$#$O@###$###$#@@#$$O@@@#@@##$$$$$#$O@###$###$#@@#$$",
"O@####$$$$###$$$O@#@$$@$$$#$###$O@####$$$$###$$$O@#@$$@$$$#$###$",
"O$$$$$$$$$$$$$$$O$$$$$$$$$$$$$$$O$$$$$$$$$$$$$$$O$$$$$$$$$$$$$$$",
"%OO%OOOO%OOOOOOO%OOOO%OO%OOOOOOO%OO%OOOO%OOOOOOO%OOOO%OO%OOOOOOO",
"@++@@@#$O++@+@+@@@+@@@#$O+@++@+@@++@@@#$O++@+@+@@@+@@@#$O+@++@+@",
"#@###$$$O@@###@@###@##$$O+#@@@###@###$$$O@@###@@###@##$$O+#@@@##",
"$#@#@##$O+@@@####@@##$$$%@@##$##$#@#@##$O+@@@####@@##$$$%@@##$##",
"@#####$$O@#$#@#$@####$#$O@@@@##@@#####$$O@#$#@#$@####$#$O@@@@##@",
"##$$$$$$%@@@##$$$$$$##$$O@#@#@#@##$$$$$$%@@@##$$$$$$##$$O@#@#@#@",
"#$$$$##$O@##$####$$$$$#$O@###$$##$$$$##$O@##$####$$$$$#$O@###$$#",
"$$$$$$$$O$$$$$$$$$$$$$$$O$$$$$$$$$$$$$$$O$$$$$$$$$$$$$$$O$$$$$$$",
"%OOOOO%O%OOOO%OO%OOO%OOO%OOOO%OO%OOOOO%O%OOOO%OO%OOO%OOO%OOOO%OO",
"O+@++@@+@@@@@@#$O++@@+@@@+@@@@#$O+@++@@+@@@@@@#$O++@@+@@@+@@@@#$",
"O@@####@@######$O@#@#@#####@###$O@@####@@######$O@#@#@#####@###$",
"O+#@#@@###@#@#$$%@@@##@#@@##$$#$O+#@#@@###@#@#$$%@@@##@#@@##$$#$",
"%@@##$$##$$##$$$O@####$$#$$###$$%@@##$$##$$##$$$O@####$$#$$###$$",
"O@@@@##$@##$$#$$O@@##$@#$$$$#$$$O@@@@##$@##$$#$$O@@##$@#$$$$#$$$",
"O@##$##$$#$$###$O@##@######$$##$O@##$##$$#$$###$O@##@######$$##$",
"O$$$$$$$$$$$$$$$O$$$$$$$$$$$$$$$O$$$$$$$$$$$$$$$O$$$$$$$$$$$$$$$",
"%O%OOOOO%OOOOOOO%OOO%OOO%OOOOOOO%O%OOOOO%OOOOOOO%OOO%OOO%OOOOOOO",
"@+@@@@#$O+++@@@+@+@@@@#$O++++@+@@+@@@@#$O+++@@@+@+@@@@#$O++++@+@",
"####$$$$O@@@######$###$$O@#@##@@####$$$$O@@@######$###$$O@#@##@@",
"@@####$$%@@@#@@##$$#$$$$O@#@#@##@@####$$%@@@#@@##$$#$$$$O@#@#@##",
"###$$$$$O@#@@##########$O@@@@######$$$$$O@#@@##########$O@@@@###",
"$####$#$O@@@##$$##$$##$$O@#@#@#$$####$#$O@@@##$$##$$##$$O@#@#@#$",
"#$$$#$#$O@###$$$$####$#$O@#@#$$##$$$#$#$O@###$$$$####$#$O@#@#$$#",
"$$$$$$$$O$$$$$$$$$$$$$$$O$$$$$$$$$$$$$$$O$$$$$$$$$$$$$$$O$$$$$$$",
"%OOOO%OO%OOOOOOO%OO%OOOO%O%OOOOO%OOOO%OO%OOOOOOO%OO%OOOO%O%OOOOO",
"O++@+@@+@@@@@@#$O+++@++@@@@@@@#$O++@+@@+@@@@@@#$O+++@++@@@@@@@#$",
"O@@@@##$##$$##$$O+@@@@@#@####$$$O@@@@##$##$$##$$O+@@@@@#@####$$$",
"%@#@#@##@#$$$$$$O@@###@##@@$##$$%@#@#@##@#$$$$$$O@@###@##@@$##$$",
"O@@###$$@##@#$$$%@#@@#####$$#$$$O@@###$$@##@#$$$%@#@@#####$$#$$$",
"O@###@@##$$$$$#$O@###$$##$####$$O@###@@##$$$$$#$O@###$$##$####$$",
"O#$$$$$$$$$$$$$$O#$$$$$$$$$$$$$$O#$$$$$$$$$$$$$$O#$$$$$$$$$$$$$$"
};
