/* XPM */
static char *_634812666721[] = {
/* columns rows colors chars-per-pixel */
"64 64 230 2 ",
"   c #6E0502",
".  c #720604",
"X  c #720A03",
"o  c #780C0A",
"O  c #750B09",
"+  c #74190E",
"@  c #7C340B",
"#  c #7B2E1D",
"$  c #782517",
"%  c #7F3414",
"&  c #7E361E",
"*  c #4D3D2E",
"=  c #4E3D30",
"-  c #7D2F22",
";  c #7C3424",
":  c #7F3B26",
">  c #7E3A2A",
",  c #5C4B36",
"<  c #5D4C38",
"1  c #574A35",
"2  c #634E3A",
"3  c #614F37",
"4  c #66513B",
"5  c #6D543D",
"6  c #6D583D",
"7  c #71563E",
"8  c #76593F",
"9  c #78593F",
"0  c #7E4731",
"q  c #745640",
"w  c #765A41",
"e  c #7C5D42",
"r  c #7E6144",
"t  c #7F6649",
"y  c #82170A",
"u  c #84190C",
"i  c #8B1D0F",
"p  c #8B1D10",
"a  c #862A00",
"s  c #892D01",
"d  c #8D3201",
"f  c #903501",
"g  c #933904",
"h  c #953C0B",
"j  c #8C2413",
"k  c #8D2C1B",
"l  c #8D2817",
"z  c #932C1A",
"x  c #922C16",
"c  c #82371B",
"v  c #84381E",
"b  c #813617",
"n  c #913C15",
"m  c #94351D",
"M  c #9A3C1C",
"N  c #9D2B21",
"B  c #922F22",
"V  c #853B23",
"C  c #843C2B",
"Z  c #893D2D",
"A  c #963A20",
"S  c #9A3D23",
"D  c #9C392E",
"F  c #933723",
"G  c #8B3E32",
"H  c #9F3C31",
"J  c #8D2B20",
"K  c #A12C24",
"L  c #A42F28",
"P  c #A5322C",
"I  c #A8332E",
"U  c #A23A2E",
"Y  c #A6362A",
"T  c #A73530",
"R  c #A93632",
"E  c #A13B31",
"W  c #AA3934",
"Q  c #A53F3A",
"!  c #9C4C1B",
"~  c #99441B",
"^  c #9D501C",
"/  c #A4531E",
"(  c #83442A",
")  c #834528",
"_  c #9C4426",
"`  c #9E492A",
"'  c #9C4627",
"]  c #9F5222",
"[  c #9D5D2B",
"{  c #9E522E",
"}  c #884435",
"|  c #8C5D3F",
" . c #A5422C",
".. c #A34C2C",
"X. c #A44329",
"o. c #A15422",
"O. c #A45A26",
"+. c #A3552A",
"@. c #A55B2A",
"#. c #A95E25",
"$. c #A34433",
"%. c #AC4434",
"&. c #A34A33",
"*. c #AD4D35",
"=. c #A6443C",
"-. c #AA443D",
";. c #A64A3B",
":. c #A84C3F",
">. c #B24F3B",
",. c #B1463B",
"<. c #A55432",
"1. c #A95232",
"2. c #AA5E37",
"3. c #AC553B",
"4. c #AD5B3C",
"5. c #A55737",
"6. c #B1533D",
"7. c #B35C3D",
"8. c #9F6230",
"9. c #9F602D",
"0. c #A3632E",
"q. c #A26333",
"w. c #AC6532",
"e. c #AD6A34",
"r. c #A5653B",
"t. c #AC633A",
"y. c #AB693D",
"u. c #A66837",
"i. c #BA6735",
"p. c #B16C33",
"a. c #B2623C",
"s. c #B16B3C",
"d. c #BA6839",
"f. c #B4733C",
"g. c #B8733C",
"h. c #B97A3E",
"j. c #B5753A",
"k. c #A74641",
"l. c #A94741",
"z. c #A64943",
"x. c #AA4A44",
"c. c #AC4948",
"v. c #AD5243",
"b. c #AE5B42",
"n. c #AE584C",
"m. c #B25441",
"M. c #B45C42",
"N. c #B85B41",
"B. c #B35E4A",
"V. c #B1534F",
"C. c #826245",
"Z. c #8E6B4A",
"A. c #8A6846",
"S. c #936E4C",
"D. c #8E704D",
"F. c #95734D",
"G. c #9D764E",
"H. c #9C7553",
"J. c #9C7953",
"K. c #927150",
"L. c #A76A43",
"P. c #AB6C43",
"I. c #AB6B4B",
"U. c #A96443",
"Y. c #B36343",
"T. c #B96445",
"R. c #B46B43",
"E. c #BA6A45",
"W. c #B4634C",
"Q. c #B46C4B",
"!. c #BB6D4C",
"~. c #BA664C",
"^. c #AC734C",
"/. c #A3794E",
"(. c #AB7648",
"). c #B47543",
"_. c #BA7444",
"`. c #BA7C42",
"'. c #B5734C",
"]. c #BD734B",
"[. c #B47B4D",
"{. c #BC7C4D",
"}. c #AE6159",
"|. c #AD6C54",
" X c #B16C50",
".X c #B96B51",
"XX c #B66856",
"oX c #A57C52",
"OX c #AC7A55",
"+X c #B37453",
"@X c #B57C53",
"#X c #BD7C51",
"$X c #B57658",
"%X c #B77B67",
"&X c #BB6A66",
"*X c #C17A4E",
"=X c #C0774B",
"-X c #C27B51",
";X c #C37650",
":X c #C5726E",
">X c #C97572",
",X c #C27A73",
"<X c #BE844C",
"1X c #BC8147",
"2X c #AB8255",
"3X c #AE895A",
"4X c #BA835C",
"5X c #B58759",
"6X c #BC8662",
"7X c #B88A66",
"8X c #AD9668",
"9X c #B39568",
"0X c #B69C71",
"qX c #BAA17A",
"wX c #C0834D",
"eX c #C3874C",
"rX c #C28354",
"tX c #C38A52",
"yX c #C88857",
"uX c #C89456",
"iX c #CA965A",
"pX c #CB995B",
"aX c #C79458",
"sX c #D29B5D",
"dX c #CA9675",
"fX c #CA8E6D",
"gX c #D5A362",
"hX c #D9AB66",
"jX c #D19482",
"kX c #CCAA8A",
/* pixels */
"i.i.m.7.3.I._.d.i.i.i.i.i.i.7.6.I.g.i.i.i.i.i.i.x.7.7.P.).i.i.i.i.d.i.7.7.4.Q.g.i.i.i.i.i.i.m.7.Y.^.d.i.i.i.i.i.i.7.7.P.R.i.i.i.",
"x.x.l.x.X.P.$Xx.x.x.z.x.x.z.x._ q.W.x.x.x.x.x.x.x.x.X.P.W.z.k.x.l.x.z.z.x...u.b.z.z.x.x.x.x.x.z.5.).b.x.x.x.x.x.x.l.:.<.s.v.x.x.",
"z.z.$.&._ q.P.x.;.;.&.x.&.&.$.~ 8. Xv.;.;.&.z.x.&.&.' u.b.;.;.;.&.;.&.&.&.` P.B.z.z.&.;.:.x.&.&.{ U.3.:.z.&.;.;.&.&. .5.P.n.;.x.",
"I.|.@.0.y.2XOXI.r.U.0.+X8.@.0.r.7X%X|.I.q.(.I.|.[ 8.y.2X^.L.U.L.8.|.[ 0.8.L.7X$XI.I.[ (.I.|.[ 8.(.OXL.U.L.L.L.P.[ 9.8.oX7X|.I.I.",
"<X6X[.[.4XrX4X@X|.$X8X6X@X[.@X@X6X$X@X$XI.kX4X4X).@X6X4X4X@X+X$X0X4X[.[.@X4X6X$X[.$XI.dX4X4X[.@X7X4X6X+X^.%X9X6X[.@X@X4X6X$X$X@X",
"d.3.6.6.m.n.3.m.v. .qXi.6.m.m.m.v.>.v.x._ 0Xi.6.v.3.6.m.6.v.x.M 0X7.6.6.v.6.3.x.x.x.M 7X7.6.m.v.6.6.3.m.>.~ 5X7.6.v.m.3.m.x.x.v.",
"7.-.:.$.=.=.$. .&.M 9X7.x.$.x.=.&.=.$. .n 8X6.=.x.=.;.$.$.&.$.g 9X6.z.=.x.=.&.=.$.$.g 2X>.$.=.=.z.=.$. .$.h 5Xx.x.=.-.=.&.-.&.$.",
"} V C b v V v b % @ Z.} Z c C v % V c % @ Z.G V V v V v c b % @ A.G Z v V V % Z b b @ A.G c V V Z c b b % @ | G Z v V V % C % % ",
"} > - # ) ) ; ; ; > } > > ; ; 0 ) # # # # > - # ; # ) 0 ; ; > V ( C ; ; ; ( : # # # # ; b # # J ) : ; - > > } > > ; > V & # # + ",
"&XR N K 3.b.D D =.z.z.z.=.D D U.7.N z K K z N N z N 7.b.D D k.x.x.z.H D D 4.<.N N N N N N N z K 3.;.D Q z.z.z.=.H D $.3. .N B X ",
">X-.K K 7.Y.D E z.c.x.x.Q E U R.T.K K K K P I K K K 7.Y.D H x.x.c.k.Q H U M.6.K N K N I L K K K 7.3.D Q z.c.c.x.E D E M.%.N N O ",
">X-.K z 7.~.k.k.z.x.c.E U H H Y.T.K N L P R W L K K 7.W.=.k.x.c.k.Q H H U Y.>.K K L R R P K K N 4.n.k.k.c.x.=.E H E $.M.%.N P O ",
">Xl.K K 7.!.x.x.x.x.l.U D D U Y.T.L K R R L W P K N 6.~.x.x.x.c.=.E E H E Y.6.K L R W P W P K K 7.B.c.x.x.c.=.E D U $.a.%.K P O ",
">Xc.K K 6..Xx.x.c.k.Q E Q Q E Y.T.L R R W K R T K K 7.!.x.x.x.l.D Q E $.E M.6.R R W W K R T N N 7.B.z.c.x.z.E E Q Q $.4.%.I W o ",
"dX.X>.>.=XyX.XW.W.W.b.Y.~.W.W.rXrX7.N.N.M.6.7.7.>.>.-XyX!.XX~.M.7.W.W.W.W.-X=X7.N.M.N.3.7.N.6.>.-X-XXXW.~.b.7.W.W.W.W.*XT.N.N.- ",
"dXg.p.w.p.h.f.p.p.e.iXt.a.t.a.R._.t.t.t.a.iXw.p.p.e.f.g.s.p.p.p.yX4.t.a.t.s.R.t.4.a.t.tXw.p.e.w.f.g.p.p.p.p.{.t.a.4.t.R.s.t.t.> ",
"XXn s a a a a s s s iXu i i i y y y i p p iXa s s a a a a s a s wXi p p i y y i i i j g.a d a a a a s s s g 4.i i i i y y i i . ",
"Q.n a a a a a a a a iXu p i i i p p i i p iXa a a a a a a a a a wXi p p i i i i i i i ).a a a a a a a a a s r.p i i i i y i p . ",
" Xn a a a a a a a a iXy i u i i i p i i i iXa a a a a a a a a a wXi y y y i i i i i i h.a a a a a a a a a d 2.i y y i p p i i . ",
"+Xn a a s d d f d d iXp y y y i p p u y y iXs s a s s d f d f f wXu y y y i i j y y y h.s s a a s d d d d g t.i y y u i i i y   ",
"'.n a a s s a a f s iXy u u y y u i y y y iXs a a a s a a a d a *Xy y y y y u u i y y h.s a a a a s a d d d 2.y y + y u i u u   ",
"fXt.O.^ o.o.o.o.o./ gX+._ _ _ _ _ ` _ _ +.hXo.o.O.] ] o.o.o.o.o.pXo._ _ _ _ ' _ _ _ +.uXo.o.O.] o.o.] o.] @.wX..' _ _ _ _ _ ' # ",
"fXQ.R.t.).rXT.T.!.E.-X*X].!.;XrX`.2.2.t._._.t.t.R.t.`.*XE.E.E.E.rX;X].!.].rX).2.2.a.=Xs.2.t.s.2._.].E.E.E.E.rX;X=X=X=X*Xs.2.t.> ",
"}.J u y ` 7.K P I K K P W W W T.<.y u i p y y y u y <.M.K P P K K R W W W M.S y y i j y y y y y &.*.K I L N K I R R W 3.k y u X ",
"}.J u u ' a.P I W P K I W W W ~.5.y y u p u y y u y <.7.I R R L L I W W W M.D y y i i y y i y y ..,.P R R K P R W W %.3.m y y . ",
"}.J u u ' 7.K I I I P W W W W T.<.u y u i y u i u y +.6.K I I U I W W W W N._ u y y i y y i y y ..*.K R R P I W W W W 1.z u +   ",
"}.B + y ` 7.N K K K K W W W W T.<.y u u u y y p y y 1.6.K K K K K W W W P 4.S i y i i + y i y y ..%.K K K K P W W W W *.x i u . ",
"}.m y y ` 7.K K K K K W W W I a.<.u i u y y y u y y +.6.K K K N L W W W I 3.S i i y y u y i y y ..%.K K K K P W W W R *.l i u . ",
"dXQ.4.t.<XyXT.E.E.E.E.].!.!.E.iXuXa.t.t.t.2.2.t.t.2.tXrXE.E.E.T.E.=X!.].E.yXeXa.t.2.4.t.r.t.t.2.<X{.!.E.E.E.E.].!.=X].yX_.a.t.( ",
"jXXXB.B.XXW.W.W.M.6.iX/ / / / #.#.o.! ! / iXW.W.B.W..X~.W.W.M.3.tX/ / / o.#.O.^ ! ] ] rXB.B.B.B.~.~.W.M.6.7.h./ / / / #.o.! ! $ ",
"jX}.c.c.-.Q l.x.Q E pXg g g f g f s a s f pXc.x.x.x.k.=.x.l.Q U eXg f g f g f s s d g rXc.x.x.x.=.=.x.l.E $.p.f g g f g d s a X ",
",XV.c.k.$.H Q l.=.=.pXd f f f f f s s d s pXc.z.x.=.E E =.l.=.=.eXf f f f f f s s d a -Xx.x.x.=.Q U l.x.=.x.p.f f f f d f s s X ",
"%XV.k.U E D Q l.c.=.pXa s d s a d a a d s iXE =.=.E E E =.x.c.E wXa s d s a s a d d a -XE z.Q E U D l.x.x.$.w.a s d a s s a s X ",
",Xx.=.D U U Q l.k.H aXa s d s a a a a d s iXE Q -.E D H Q z.=.E <Xa a d s a a a a d a <XE E Q H D U =.k.Q $.w.a s d a a a a s X ",
",XV.x.%.E E E $.$.Q pXs s s d d s s s s a pX$.$.z.=.E E E $.$.E eXs d d d s s s a s s -X$.$.=.=.$.E E =.$.$.s.s a d d s s a d X ",
"jXXXW.~.Q.W.U.M.Y.Y.gXt.9.@.@.@.@.[ +.+.@.gX~.M.W.~.Q.Y.Y.M.M.Y.pX0.+.@.@.@.@.+.+.O.+.sXT.Y.W.!.Y.Y.Y.M.M.R.eX@.@.@.@.@.@.+.[ # ",
"jX;X7.T.#X<XT.Y.Y.T.].#X!..X!.rX{.7.7.7.7.;X=X7.a.T.-X{.T.Y.Y.Y.-X]..X.X.X#X].7.7.7.7.;XE.7.7.T.#X].Y.Y.Y.W.=X.X.X!.!.#XR.7.7.V ",
">X%.K K M.T.H H D E U Q x.l.=.~.a.K P L K W L K K I T.Y.E D H H E =.x.k.=.Y.*.N P L L W K K K I M.3.E E U E E =.x.=.:.M. .K L O ",
">XW K L N.W.D T U E D Q x.k.H R.7.z P I R W Y K K L Y.Y.E T U E D Q l.=.E Y.*.K P R I W P K P P M.3.D D E E H =.x.=.E 7.U K P O ",
">X-.K L N.Y.D E D D E E k.Q D E.T.K K W W P T L K P M.M.E D E E E Q =.Q U a.*.K L W W I P K K K 3.3.E E U D E Q =.E $.7. .K P o ",
":X=.P T m.T.H H D H Q U E E D W.a.K K T W K L P I P M.Y.D U D E Q E Q D E M.*.K K W W K L P P P 3.3.D E E D Q E Q D $.3. .K L o ",
":Xl.W R 7.Y.E E U Q x.E E D H T.7.K K R W K L R W I N.Y.E E E $.=.E U U E Y.*.K K R W K P W W P 6.3.Q E E =.Q U D U $.7. .K L o ",
"jXyX#X-XiXgXrXrX-X#X-X#X{.{.-XpXgX*X{.-X-X_.{.-X;X*XsXsXrX#X#X#X-X-X#X#X*XpXsX=X{.-X-X=X*X*X-X=XiXsX-X#X].rX#X#X#X{.rXpXyX{.=X} ",
"yX<.! ^ ^ / ! ~ ! ! pXS S U _ _ X.M M F A pX~ ~ ! ! ^ ! ! ~ / ! tXS S S S S _ M m A m {.~ ! ! ! ^ ! ! ! ! ] ).S S U S _ _ A A $ ",
"Q.n s f d a a a d f iXp i i i i y y y y y iXa a d f s a a a f f <Xp p p p i y y u + u ).a s d f s a a s f g t.j p i i y y y y . ",
"Q.n f f d a a a f f uXp i i i i i u o u y pXs s f f d a a a f f <Xp p p i i y y y u y g.s s f f s a a s g g a.i p i j i u + y . ",
"+X~ s f f s a s f g sXi i i i i j y y i i pXf s d d s d s s f f tXp p p i p i y u i i h.d d d d d s s s f g d.i p i i i i u y . ",
"'.n a a a s f f g g uXi i i j i i y y y i iXs a a a a s f f g g <Xp i p p p p i y y i g.s a a a a d f f g g a.i i i i i i y y   ",
"+X~ a a a d g g g g iXj j j j p u u u u u pXg a s s d d g g g g yXj j j j p u u u u j `.s a s s s f g g g h d.j j j p p u u u . ",
"dX1X1Xs.f.f.g.g.g.g.hX*XE.R.s.R.R.s.y.s.y.hXe.f.`.s.f.).g.g.g.g.hX_.R.R.R.s.R.s.s.y.t.iXf.f.h.p.f.g.g.g.g.h.sX_.s.E.R.s.y.s.y.0 ",
"%X&._ A 7.].>.6.>.6.N.N.6.>.>.!.y.m m m m X.S M _ Y P.!.>.>.>.>.7.m.6.>.*.T.<.m m m m X.S A _ S a.~.>.>.>.>.N.>.>.>.>.a.` m m $ ",
"XXB i i ..T.R K K K K L W W I T.<.i p i i i i i i i 2.N.P K K L K I W R P 3._ y p p y p p p i i *.>.L K K L K I W W I 1.k i p . ",
"}.B p p &.Y.P K K N K K I R P a.1.i i i i p i p i j <.N.L K z K K K R R P 6.X.j p i p i i i i i 1.*.K K K K N K W I P <.m i i . ",
"}.J y p ..T.P K K K K K I W I a.<.i i j i p y y y i 1.M.L K K K K L W R K 1._ i i j i i u y y i *.*.K K K N K P W I L *.m i p . ",
"}.J y u ` Y.R K K K L T W R L Y.<.u p i i i + y y u +.M.Y L L L P I R R L 7.S y i i i u + y u u &.6.R K K P P R R I Y <.z i p . ",
"$XF l l <.T.%.W Y W ,.,.%.%.W E.2.j j x z l j j j j 2.~.%.Y Y %.,.,.W W W a...j x x z l j j l j <.M.,.Y R U ,.,.%.%.%.4.m j z o ",
"aXP.y.y.).5X'.~.R.R.'.yX].R.'.5X[.r.y.y.U.1X).r.y.r.[.5X'.R.).R.].rX'.'.].[.(.y.r.y.U.`.P.U.y.y.[.[.'.Q.R.).#XrXP.Q.'.1XP.r.L.0 ",
"7X2XoX/.F.J.2X/.oXoX/.3X2XoX/.Z.H.2XoXoXoX3X2XoX/./.D.K.2XoXoX/.oX3X^.oX/.F.J.OXoXoX/.3X2XOX/./.F.2XOXoXoX/.2X2XoX/.J.F.2X2XoXC.",
"7XJ.F.Z.w t /.S.H.S.S.F.S.H.S.6 t J.S.S.Z.H.F.F.A.Z.w D.oXS.H.S.F.F.S.F.Z.r Z.J.F.S.Z.H.F.F.Z.A.r D.J.K.J.S.S.S.S.S.A.r K.H.K.A.",
"J.r w w 3 6 C.C.r r w C.e e w < 6 C.w e 8 C.r w 9 9 < q C.e C.e e e e e q 3 w C.w w e C.e w w w 3 8 C.e C.w e e e e 7 5 w r e q ",
"G.8 w 7 < < 7 w 9 9 w w 7 8 7 1 4 9 6 7 9 8 9 7 8 6 , < 7 9 9 9 9 q 7 w q < 5 w 7 w w 8 9 9 7 6 , 4 6 8 9 9 9 7 6 8 5 < 7 9 7 4 ",
"r 6 8 7 , 3 w w 7 w 9 w 4 8 q , 5 9 7 8 9 9 7 7 9 7 1 4 9 7 7 8 w 7 5 9 4 1 6 w 7 9 9 8 7 9 w 6 3 6 8 7 7 9 8 7 5 w 4 3 7 w 7 4 ",
"2 4 5 2 , 3 5 4 2 4 2 4 2 2 2 1 < 5 4 2 4 5 4 4 4 4 1 3 5 4 2 5 4 4 2 4 2 , 2 5 5 2 4 4 2 4 4 2 , 4 5 2 4 4 4 4 2 4 2 < 5 4 4 4 ",
"* * * * * * = * * * * * = * * * * * * * * * * * * * * * * = * = = * * * * * * * * = = * * * * * * * * * * = = * * = * * * * * = "
};
