/* XPM */
static char *f9c7d77a53724296e3a8b7b1749f8141qe1ltX2WwUnvxPUa[] = {
/* columns rows colors chars-per-pixel */
"64 64 253 2 ",
"   c #050100",
".  c #0C0100",
"X  c #0C0C08",
"o  c #130100",
"O  c #1B0200",
"+  c #1B0A00",
"@  c #140C03",
"#  c #151405",
"$  c #120E11",
"%  c #0F1000",
"&  c #230800",
"*  c #291603",
"=  c #331709",
"-  c #372B14",
";  c #363625",
":  c #4C340C",
">  c #473D2A",
",  c #503C25",
"<  c #603F16",
"1  c #3E453E",
"2  c #6F5703",
"3  c #5A4B39",
"4  c #564931",
"5  c #614E2E",
"6  c #6D6118",
"7  c #3D4344",
"8  c #4C4B49",
"9  c #655D48",
"0  c #7D6851",
"q  c #727267",
"w  c #595D60",
"e  c #86781F",
"r  c #D87C1B",
"t  c #C97D0F",
"y  c #E27B1E",
"u  c #DD7A24",
"i  c #E47C24",
"p  c #EC742D",
"a  c #E57C2C",
"s  c #ED7A2B",
"d  c #E77626",
"f  c #F4762E",
"g  c #F2792E",
"h  c #F9762C",
"j  c #ED7434",
"k  c #EE7A33",
"l  c #ED793A",
"z  c #ED7738",
"x  c #F37633",
"c  c #F97434",
"v  c #F37A33",
"b  c #F37639",
"n  c #F47A3A",
"m  c #FA7839",
"M  c #EF6F2F",
"N  c #8B775C",
"B  c #917655",
"V  c #967962",
"C  c #A38D25",
"Z  c #D58619",
"A  c #CF8C16",
"S  c #E2861D",
"D  c #DC8624",
"F  c #E48223",
"G  c #E7862B",
"H  c #E88332",
"J  c #FA833B",
"K  c #F99A3B",
"L  c #EB8F2D",
"P  c #FAA33B",
"I  c #FBB33C",
"U  c #EDA133",
"Y  c #FCDC3D",
"T  c #F8D93B",
"R  c #FDE13C",
"E  c #FFE234",
"W  c #9A8850",
"Q  c #AE9854",
"!  c #B7A44C",
"~  c #928777",
"^  c #958973",
"/  c #BC996E",
"(  c #A79579",
")  c #BD9C73",
"_  c #BB9D7C",
"`  c #B59B78",
"'  c #A58A73",
"]  c #BDA374",
"[  c #BBA37B",
"{  c #B8A779",
"}  c #FDA446",
"|  c #FFB94A",
" . c #FFB058",
".. c #C29E75",
"X. c #CA9D73",
"o. c #C49E79",
"O. c #C99D79",
"+. c #C89B6C",
"@. c #C4A076",
"#. c #C4A27A",
"$. c #C9A67D",
"%. c #CAAA7D",
"&. c #CAA678",
"*. c #C9AB6E",
"=. c #FFAB52",
"-. c #FFC84B",
";. c #FDD445",
":. c #F5DC44",
">. c #FEDD45",
",. c #FED54B",
"<. c #FEDD4B",
"1. c #F5DA49",
"2. c #FFCA57",
"3. c #FFD554",
"4. c #FDDC53",
"5. c #FDD55A",
"6. c #F5DB5B",
"7. c #FEDA5C",
"8. c #F2D755",
"9. c #EDD55C",
"0. c #FEE045",
"q. c #FDE244",
"w. c #FDE24B",
"e. c #F5E348",
"r. c #FEE252",
"t. c #FEE25C",
"y. c #F8E457",
"u. c #EEE15F",
"i. c #FDDB62",
"p. c #FAD967",
"a. c #ECD676",
"s. c #F5DB79",
"d. c #F6CB67",
"f. c #FCE262",
"g. c #F7E268",
"h. c #F9E274",
"j. c #EAE178",
"k. c #7E7F83",
"l. c #959697",
"z. c #8F918B",
"x. c #A7988A",
"c. c #BC9E83",
"v. c #B59B87",
"b. c #A89B97",
"n. c #9DA39C",
"m. c #BCA483",
"M. c #BBA48B",
"N. c #B9A686",
"B. c #B8A795",
"V. c #B4AC95",
"C. c #BCB2A7",
"Z. c #B6AEA9",
"A. c #9FA5A1",
"S. c #C39F85",
"D. c #CCAB82",
"F. c #C5A688",
"G. c #D1AE85",
"H. c #CCB78C",
"J. c #D2B286",
"K. c #D5B48B",
"L. c #D9B78D",
"P. c #D5BA8C",
"I. c #DAB98E",
"U. c #D6BA86",
"Y. c #C4AD94",
"T. c #C2AB99",
"R. c #CEB593",
"E. c #CDBB94",
"W. c #CCBB9C",
"Q. c #C8B39A",
"!. c #D4B692",
"~. c #D5BB94",
"^. c #DBBB92",
"/. c #D3BC9B",
"(. c #DBBC9B",
"). c #D7B599",
"_. c #E0BE96",
"`. c #E2BE9A",
"'. c #E1BD8E",
"]. c #C2ABA3",
"[. c #CDBCA2",
"{. c #C6B8A7",
"}. c #D3BCA4",
"|. c #D6BAA6",
" X c #C2BFBA",
".X c #E1BFA4",
"XX c #D9C38C",
"oX c #D4C19D",
"OX c #DBC39C",
"+X c #D7C597",
"@X c #CFC297",
"#X c #F5DC83",
"$X c #E1C195",
"%X c #E3C39A",
"&X c #E9D58F",
"*X c #F9E688",
"=X c #FAE49C",
"-X c #E7E09C",
";X c #DDC4A2",
":X c #DCCAAB",
">X c #D7C4A6",
",X c #D7C9B6",
"<X c #D4C8B2",
"1X c #E2C6A4",
"2X c #E3CBA5",
"3X c #E3CEAC",
"4X c #E9CCA8",
"5X c #EAD2AC",
"6X c #E7D4A9",
"7X c #F4D9AB",
"8X c #E4D3B3",
"9X c #EBD5B4",
"0X c #E5D5BA",
"qX c #E6D9BC",
"wX c #EBDBBD",
"eX c #EAD8B7",
"rX c #F2DBB4",
"tX c #F2DDBC",
"yX c #F7D9B7",
"uX c #E8CDB4",
"iX c #EDE2BB",
"pX c #F3E1BD",
"aX c #F9E5BA",
"sX c #FFFFBE",
"dX c #FEF4B7",
"fX c #F9E7A8",
"gX c #D6D7CA",
"hX c #DBD9D7",
"jX c #CECBC9",
"kX c #E5DBC3",
"lX c #ECDDC2",
"zX c #E7DACA",
"xX c #F1DEC2",
"cX c #FADEC2",
"vX c #E5DCD2",
"bX c #DFE3D7",
"nX c #EDE1C4",
"mX c #E9E2C9",
"MX c #F2E2C4",
"NX c #F9E7C8",
"BX c #FFFFC3",
"VX c #FEFCC9",
"CX c #E6E3D7",
"ZX c #F4E7D8",
"AX c #FFFCDE",
"SX c #FEF9D7",
"DX c #DEE3E4",
"FX c #FFFCE4",
"GX c #FFFDEC",
"HX c #FFF5E8",
"JX c #FFFBF7",
"KX c #EFEAE8",
"LX c #DEDFE3",
/* pixels */
">.0.4.<.>.>.R R 0.y.r.,.;.<.<.e.0.w.w.<.>.r.4.w.1.<.w.0.:.>.q.Y 0.Y 0.>.e.r.:.w.0.<.>.>.>.<.<.<.<.>.R E R 0.0.0.<.w.R E w.e.q.R ",
"0.>.<.<.>.>.R 0.w.:.<.<.<.w.r.0.:.w.:.>.t.,.3.5.7.5.3.3.6.,.;.<.,.>.w.<.<.1.r.<.0.>.>.<.>.0.e.<.<.<.R E >.0.0.0.t.>.q.E T r.>.w.",
"0.0.0.0.0.>.<.0.w.e.>.w.,.,.>.e.w.T w.;.,.3.5.2.r F i i u r L 2.2.5.,.3.4.<.<.e.0.0.R >.>.<.e.r.4.<.0.0.0.0.<.4.1.r.0.q.e.:.t.6.",
"0.0.0.0.>.0.<.<.>.w.0.0.<.<.0.R 0.w.;.,.A Z y G f f f x J l z a F Z L 5.5.4.<.0.0.0.Y >.0.0.0.w.r.r.4.<.0.>.4.4.r.:.:.w.0.y.p.* ",
"0.0.0.0.0.>.w.4.0.q.T R w.w.R Y ;.5.5.Z F G h f f c m m j b n l J u G D 5.3.7.>.0.R R 0.>.0.e.<.w.1.<.<.<.,.>.>.Y 0.q.:.1.g.! &X",
"0.0.<.0.0.0.4.<.0.q.T q.w.T >.<.7.2.G D s f f c c c m m b j b x j z a G D p.5.;.0.0.R q.0.0.<.<.0.e.0.<.<.<.>.>.>.Y >.y.g.*XfX6X",
"<.<.0.0.r.<.<.4.<.w.>.0.<.<.t.-.G r a H d h x m c x x p j p a H j b n s i F P 3.,.0.e.e.e.0.<.>.0.R e.<.>.>.>.,.<.,.t.p.#X=XNXN.",
"e.<.0.<.<.y.<.<.<.,.<.w.1.7.5.r s v h p k k v j M n x p g H i v b b x m h d F t 3.<.e.e.e.0.<.>.R q.0.<.R 0.>.<.<.t.p.: dXrX( + ",
"r.:.R R :.r.e.q.0.Y 0.,.r.5.} H g f f g g k k k k x x g f f g f b b b x x f s S P 3.r.e.w.e.;.0.0.q.R q.R q.e.e.e.g.6 U.aX~.5 5 ",
"y.y.q.T t.4.r.>.0.Y >.<.;.5.H a g f f f g k k v k k v x f c x x x k v x c b h g G 2.3.r.e.w.w.Y Y 0.q.T q.:.y.y.e.u.+ 7X9X}.. { ",
"s.p.4.r.6.g.9.f.q.E 0.>.4.Z G a k x x x x x x x k z k l x b b c f v j v b x c f i G i.-.r.>.Y 0.w.w.R 0.e.t.8.r.e.6.O U.Y.o ~.{ ",
"&XO a.p.s.& & h.e.0.0.>.-.Z i k k k x x x x b x b x l k b x x x f g p k x b c b g F 2.7.w.0.0.q.;.w.>.<.r.5.f.,.w.y.*X: O /.OX{ ",
"|.NX*.! +.7XXX! C y.4.3.U i d x b b b b z b k k x k b x k k k k h g k k k b c c s i -.3.,.:.w.Y w.Y >.,.,.r.>.>.T w.1.s.& |.!.F.",
"|.).(.I.^.aXrX7Xe g.4.3.K a J M x b z k k z k x x x x x v j a k f x k k l b c c h r | 3.r.<.0.>.:.w.w.<.t.g.9.g.g.u.g.a.O |./.N.",
"oXrXP.~.U.!.wXiX6 j.7.5.i v M m v v v x x x f v f x j v x x x b x x v l b b c h g F A t.<.T >.>.>.r.<.u.*Xo @   .   . @ o Q.|.F.",
"{ iX~.[ P.~.wX>X6 *X6.5.G v c h h p f x g x x x g g g x f b c c c x x x x x c c g F S ,.<.0.0.>.0.1.6.! dX  .         . . }.|.F.",
"m.yX(.] $.P.nX@XxXo p.3.D k h h M h v n p x v j j g f f x c m m b m x f s h c b f s D 5.>.R q.:.r.u.* -X@ ,X( 5 V..       % o v.",
"~.yX!.) D.P.eX[.,XO p.3.D s c c m p p x v x p m v x g x x x x x b m f x h f x m m v Z 2.w.q.0.r.f.*.rX~ * zXN.N.+ =   # # x.z.= ",
"OX9XD.o.&.XX9XoX,XO 6.,.D z l b f n v p g J p p x x x v v p s g M x v x j v z j j k Z 3.4.<.;.i.*X=X. - {.lX_ S.B.O . C.  gXvXHX",
">XtXO.+.*.U.@X{.zXo i.>.L D l l x v p v g p v n b b z x x g g F g s k k k s z n v H I 3.,.4.g.a.=XO <X~ . lX;X).|.o . ; mX    b.",
"Q.cX&.@.@.I.P.eX:XaXg.4.3.Z a a G a g G s d h x b b b b x f h s g s l n p g v f h y 2.,.e.u.* fX. >X. V.. xX_ S.S.O X w gXjXz.jX",
".X7XI.I...$.~.cX4XaXC 5.4.|  . . .} =.a d g J c x b b b x f f x h s p H y F F S S S 3.;.y.j.* ^ 4 N . b.. lXF.R.|.V n. XhXz.k.hX",
"L.I.XXI.#.o.`.yX).yXO #X7.3.t a d k k k n j j f c c c x x z l l c p J 2.i.f.7.t.4.<.>.t.h.% . . . . . V.o wXF.` v.B.jXLXl.7 DXl.",
"&.U.P.] R.) S.'.4X~.yXo h.3.p.Z L  .a a a s n x g h f f x l l l x h y G D 2.r.,.<.t.8.g.=XE.* C.B.. . v.. lXN.M.T.jXjXl.7 LXl.w ",
"X.L.yXOX{ ~.F.F.L.7X~.dX! p.5.,.5.-.A r r G u u d d d d s v p j M j d y s S t A 5.p.< fX{ % o ].B.o   q   qX<X~ zXjXl.A.KXz.7 DX",
"S.G.6X%XU.5 F.F.K.K.6X2XQ 2 i.<.>.,.4.3.I U } K P } } } K K G u D K } P K P | d.s.2 XX@X0 N.O ].].X 0 W <X9 q Z.vXz.A.jXn.q DXZ.",
"& M.OXXXU.D.N.O m.@X@XE.xXO s.i.0.0.T >.;.<.4.5.5.| t A A 3.,.4.4.<.3.3.,.,.,.p.=XaXR.& /.v.o ].o |.:X%   CXjXbXl.7 DXA.A.jXjXl.",
"x.. v.~.~.~.Y.. 3 . N.W.{.}.XX@ a.g.g.i.t.6.7.p.5.i.p.6.7.7.3.6.y.y.u.6.r.r.f.p.o v.V {.O v.o T.O xXmX8XV.,XgXz.> DXz.w jXjXA.Z.",
". . . T.B.v.v.C.. . . {.x.B.oXE.OX@ o -X&X*Xa.s.#Xs.s.a.#Xa.s.s.a.j.#X*Xs.a.a.a.-X. 4 |.O { :XNX` [ M.{.zX,Xz.~ bXz.8 DXjXl.DXLX",
"JXJXJXHXHXHXGXGXJXJXGXGXHXHXHXGXGXGXFXFXVXVXsXsXBXsXsXsXVXVXVXVXVXBXBXBXsXsXsXVXVX  > <Xo ( @XN.N.H.Q.B.,X@ # % # X X $ $ $ X X ",
"vXmXiXiXAXFXGXGXZXCX0XkXmXFXFXAXFXNXlXqXlXSXAXSXSXVXiX8XwXmXAXFXFXSXNXpXiXpXNXAXGX  <X>X>Xv.oXN.M.v.M.].].vXvXvXgXCXhXCXhXhXhXLX",
"mXqXiX6XwXlXkXzXmXiXkXkXlXmXqXlXwX8XqXmX0XzXqXmXqXmXqXiXqXkXmXzXzXzXkXqXwXwXkXmXhX  > . o M.. . o o o o o . .           .       ",
"lXwXeXiX0XlX0XlXqXnXqXlXnX0XMXqXnX0XnXwXlXnX0XlXqXlX0XlXlXkXlXlXlXkXlXwX0XiXnXkXhX  4 8   b.. [./.|.}.}.1XR.[.3       ; Z.B.{.x.",
"wXnXwXlXwXlXlXwXnXlXlXwXlXnXwXwXwXwXlXwXwXwXlXlXnXwXwXMXxXqXqXlXlXlXqXxXMX8XnXZX%   8 4 . x.. [.o ` O + OX;X. . . .   . . . . . ",
"qXlX0XnXnXqXnXwXwXwXqXlXqXnXwXnXeXnXlXnXwXqXlX0X0XMXlX0X0XlXMXwXlXqXMX8XlXmXkX  <X{.o > . B.. [.o F.v.N uX|.. o ' ^ ' 9 .   . . ",
"wXnXlXlXwXwXwXwXwXnXlXMXlXwXwX0XwXlXwX0XqXlXMXMXnXwXeXlXnX0XwXlXlXMXeXlXxXxXmXZX. V.oX. @ N.o }.. c.T.B :X|.. 3 c.#.N.- . ,X. + ",
"eXeXlXlX8XnX0XMXwX0XwX0XqXwXwXMXnXeXxXlXwXlX0XwXwXlXeXwXwXwXwXwX0XlXqXmXkXlX0XxXxX+ <X}.oXF.& Q.o N.` ' OXW.o 3 O.X...: .  XT.* ",
"nXwXxXeX:XeX>X0X:XNX9XMXMXoX9XQ.wX8XlXwXwXwX>X8XW.eXnXwXwXxXqXW.MXQ.cXMXxX0XuXuX[.zXo NX/.(.= ).o M.o.B 4XE.. 3 X.+.O.: . <XB.* ",
"3X3X8X0X8XtX9XpX8X:X0X;X3XwX9XpXwX3X8X3X8X9X9XpXwXeX3X3X3X3XqXwXnXiX8X:X8X3X8XxXlXcX^ o 0 0 O B o v.F.V OXOX. 5 S.O.c.* . ZXB.+ ",
"tXeXtXeXtXtXtXwXtXMX9XpXwXMXtXtXtXtXwXtXtXtXtXwXtXtXwXwXtX9XtXlXlXlXtXeXrX9XNXwXyXxXwXNXF.( m.[ o F.v.B 6XR.. 3 c.F.F.> o zXQ.* ",
"}.~.R./.8XtXtXtX8X/./.R.>XwXyXwXyXoX/.W./.3XtXeXtX3X/././.>XtXyXtXwX;X~.~./.3XpXtXtX0X>Xo Q.M.m.m.O S.V 1X;X. 8 Y.v.. ; o ZXB.* ",
"/.E.R.oX5XtXrXpX;XR./.~.;XrXtXpX9XoX/.E.~.3XaXyXtX6X/.!.R.~.tXaXtXyXOXR.R.~.3XpXtX0X8XoX,X. ^ yX` o.D.& 1X}..   B..   ;   ZXT.& ",
"2X1X;X;X3X5X6X4X4X;X1X1X2X5X6X4X5X2X;XOX;X2X9X5X5X2X;X2X;X;X9X4X%X6X1X1X1X1X2X6X6X8X3X>X;XW o , 5XD.%.X.< }.  9 > 4 ;     ZXY.& ",
"~.~.!.P.(.^.~.~.~.P.~.~.!.~.~.~.~.~.~.^.^.~.~.!.~.!.~.~.~.!.+XP.P.P.P.).).).~.^.@XH.@X@XH.W.& o m.!.'.K.4XoX    B.B.      ZXY.* ",
"~.~.^.~.~.~.~.^.!.P.~.~.~.~.^.~.~.^.^.~.^.~.~.^.~.~.L.^.~.!.^.(.XXXXI.I.~.).(.!.XXXX%.W @X@X;XY.o Y.).`.2XW.    {.o         o o ",
"^.^.^.^.^.L.L.~.^.^.^.~.L.L.!.L.~.P.^.I.~.^.~.^.L.^.~.(.^.P.^.P.^.^.I.^._.`.L.@.] &XW Q ` oX~.!.uXO v.o o W.. . . o o   . HX. {.",
"L.I.^.I.^.^.^.^.I.I.^.I.I.I.^.^.^.^._.I.(.I.^.I._.I.^.I.^.I.I.^.^.~.L.I.L.I.L.&.@.U.%.] ] XXU.(.+X( o - Y.= o <X0X9X8X0XkX= {.# ",
"^.^.I.I.I.I.I.I.^.I.I.^.^.I.'.L.^.I.I.I.I.^.^.I.I.I.I.I.I._.L.^.I.^.(.(.L.I.'.U.U.XXU.I.XXU.I.I.I.~.@ O ( wXB.M.M.M.N.m.M.M.o Z.",
"I.^.^.^.L.(.K._.I._.L.^.I.J.%XL.^.^.^.^.~.^.K._.L.^.^.^.L.^.(.L.^.I.(.L.I.$XK.$XI.^.K.I.I.I.(.J.'.^.W.( . B.NXN.[ [ _ [ [ m.N.O ",
"^.^.I.K.D.K.D.K.D.^.I.$X^.D.J.) ^.^.L.K.^.K.$.K.#.K.^.I.L.^.L.@.K.%.I.^.(.I.$.K.$.G.K.^.$XI.K.$.'./ |.Q.o o M.oXrXyX7XrXrXrXqXcX",
"$.#...$.G._.L.^.D...@...D.^.(._.L.) ) #.$.K.^.L.L.J.$...) #.L.^._.L.@.#.@.@.K._.I._.D.#.) ..D.^.!._._.$.m.o O 3 [ /./.(.~./././.",
"L.I.(.L.K.J.G.L.I.(.^.^.K.G.L.J.L.^.^.L.K.K.G.^.!.J.L._._.K.L.L.K.K.^.^.^.I.G.K.G.I.K.L.%X_.L.G.(.D.G.XX~.(.o . N :X9X1X1X6X6XOX",
"#.) ) ) L.$X_.I.D./ ..) D.%X!._.^.) o.#...K.$XK.(.K.#.) ) $.L.~.L._.#.#.) ) !.^.^.(.K.@.) ) #.~.~.^._.&...) c.o o {.xX1X}.~.+XH.",
"$...#.#.G.^.I.(.D.$.) ..$.J._.^.J.D.#.) #.J.^.$XI.G.o.) ] $.L.^.$XL.D.) ) o.D._.^.I.D.@.o.o.D.L.~.L.^.%....._ Q.o . ].Y.9XrX6XfX",
"$.) ) o.K.^.^.^.G.) ....%.(.^.L.^.#...) ..K.(.^._.G...O.#.O.K.^._.L.#...o...G.^._.L.L.$./ ) $.L._.%XL.$./ ....K.|.o . q N.iX+XP.",
"%.D.G.$.D.o...o.D.D.G.G.$.O.#...O.$.G.G.D.$.) o...%.D.G.D.D.D.) ..#.D.D.G.G.$...#.) $.D.G.G.$.&.....#.D.J.&.%.&.c.M.. . 5 N.%X2X",
"@.@.....@.@.@.@.o.@.@.@.@.@.] o.@.@.@.@.@.@.@.@...@.....@.@.@.@.....@.@.@.@.@.@.@.@.@.@.@.] ..#...#.@.@...#.@.@.` F.v.  o B.[ yX",
"@.@.....@...@...@.@.@.@.@.@.@...@.@.#...@...@.@.@...#...@.@.@...@.@...#.@.@.] @.@.@.@.@.o.....#.#.#.@.@.X.O.@.@.#.] N.{ . + F.S.",
"@.@.@.&.@.@.X.#.@...#.@.@.@.@.@.#...&.@.@.@.@.@.@.@.@.&.@.....#.@...&...@...O.@.@.@.@.@.@.@.@..._ #.O.X.X.&.@.] ] ] ] ] c.o O ' ",
"@.@.@...#.@.....@.@...@...@.@.@.X.....@.@.@.@.@.@.@.@.@.@.@.X.....#...X.@.@.@.@.X.X.&.@.@.@.@.#.#.#...X.X.X.@.@.] @.] %.#.c.o O ",
"@.&...O.#.@.@.&.#.@.X...@...O.@.@.@.@.@.X...@.@.@...X.#...X...&.@.@.@.@.@.@.@.&.@.@.X.@.@.@.@.@.....O.O.X.X.@.@./ $.&.+.@.#.M.o ",
"@...@.@.X...@.@.&.@.@.#.&...@.@.@.@.@.@.#...&.@.&...&...&...#...&.@.@.@.@.@.....@.@.@.@.@.@.@.@.@.@...#.....@.@.O...X.O.@.) F.M.",
"@.@.@.@.X.#.@.@.....@.@...@.&...O.@...#...&.@.@.@.@...X.X.#.@.@.....@.@.O.X.X.#.@.@.@.@.@.@.@.@.@.@.@.@.#.#.O.X.O.X.O.O.F.#._ ] ",
"@.#.X.@...&...@.@.X.X...&.#.X...X...&.X.....@.@.@.@.@.O.....&.@.@.O.@.@.@...&...@.@.@.@.@.@.@.&.+.+.@.] _ O.O.O.X.X.O._ o.) ] ] "
};
